<svg width="830" height="57" viewBox="0 0 830 57" fill="none" xmlns="http://www.w3.org/2000/svg">
<path d="M2.23632 3.12645C74.2884 6.40318 146.244 9.52558 218.421 10.9128C354.177 13.5221 489.273 8.04631 624.593 5.67451C689.408 4.53848 754.542 1.49369 819.502 1.95801C825.963 2.00419 833.02 1.82161 822.029 2.2664C799.854 3.16379 777.87 5.85087 755.788 7.23685C657.232 13.4226 558.626 19.6258 460.266 26.566C380.954 32.1622 296.452 35.0563 219.311 47.1844C212.142 48.3115 219.504 48.9838 222.713 49.4434C238.377 51.6872 254.154 52.4087 270.137 52.8991C325.375 54.5936 380.594 55.1058 435.665 53.8217" stroke="url(#paint0_linear_501_53)" stroke-width="3" stroke-linecap="round"/>
<defs>
<linearGradient id="paint0_linear_501_53" x1="415.406" y1="-10.6764" x2="413.321" y2="57.2916" gradientUnits="userSpaceOnUse">
<stop stop-color="#EC4899"/>
<stop offset="1" stop-color="#A855F7"/>
</linearGradient>
</defs>
</svg>
