<svg width="32" height="32" viewBox="0 0 32 32" fill="none" xmlns="http://www.w3.org/2000/svg">
<g id="Icon" clip-path="url(#clip0_42_408)">
<path id="Vector" d="M16 12C12.692 12 10 9.308 10 6C10 2.692 12.692 0 16 0C19.308 0 22 2.692 22 6C22 9.308 19.308 12 16 12ZM30.5627 12.908C29.648 12.1453 28.4573 11.8307 27.208 12.06L21.712 13.3973C19.1747 13.8587 17.3333 16.0653 17.3333 18.6453V29.048L16 29.2907L14.6667 29.048V18.6453C14.6667 16.0653 12.8253 13.86 10.364 13.4147L4.71467 12.044C3.54 11.828 2.34933 12.1467 1.43733 12.908C0.522667 13.6707 0 14.7893 0 15.9787V29.0907L16 32L32 29.0907V15.9787C32 14.7893 31.476 13.6707 30.5627 12.908Z" fill="white"/>
</g>
<defs>
<clipPath id="clip0_42_408">
<rect width="32" height="32" fill="white"/>
</clipPath>
</defs>
</svg>
