<svg style='font-weight: 800;' width="56" height="40" viewBox="0 0 56 40" fill="none" xmlns="http://www.w3.org/2000/svg">
<path fill-rule="evenodd" clip-rule="evenodd" d="M54.7789 1.17115C55.5287 1.92126 55.95 2.93849 55.95 3.99915C55.95 5.0598 55.5287 6.07703 54.7789 6.82714L22.7788 38.8271C22.0287 39.577 21.0115 39.9983 19.9508 39.9983C18.8902 39.9983 17.873 39.577 17.1228 38.8271L1.12285 22.8271C0.394215 22.0727 -0.00896247 21.0623 0.000151211 20.0135C0.00926489 18.9648 0.429941 17.9615 1.17157 17.2199C1.91321 16.4782 2.91645 16.0576 3.96524 16.0485C5.01403 16.0393 6.02444 16.4425 6.77885 17.1711L19.9508 30.3431L49.1228 1.17115C49.873 0.421262 50.8902 0 51.9508 0C53.0115 0 54.0287 0.421262 54.7789 1.17115Z" fill="url(#paint0_linear_101_6)"/>
<defs>
<linearGradient id="paint0_linear_101_6" x1="27.975" y1="0" x2="27.975" y2="39.9983" gradientUnits="userSpaceOnUse">
<stop stop-color="#EC4899"/>
<stop offset="1" stop-color="#A855F7"/>
</linearGradient>
</defs>
</svg>
