<svg width="32" height="32" viewBox="0 0 32 32" fill="none" xmlns="http://www.w3.org/2000/svg">
<g id="Icon" clip-path="url(#clip0_42_438)">
<path id="Vector" d="M32.0004 12V29.1387C32.071 31.3547 29.3564 32.812 27.5484 31.524L22.263 27.9987H14.667C12.7337 27.9987 11.0044 27.1573 9.78571 25.8387L10.5444 25.332H18.667C23.8124 25.332 28.0004 21.1453 28.0004 15.9987V6.66667C28.0004 6.40933 27.9817 6.156 27.9617 5.90267C30.3297 6.92533 32.0004 9.26133 32.0004 12ZM10.0004 8.8H8.80038V13.8667H10.0004C10.295 13.8667 10.5337 13.628 10.5337 13.3333V9.33333C10.5337 9.03867 10.295 8.8 10.0004 8.8ZM18.667 0H6.66704C2.99104 0 0.000375731 2.99067 0.000375731 6.66667V23.8053C-0.0702909 26.0227 2.64438 27.4773 4.45371 26.1893L9.73771 22.6653H18.667C22.343 22.6653 25.3337 19.6747 25.3337 15.9987V6.66667C25.3337 2.99067 22.343 0 18.667 0ZM12.667 13.3333C12.667 14.8067 11.4737 16 10.0004 16H8.00038C7.26438 16 6.66704 15.4027 6.66704 14.6667V8C6.66704 7.264 7.26438 6.66667 8.00038 6.66667H10.0004C11.4737 6.66667 12.667 7.86 12.667 9.33333V13.3333ZM17.6004 10.2667C18.1897 10.2667 18.667 10.744 18.667 11.3333C18.667 11.9227 18.1897 12.4 17.6004 12.4H16.1324V13.868H17.6004C18.1897 13.868 18.667 14.3453 18.667 14.9347C18.667 15.524 18.1897 16.0013 17.6004 16.0013H15.3337C14.5977 16.0013 14.0004 15.404 14.0004 14.668V8C14.0004 7.264 14.5977 6.66667 15.3337 6.66667H17.6004C18.1897 6.66667 18.667 7.144 18.667 7.73333C18.667 8.32267 18.1897 8.8 17.6004 8.8H16.1324V10.268H17.6004V10.2667Z" fill="white"/>
</g>
<defs>
<clipPath id="clip0_42_438">
<rect width="32" height="32" fill="white"/>
</clipPath>
</defs>
</svg>
