<svg width="32" height="32" viewBox="0 0 32 32" fill="none" xmlns="http://www.w3.org/2000/svg">
<g id="Icon">
<path id="Vector" d="M18.667 15.9997C18.667 18.1184 18.119 18.6664 16.0003 18.6664C13.8816 18.6664 13.3336 18.1184 13.3336 15.9997C13.3336 13.881 13.8816 13.333 16.0003 13.333C18.119 13.333 18.667 13.881 18.667 15.9997ZM30.667 15.9997C30.667 21.4864 29.3216 25.5837 29.2643 25.7544C29.0776 26.313 28.559 26.6664 28.0003 26.6664C27.8616 26.6664 27.719 26.6437 27.5803 26.5984C27.5416 26.5864 23.7376 25.333 20.667 25.333C18.479 25.333 17.0923 25.641 15.623 25.9677C14.0776 26.3117 12.4803 26.6664 10.0003 26.6664C5.73496 26.6664 2.85896 25.2517 2.73763 25.193C2.38963 25.0184 2.13496 24.701 2.04163 24.3237C2.01229 24.2077 1.33496 21.4344 1.33496 15.9997C1.33496 10.513 2.68029 6.41571 2.73763 6.24505C2.96963 5.54771 3.72429 5.17038 4.42296 5.40238C4.46163 5.41438 8.26563 6.66771 11.3363 6.66771C13.5243 6.66771 14.911 6.35971 16.3803 6.03305C17.9256 5.68905 19.523 5.33438 22.003 5.33438C26.2683 5.33438 29.1443 6.74905 29.2656 6.80771C29.6136 6.98238 29.8683 7.29971 29.9616 7.67705C29.991 7.79305 30.6683 10.5664 30.6683 16.001L30.667 15.9997ZM9.33363 20.6664C9.33363 19.5624 8.43763 18.6664 7.33363 18.6664C6.22963 18.6664 5.33363 19.5624 5.33363 20.6664C5.33363 21.7704 6.22963 22.6664 7.33363 22.6664C8.43763 22.6664 9.33363 21.7704 9.33363 20.6664ZM9.33363 11.333C9.33363 10.229 8.43763 9.33305 7.33363 9.33305C6.22963 9.33305 5.33363 10.229 5.33363 11.333C5.33363 12.437 6.22963 13.333 7.33363 13.333C8.43763 13.333 9.33363 12.437 9.33363 11.333ZM21.3336 15.9997C21.3336 12.4117 19.5883 10.6664 16.0003 10.6664C12.4123 10.6664 10.667 12.4117 10.667 15.9997C10.667 19.5877 12.4123 21.333 16.0003 21.333C19.5883 21.333 21.3336 19.5877 21.3336 15.9997ZM26.667 20.6664C26.667 19.5624 25.771 18.6664 24.667 18.6664C23.563 18.6664 22.667 19.5624 22.667 20.6664C22.667 21.7704 23.563 22.6664 24.667 22.6664C25.771 22.6664 26.667 21.7704 26.667 20.6664ZM26.667 11.333C26.667 10.229 25.771 9.33305 24.667 9.33305C23.563 9.33305 22.667 10.229 22.667 11.333C22.667 12.437 23.563 13.333 24.667 13.333C25.771 13.333 26.667 12.437 26.667 11.333Z" fill="white"/>
</g>
</svg>
