<svg width="32" height="32" viewBox="0 0 32 32" fill="none" xmlns="http://www.w3.org/2000/svg">
<g id="Icon" clip-path="url(#clip0_42_418)">
<path id="Vector" d="M25.3337 15.9941V6.66081C25.3337 2.98481 22.343 -0.00585938 18.667 -0.00585938H6.66704C2.99104 -0.00585938 0.000375731 2.98481 0.000375731 6.66081V23.7995C-0.0702909 26.0168 2.64438 27.4715 4.45371 26.1835L9.73771 22.6595H18.667C22.343 22.6595 25.3337 19.6688 25.3337 15.9928V15.9941ZM10.267 10.2661C10.8564 10.2661 11.3337 10.7435 11.3337 11.3328C11.3337 11.9221 10.8564 12.3995 10.267 12.3995H8.79904V13.8675H10.267C10.8564 13.8675 11.3337 14.3448 11.3337 14.9341C11.3337 15.5235 10.8564 16.0008 10.267 16.0008H8.00038C7.26438 16.0008 6.66704 15.4035 6.66704 14.6675V7.99947C6.66704 7.26347 7.26438 6.66614 8.00038 6.66614H10.267C10.8564 6.66614 11.3337 7.14347 11.3337 7.73281C11.3337 8.32214 10.8564 8.79947 10.267 8.79947H8.79904V10.2675H10.267V10.2661ZM16.5684 15.3021L14.659 11.2688V15.0035C14.659 15.5528 14.2137 15.9995 13.663 15.9995C13.1124 15.9995 12.667 15.5541 12.667 15.0035V7.88481C12.667 7.21147 13.2124 6.66614 13.8857 6.66614C14.3577 6.66614 14.7857 6.93814 14.9884 7.36481L16.899 11.4061V7.66214C16.899 7.11281 17.3444 6.66614 17.895 6.66614C18.4457 6.66614 18.891 7.11147 18.891 7.66214V14.7808C18.891 15.4541 18.3457 15.9995 17.6724 15.9995C17.2017 15.9995 16.7724 15.7275 16.571 15.3021H16.5684ZM32.0004 11.9941V29.1328C32.071 31.3488 29.3564 32.8061 27.5484 31.5181L22.263 27.9928H14.667C12.7337 27.9928 11.0044 27.1515 9.78571 25.8328L10.5444 25.3261H18.667C23.8124 25.3261 28.0004 21.1395 28.0004 15.9928V6.66081C28.0004 6.40347 27.9817 6.15014 27.9617 5.89681C30.3297 6.91947 32.0004 9.25547 32.0004 11.9941Z" fill="white"/>
</g>
<defs>
<clipPath id="clip0_42_418">
<rect width="32" height="32" fill="white"/>
</clipPath>
</defs>
</svg>
