<svg width="32" height="32" viewBox="0 0 32 32" fill="none" xmlns="http://www.w3.org/2000/svg">
<g id="Icon" clip-path="url(#clip0_42_423)">
<path id="Vector" d="M32.0004 11.9941V29.1328C32.071 31.3488 29.3564 32.8061 27.5484 31.5181L22.263 27.9928H14.667C12.7337 27.9928 11.0044 27.1515 9.78571 25.8328L10.5444 25.3261H18.667C23.8124 25.3261 28.0004 21.1395 28.0004 15.9928V6.66081C28.0004 6.40347 27.9817 6.15014 27.9617 5.89681C30.3297 6.91947 32.0004 9.25547 32.0004 11.9941ZM18.667 -0.00585938H6.66704C2.99104 -0.00585938 0.000375731 2.98481 0.000375731 6.66081V23.7995C-0.0702909 26.0168 2.64438 27.4715 4.45371 26.1835L9.73771 22.6595H18.667C22.343 22.6595 25.3337 19.6688 25.3337 15.9928V6.66081C25.3337 2.98481 22.343 -0.00585938 18.667 -0.00585938ZM10.267 10.2661C10.8564 10.2661 11.3337 10.7435 11.3337 11.3328C11.3337 11.9221 10.8564 12.3995 10.267 12.3995H8.79904V14.9328C8.79904 15.5221 8.32171 15.9995 7.73238 15.9995C7.14304 15.9995 6.66571 15.5221 6.66571 14.9328V7.99947C6.66571 7.26347 7.26304 6.66614 7.99904 6.66614H10.2657C10.855 6.66614 11.3324 7.14347 11.3324 7.73281C11.3324 8.32214 10.855 8.79947 10.2657 8.79947H8.79771V10.2675H10.2657L10.267 10.2661ZM18.3124 14.5675C18.5657 15.2635 18.0497 15.9995 17.3097 15.9995C16.8617 15.9995 16.4604 15.7181 16.307 15.2968L15.3497 12.6661H14.799V14.9328C14.799 15.5221 14.3217 15.9995 13.7324 15.9995C13.143 15.9995 12.6657 15.5221 12.6657 14.9328V7.99947C12.6657 7.26347 13.263 6.66614 14.2084 6.66614H15.6044C17.1297 6.66614 18.4604 7.78081 18.643 9.29681C18.7817 10.4515 18.2604 11.4861 17.4124 12.0968L18.311 14.5675H18.3124ZM15.667 8.79947H14.8004V10.5328H15.667C16.1444 10.5328 16.5337 10.1435 16.5337 9.66614C16.5337 9.18881 16.1444 8.79947 15.667 8.79947Z" fill="white"/>
</g>
<defs>
<clipPath id="clip0_42_423">
<rect width="32" height="32" fill="white"/>
</clipPath>
</defs>
</svg>
