<?xml version="1.0" encoding="UTF-8"?><svg id="Laag_2" xmlns="http://www.w3.org/2000/svg" xmlns:xlink="http://www.w3.org/1999/xlink" viewBox="0 0 372.16 133.12"><defs><style>.cls-1{fill:#fff;}.cls-2{fill:#b0358b;}.cls-3{fill:#d7007f;}.cls-4{fill:url(#Naamloos_verloop_37);}.cls-5{fill:url(#light_gradient);}</style><linearGradient id="light_gradient" x1="12.71" y1="107.7" x2="46.15" y2="107.7" gradientUnits="userSpaceOnUse"><stop offset="0" stop-color="#68236b"/><stop offset=".51" stop-color="#d7007f"/></linearGradient><linearGradient id="Naamloos_verloop_37" x1="32.57" y1="47.65" x2="66.01" y2="47.65" gradientUnits="userSpaceOnUse"><stop offset="0" stop-color="#b0358b"/><stop offset="1" stop-color="#2f2777"/></linearGradient></defs><g id="Laag_1-2"><g><g><path class="cls-5" d="m46.15,133.12h-15.14c-4.28,0-8.2-2.38-10.17-6.18l-5.51-10.63h0s-1.07-3.8-1.07-3.8c-1.04-3.68-1.55-7.46-1.55-11.22,0-6.57,1.56-13.1,4.64-19.02l28.81,50.85Z"/><path class="cls-3" d="m17.34,82.27c-3.07,5.93-4.64,12.45-4.64,19.02,0,3.76.51,7.54,1.55,11.22l1.07,3.79-7.82-15.08-5.45-10.51c-2.75-5.3-2.75-11.6,0-16.9l5.45-10.51,4.5-8.68h19.66l-14.33,27.63Z"/><path class="cls-4" d="m32.57,22.22h15.14c4.28,0,8.2,2.38,10.17,6.18l5.51,10.63h0s1.07,3.8,1.07,3.8c1.04,3.68,1.55,7.46,1.55,11.22,0,6.57-1.56,13.1-4.64,19.02l-28.81-50.85Z"/><path class="cls-2" d="m61.38,73.07c3.07-5.93,4.64-12.45,4.64-19.02,0-3.76-.51-7.54-1.55-11.22l-1.07-3.79,7.82,15.08,5.45,10.51c2.75,5.3,2.75,11.6,0,16.9l-18.47,33.83h-19.66l22.85-42.28Z"/><circle class="cls-2" cx="41.41" cy="9.16" r="9.16"/><circle class="cls-3" cx="21.73" cy="41.6" r="9.16"/></g><g><g><path class="cls-1" d="m111.44,53c0-.88.7-1.57,1.75-1.57s1.75.65,1.75,1.51c0,.94-.7,1.62-1.75,1.62s-1.75-.68-1.75-1.57Zm.34,2.92h2.81v9.69h-2.81v-9.69Z"/><path class="cls-1" d="m128.83,53v12.6h-2.39l-6.28-7.65v7.65h-2.88v-12.6h2.41l6.27,7.65v-7.65h2.88Z"/><path class="cls-1" d="m143.95,53l-5.46,12.6h-2.88l-5.44-12.6h3.15l3.83,9,3.89-9h2.9Z"/><path class="cls-1" d="m155.03,63.26v2.34h-9.76v-12.6h9.52v2.34h-6.63v2.74h5.85v2.27h-5.85v2.92h6.86Z"/><path class="cls-1" d="m168.99,53v12.6h-2.39l-6.28-7.65v7.65h-2.88v-12.6h2.41l6.27,7.65v-7.65h2.88Z"/><path class="cls-1" d="m174.47,55.38h-4.03v-2.38h10.98v2.38h-4.03v10.23h-2.92v-10.23Z"/><path class="cls-1" d="m182.8,60.06v-7.06h2.92v6.95c0,2.39,1.04,3.38,2.81,3.38s2.81-.99,2.81-3.38v-6.95h2.88v7.06c0,3.71-2.12,5.76-5.71,5.76s-5.71-2.05-5.71-5.76Z"/><path class="cls-1" d="m208.55,65.6l-.02-7.56-3.71,6.23h-1.31l-3.69-6.07v7.4h-2.74v-12.6h2.41l4.72,7.83,4.65-7.83h2.39l.04,12.6h-2.74Z"/><path class="cls-1" d="m218.82,53c0-.88.7-1.57,1.75-1.57s1.75.65,1.75,1.51c0,.94-.7,1.62-1.75,1.62s-1.75-.68-1.75-1.57Zm.34,2.92h2.81v9.69h-2.81v-9.69Z"/><path class="cls-1" d="m236.22,53v12.6h-2.39l-6.28-7.65v7.65h-2.88v-12.6h2.41l6.27,7.65v-7.65h2.88Z"/><path class="cls-1" d="m241.7,55.38h-4.03v-2.38h10.98v2.38h-4.03v10.23h-2.92v-10.23Z"/><path class="cls-1" d="m259.85,63.26v2.34h-9.76v-12.6h9.53v2.34h-6.63v2.74h5.85v2.27h-5.85v2.92h6.86Z"/><path class="cls-1" d="m270.27,65.6l-2.43-3.51h-2.68v3.51h-2.92v-12.6h5.46c3.37,0,5.47,1.75,5.47,4.57,0,1.89-.95,3.28-2.59,3.98l2.83,4.05h-3.13Zm-2.74-10.23h-2.38v4.39h2.38c1.78,0,2.68-.83,2.68-2.2s-.9-2.2-2.68-2.2Z"/><path class="cls-1" d="m287.03,53v12.6h-2.39l-6.28-7.65v7.65h-2.88v-12.6h2.41l6.27,7.65v-7.65h2.88Z"/><path class="cls-1" d="m298.33,62.9h-5.85l-1.12,2.7h-2.99l5.62-12.6h2.88l5.63,12.6h-3.06l-1.12-2.7Zm-.92-2.21l-2-4.83-2,4.83h4Z"/><path class="cls-1" d="m305.12,55.38h-4.03v-2.38h10.98v2.38h-4.03v10.23h-2.92v-10.23Z"/><path class="cls-1" d="m313.5,53h2.92v12.6h-2.92v-12.6Z"/><path class="cls-1" d="m318.59,59.3c0-3.75,2.92-6.52,6.9-6.52s6.9,2.75,6.9,6.52-2.93,6.52-6.9,6.52-6.9-2.77-6.9-6.52Zm10.84,0c0-2.39-1.69-4.03-3.94-4.03s-3.94,1.64-3.94,4.03,1.69,4.03,3.94,4.03,3.94-1.64,3.94-4.03Z"/><path class="cls-1" d="m346.12,53v12.6h-2.39l-6.28-7.65v7.65h-2.88v-12.6h2.41l6.27,7.65v-7.65h2.88Z"/><path class="cls-1" d="m357.42,62.9h-5.85l-1.12,2.7h-2.99l5.62-12.6h2.88l5.63,12.6h-3.06l-1.12-2.7Zm-.92-2.21l-2-4.83-2,4.83h4Z"/><path class="cls-1" d="m362.92,53h2.92v10.23h6.32v2.38h-9.24v-12.6Z"/></g><g><path class="cls-3" d="m111.44,80.9c0-3.75,2.92-6.52,6.9-6.52s6.9,2.75,6.9,6.52-2.93,6.52-6.9,6.52-6.9-2.77-6.9-6.52Zm10.84,0c0-2.39-1.69-4.03-3.94-4.03s-3.94,1.64-3.94,4.03,1.69,4.03,3.94,4.03,3.94-1.64,3.94-4.03Z"/><path class="cls-3" d="m138.97,74.6v12.6h-2.39l-6.28-7.65v7.65h-2.88v-12.6h2.41l6.27,7.65v-7.65h2.88Z"/><path class="cls-3" d="m141.94,74.6h2.92v10.23h6.32v2.38h-9.24v-12.6Z"/><path class="cls-3" d="m152.65,74.6h2.92v12.6h-2.92v-12.6Z"/><path class="cls-3" d="m170.06,74.6v12.6h-2.39l-6.28-7.65v7.65h-2.88v-12.6h2.41l6.27,7.65v-7.65h2.88Z"/><path class="cls-3" d="m182.79,84.86v2.34h-9.76v-12.6h9.53v2.34h-6.63v2.74h5.85v2.27h-5.85v2.92h6.86Z"/><path class="cls-3" d="m189.21,85.96l.99-2.2c1.06.77,2.65,1.31,4.16,1.31,1.73,0,2.43-.58,2.43-1.35,0-2.36-7.33-.74-7.33-5.42,0-2.14,1.73-3.93,5.31-3.93,1.58,0,3.21.38,4.38,1.12l-.9,2.21c-1.17-.67-2.38-.99-3.49-.99-1.73,0-2.39.65-2.39,1.44,0,2.32,7.33.72,7.33,5.35,0,2.11-1.75,3.91-5.35,3.91-2,0-4.02-.59-5.13-1.46Z"/><path class="cls-3" d="m200.84,80.9c0-3.8,2.92-6.52,6.84-6.52,2.18,0,4,.79,5.19,2.23l-1.87,1.73c-.85-.97-1.91-1.48-3.17-1.48-2.36,0-4.03,1.66-4.03,4.03s1.67,4.03,4.03,4.03c1.26,0,2.32-.5,3.17-1.49l1.87,1.73c-1.19,1.46-3.01,2.25-5.2,2.25-3.91,0-6.82-2.72-6.82-6.52Z"/><path class="cls-3" d="m226.22,74.6v12.6h-2.92v-5.17h-5.73v5.17h-2.92v-12.6h2.92v4.97h5.73v-4.97h2.92Z"/><path class="cls-3" d="m228.4,80.9c0-3.75,2.92-6.52,6.9-6.52s6.9,2.75,6.9,6.52-2.93,6.52-6.9,6.52-6.9-2.77-6.9-6.52Zm10.84,0c0-2.39-1.69-4.03-3.94-4.03s-3.94,1.64-3.94,4.03,1.69,4.03,3.94,4.03,3.94-1.64,3.94-4.03Z"/><path class="cls-3" d="m243.56,80.9c0-3.75,2.92-6.52,6.9-6.52s6.9,2.75,6.9,6.52-2.93,6.52-6.9,6.52-6.9-2.77-6.9-6.52Zm10.84,0c0-2.39-1.69-4.03-3.94-4.03s-3.94,1.64-3.94,4.03,1.69,4.03,3.94,4.03,3.94-1.64,3.94-4.03Z"/><path class="cls-3" d="m259.53,74.6h2.92v10.23h6.32v2.38h-9.24v-12.6Z"/></g></g></g></g></svg>