<?xml version="1.0" encoding="UTF-8"?><svg id="Laag_2" xmlns="http://www.w3.org/2000/svg" xmlns:xlink="http://www.w3.org/1999/xlink" viewBox="0 0 122.99 207.99"><defs><style>.cls-1{fill:#b0358b;}.cls-2{fill:#d7007f;}.cls-3{fill:url(#dark_gradient);}.cls-4{fill:url(#light_gradient);}</style><linearGradient id="light_gradient" x1="19.85" y1="168.27" x2="72.11" y2="168.27" gradientUnits="userSpaceOnUse"><stop offset="0" stop-color="#68236b"/><stop offset=".51" stop-color="#d7007f"/></linearGradient><linearGradient id="dark_gradient" x1="50.88" y1="74.45" x2="103.14" y2="74.45" gradientUnits="userSpaceOnUse"><stop offset="0" stop-color="#b0358b"/><stop offset="1" stop-color="#2f2777"/></linearGradient></defs><g id="Laag_1-2"><g><path class="cls-4" d="m72.11,207.99h-23.65c-6.68,0-12.81-3.72-15.88-9.65l-8.62-16.6v-.02s-1.68-5.93-1.68-5.93c-1.62-5.75-2.43-11.66-2.43-17.53,0-10.26,2.44-20.46,7.24-29.72l45.01,79.45Z"/><path class="cls-2" d="m27.1,128.54c-4.8,9.26-7.24,19.46-7.24,29.72,0,5.88.8,11.78,2.43,17.53l1.68,5.93-12.22-23.56-8.51-16.42c-4.29-8.28-4.29-18.12,0-26.4l8.51-16.42,7.03-13.56h30.72l-22.39,43.18Z"/><path class="cls-3" d="m50.88,34.72h23.65c6.68,0,12.81,3.72,15.88,9.65l8.62,16.6v.02s1.68,5.93,1.68,5.93c1.62,5.75,2.43,11.66,2.43,17.53,0,10.26-2.44,20.46-7.24,29.72L50.88,34.72Z"/><path class="cls-1" d="m95.89,114.17c4.8-9.26,7.24-19.46,7.24-29.72,0-5.88-.8-11.78-2.43-17.53l-1.68-5.93,12.22,23.56,8.51,16.42c4.29,8.28,4.29,18.12,0,26.4l-28.85,52.86h-30.72l35.7-66.06Z"/><circle class="cls-1" cx="64.7" cy="14.3" r="14.3"/><circle class="cls-2" cx="33.94" cy="64.99" r="14.3"/></g></g></svg>