<svg width="86" height="194" viewBox="0 0 86 194" fill="none" xmlns="http://www.w3.org/2000/svg">
<path d="M20.7801 183C20.6707 182.665 20.5265 182.365 20.3476 182.1C20.1719 181.832 19.9614 181.603 19.7162 181.414C19.4742 181.225 19.1991 181.081 18.8909 180.982C18.5827 180.882 18.2446 180.833 17.8767 180.833C17.2735 180.833 16.7249 180.988 16.2311 181.3C15.7372 181.611 15.3445 182.07 15.0528 182.677C14.7612 183.284 14.6153 184.028 14.6153 184.909C14.6153 185.791 14.7628 186.535 15.0578 187.141C15.3528 187.748 15.7522 188.207 16.2559 188.519C16.7597 188.83 17.3265 188.986 17.9562 188.986C18.5396 188.986 19.0533 188.862 19.4974 188.613C19.9449 188.361 20.2929 188.007 20.5415 187.549C20.7934 187.088 20.9193 186.547 20.9193 185.923L21.2971 186.003H18.2346V184.909H22.1125V186.003C22.1125 186.842 21.9335 187.571 21.5756 188.19C21.2209 188.81 20.7304 189.291 20.104 189.632C19.4809 189.97 18.7649 190.139 17.9562 190.139C17.0547 190.139 16.2626 189.927 15.5798 189.503C14.9004 189.079 14.3701 188.476 13.9889 187.693C13.6111 186.911 13.4221 185.983 13.4221 184.909C13.4221 184.104 13.5299 183.38 13.7453 182.737C13.964 182.09 14.2723 181.54 14.67 181.086C15.0677 180.632 15.5384 180.284 16.0819 180.042C16.6255 179.8 17.2238 179.679 17.8767 179.679C18.4136 179.679 18.9141 179.76 19.3781 179.923C19.8454 180.082 20.2614 180.309 20.626 180.604C20.9939 180.895 21.3005 181.245 21.5457 181.653C21.791 182.057 21.96 182.506 22.0528 183H20.7801ZM27.2668 190.159C26.531 190.159 25.8963 189.997 25.3627 189.672C24.8324 189.344 24.423 188.886 24.1347 188.3C23.8496 187.71 23.7071 187.024 23.7071 186.242C23.7071 185.459 23.8496 184.77 24.1347 184.173C24.423 183.574 24.8241 183.106 25.3378 182.771C25.8548 182.433 26.4581 182.264 27.1475 182.264C27.5452 182.264 27.9379 182.331 28.3257 182.463C28.7135 182.596 29.0665 182.811 29.3847 183.109C29.7029 183.404 29.9564 183.796 30.1453 184.283C30.3343 184.77 30.4287 185.37 30.4287 186.083V186.58H24.5423V185.565H29.2355C29.2355 185.135 29.1494 184.75 28.977 184.412C28.808 184.074 28.566 183.807 28.2512 183.612C27.9396 183.416 27.5717 183.318 27.1475 183.318C26.6801 183.318 26.2758 183.434 25.9344 183.666C25.5963 183.895 25.3361 184.193 25.1539 184.561C24.9716 184.929 24.8804 185.324 24.8804 185.744V186.421C24.8804 186.997 24.9798 187.486 25.1787 187.887C25.3809 188.285 25.661 188.588 26.0189 188.797C26.3769 189.002 26.7928 189.105 27.2668 189.105C27.575 189.105 27.8534 189.062 28.102 188.976C28.3539 188.886 28.571 188.754 28.7533 188.578C28.9356 188.399 29.0764 188.177 29.1759 187.912L30.3094 188.23C30.1901 188.615 29.9896 188.953 29.7078 189.244C29.4261 189.533 29.0781 189.758 28.6638 189.921C28.2495 190.08 27.7838 190.159 27.2668 190.159ZM35.5345 182.364V183.358H31.5771V182.364H35.5345ZM32.7306 180.534H33.9039V187.813C33.9039 188.144 33.9519 188.393 34.048 188.558C34.1475 188.721 34.2734 188.83 34.4259 188.886C34.5816 188.94 34.7457 188.966 34.9181 188.966C35.0473 188.966 35.1534 188.959 35.2362 188.946C35.3191 188.93 35.3854 188.916 35.4351 188.906L35.6737 189.96C35.5942 189.99 35.4832 190.02 35.3406 190.05C35.1981 190.083 35.0175 190.1 34.7987 190.1C34.4673 190.1 34.1425 190.028 33.8243 189.886C33.5094 189.743 33.2476 189.526 33.0388 189.234C32.8333 188.943 32.7306 188.575 32.7306 188.131V180.534ZM42.5718 184.074L41.5178 184.372C41.4516 184.197 41.3538 184.026 41.2245 183.86C41.0986 183.691 40.9262 183.552 40.7075 183.443C40.4887 183.333 40.2087 183.279 39.8673 183.279C39.3999 183.279 39.0105 183.386 38.699 183.602C38.3907 183.814 38.2366 184.084 38.2366 184.412C38.2366 184.704 38.3427 184.934 38.5548 185.103C38.7669 185.272 39.0983 185.413 39.5491 185.526L40.6826 185.804C41.3654 185.97 41.8741 186.223 42.2089 186.565C42.5436 186.903 42.711 187.339 42.711 187.872C42.711 188.31 42.5851 188.701 42.3332 189.046C42.0846 189.39 41.7366 189.662 41.2892 189.861C40.8417 190.06 40.3213 190.159 39.7281 190.159C38.9492 190.159 38.3045 189.99 37.7941 189.652C37.2837 189.314 36.9606 188.82 36.8247 188.171L37.9383 187.892C38.0444 188.303 38.2449 188.611 38.5399 188.817C38.8382 189.022 39.2276 189.125 39.7082 189.125C40.2551 189.125 40.6892 189.009 41.0107 188.777C41.3356 188.542 41.498 188.26 41.498 187.932C41.498 187.667 41.4052 187.445 41.2195 187.266C41.0339 187.083 40.7489 186.948 40.3644 186.858L39.0917 186.56C38.3924 186.394 37.8786 186.137 37.5505 185.789C37.2257 185.438 37.0633 184.999 37.0633 184.472C37.0633 184.041 37.1843 183.66 37.4262 183.328C37.6715 182.997 38.0046 182.737 38.4255 182.548C38.8498 182.359 39.3303 182.264 39.8673 182.264C40.623 182.264 41.2162 182.43 41.6471 182.761C42.0813 183.093 42.3895 183.53 42.5718 184.074ZM53.8238 184.074L52.7698 184.372C52.7035 184.197 52.6057 184.026 52.4765 183.86C52.3505 183.691 52.1782 183.552 51.9594 183.443C51.7407 183.333 51.4606 183.279 51.1192 183.279C50.6519 183.279 50.2625 183.386 49.9509 183.602C49.6427 183.814 49.4885 184.084 49.4885 184.412C49.4885 184.704 49.5946 184.934 49.8067 185.103C50.0189 185.272 50.3503 185.413 50.801 185.526L51.9346 185.804C52.6173 185.97 53.1261 186.223 53.4608 186.565C53.7956 186.903 53.963 187.339 53.963 187.872C53.963 188.31 53.837 188.701 53.5851 189.046C53.3366 189.39 52.9885 189.662 52.5411 189.861C52.0937 190.06 51.5733 190.159 50.98 190.159C50.2011 190.159 49.5565 189.99 49.0461 189.652C48.5357 189.314 48.2125 188.82 48.0766 188.171L49.1903 187.892C49.2963 188.303 49.4968 188.611 49.7918 188.817C50.0901 189.022 50.4796 189.125 50.9601 189.125C51.507 189.125 51.9412 189.009 52.2627 188.777C52.5875 188.542 52.7499 188.26 52.7499 187.932C52.7499 187.667 52.6571 187.445 52.4715 187.266C52.2859 187.083 52.0009 186.948 51.6164 186.858L50.3437 186.56C49.6443 186.394 49.1306 186.137 48.8025 185.789C48.4777 185.438 48.3153 184.999 48.3153 184.472C48.3153 184.041 48.4362 183.66 48.6782 183.328C48.9234 182.997 49.2565 182.737 49.6775 182.548C50.1017 182.359 50.5823 182.264 51.1192 182.264C51.8749 182.264 52.4682 182.43 52.8991 182.761C53.3332 183.093 53.6415 183.53 53.8238 184.074ZM55.7291 190V182.364H56.9024V190H55.7291ZM56.3257 181.091C56.097 181.091 55.8998 181.013 55.7341 180.857C55.5717 180.702 55.4905 180.514 55.4905 180.296C55.4905 180.077 55.5717 179.89 55.7341 179.734C55.8998 179.578 56.097 179.5 56.3257 179.5C56.5544 179.5 56.75 179.578 56.9124 179.734C57.0781 179.89 57.161 180.077 57.161 180.296C57.161 180.514 57.0781 180.702 56.9124 180.857C56.75 181.013 56.5544 181.091 56.3257 181.091ZM62.1537 190.159C61.4378 190.159 60.8213 189.99 60.3042 189.652C59.7872 189.314 59.3895 188.848 59.1111 188.255C58.8327 187.662 58.6934 186.984 58.6934 186.222C58.6934 185.446 58.836 184.762 59.121 184.168C59.4094 183.572 59.8104 183.106 60.3241 182.771C60.8412 182.433 61.4444 182.264 62.1338 182.264C62.6707 182.264 63.1546 182.364 63.5855 182.563C64.0164 182.761 64.3693 183.04 64.6444 183.398C64.9195 183.756 65.0902 184.173 65.1565 184.651H63.9832C63.8937 184.303 63.6949 183.994 63.3866 183.726C63.0817 183.454 62.6707 183.318 62.1537 183.318C61.6963 183.318 61.2952 183.438 60.9506 183.676C60.6092 183.912 60.3424 184.245 60.1501 184.676C59.9612 185.103 59.8667 185.605 59.8667 186.182C59.8667 186.772 59.9595 187.286 60.1452 187.723C60.3341 188.161 60.5992 188.5 60.9406 188.742C61.2853 188.984 61.6897 189.105 62.1537 189.105C62.4586 189.105 62.7354 189.052 62.9839 188.946C63.2325 188.84 63.443 188.688 63.6153 188.489C63.7877 188.29 63.9103 188.051 63.9832 187.773H65.1565C65.0902 188.224 64.9262 188.63 64.6643 188.991C64.4058 189.349 64.0628 189.634 63.6352 189.846C63.211 190.055 62.7171 190.159 62.1537 190.159ZM67.9655 187.216L67.9456 185.764H68.1842L71.5251 182.364H72.9768L69.4172 185.963H69.3177L67.9655 187.216ZM66.8717 190V179.818H68.045V190H66.8717ZM71.724 190L68.741 186.222L69.5763 185.406L73.2155 190H71.724Z" fill="white"/>
<path d="M41.5001 169.472C41.5051 170.3 42.1806 170.963 43.009 170.953C43.8373 170.942 44.5048 170.262 44.4999 169.433L41.5001 169.472ZM43.0542 0.925733C42.465 0.347504 41.5153 0.35974 40.9331 0.953064L31.4449 10.6218C30.8627 11.2151 30.8684 12.1649 31.4576 12.7431C32.0469 13.3213 32.9965 13.3091 33.5788 12.7158L42.0127 4.12132L50.5479 12.4971C51.1372 13.0754 52.0868 13.0631 52.6691 12.4698C53.2513 11.8765 53.2456 10.9267 52.6564 10.3485L43.0542 0.925733ZM44.4999 169.433L43.4999 1.98071L40.5001 2.01937L41.5001 169.472L44.4999 169.433Z" fill="white"/>
</svg>
