<svg width="86" height="165" viewBox="0 0 86 165" fill="none" xmlns="http://www.w3.org/2000/svg">
<path d="M12.1214 134.912V133.818H19.7578V134.912H16.5561V144H15.3232V134.912H12.1214ZM23.4964 144.159C22.8071 144.159 22.2022 143.995 21.6818 143.667C21.1648 143.339 20.7604 142.88 20.4688 142.29C20.1804 141.7 20.0362 141.01 20.0362 140.222C20.0362 139.426 20.1804 138.732 20.4688 138.138C20.7604 137.545 21.1648 137.085 21.6818 136.756C22.2022 136.428 22.8071 136.264 23.4964 136.264C24.1858 136.264 24.7891 136.428 25.3061 136.756C25.8265 137.085 26.2308 137.545 26.5192 138.138C26.8108 138.732 26.9567 139.426 26.9567 140.222C26.9567 141.01 26.8108 141.7 26.5192 142.29C26.2308 142.88 25.8265 143.339 25.3061 143.667C24.7891 143.995 24.1858 144.159 23.4964 144.159ZM23.4964 143.105C24.0201 143.105 24.451 142.971 24.7891 142.702C25.1271 142.434 25.3774 142.081 25.5398 141.643C25.7022 141.206 25.7834 140.732 25.7834 140.222C25.7834 139.711 25.7022 139.236 25.5398 138.795C25.3774 138.354 25.1271 137.998 24.7891 137.726C24.451 137.454 24.0201 137.318 23.4964 137.318C22.9728 137.318 22.5419 137.454 22.2038 137.726C21.8658 137.998 21.6155 138.354 21.4531 138.795C21.2907 139.236 21.2095 139.711 21.2095 140.222C21.2095 140.732 21.2907 141.206 21.4531 141.643C21.6155 142.081 21.8658 142.434 22.2038 142.702C22.5419 142.971 22.9728 143.105 23.4964 143.105ZM31.85 144.159C31.1606 144.159 30.5557 143.995 30.0353 143.667C29.5183 143.339 29.1139 142.88 28.8223 142.29C28.5339 141.7 28.3897 141.01 28.3897 140.222C28.3897 139.426 28.5339 138.732 28.8223 138.138C29.1139 137.545 29.5183 137.085 30.0353 136.756C30.5557 136.428 31.1606 136.264 31.85 136.264C32.5394 136.264 33.1426 136.428 33.6596 136.756C34.18 137.085 34.5843 137.545 34.8727 138.138C35.1644 138.732 35.3102 139.426 35.3102 140.222C35.3102 141.01 35.1644 141.7 34.8727 142.29C34.5843 142.88 34.18 143.339 33.6596 143.667C33.1426 143.995 32.5394 144.159 31.85 144.159ZM31.85 143.105C32.3736 143.105 32.8045 142.971 33.1426 142.702C33.4806 142.434 33.7309 142.081 33.8933 141.643C34.0557 141.206 34.1369 140.732 34.1369 140.222C34.1369 139.711 34.0557 139.236 33.8933 138.795C33.7309 138.354 33.4806 137.998 33.1426 137.726C32.8045 137.454 32.3736 137.318 31.85 137.318C31.3263 137.318 30.8954 137.454 30.5574 137.726C30.2193 137.998 29.969 138.354 29.8066 138.795C29.6442 139.236 29.563 139.711 29.563 140.222C29.563 140.732 29.6442 141.206 29.8066 141.643C29.969 142.081 30.2193 142.434 30.5574 142.702C30.8954 142.971 31.3263 143.105 31.85 143.105ZM44.2404 144.159C43.5046 144.159 42.8699 143.997 42.3363 143.672C41.806 143.344 41.3967 142.886 41.1083 142.3C40.8233 141.71 40.6808 141.024 40.6808 140.241C40.6808 139.459 40.8233 138.77 41.1083 138.173C41.3967 137.573 41.7977 137.106 42.3114 136.771C42.8285 136.433 43.4317 136.264 44.1211 136.264C44.5188 136.264 44.9116 136.33 45.2994 136.463C45.6871 136.596 46.0401 136.811 46.3583 137.109C46.6765 137.404 46.93 137.795 47.119 138.283C47.3079 138.77 47.4023 139.37 47.4023 140.082V140.58H41.516V139.565H46.2092C46.2092 139.134 46.123 138.75 45.9506 138.412C45.7816 138.074 45.5397 137.807 45.2248 137.612C44.9132 137.416 44.5453 137.318 44.1211 137.318C43.6538 137.318 43.2494 137.434 42.908 137.666C42.57 137.895 42.3098 138.193 42.1275 138.561C41.9452 138.929 41.854 139.323 41.854 139.744V140.42C41.854 140.997 41.9535 141.486 42.1523 141.887C42.3545 142.285 42.6346 142.588 42.9925 142.797C43.3505 143.002 43.7665 143.105 44.2404 143.105C44.5487 143.105 44.8271 143.062 45.0756 142.976C45.3275 142.886 45.5446 142.754 45.7269 142.578C45.9092 142.399 46.0501 142.177 46.1495 141.912L47.283 142.23C47.1637 142.615 46.9632 142.953 46.6815 143.244C46.3997 143.533 46.0517 143.758 45.6374 143.92C45.2231 144.08 44.7575 144.159 44.2404 144.159ZM51.4343 144.179C50.9504 144.179 50.5112 144.088 50.1168 143.906C49.7224 143.72 49.4092 143.453 49.1772 143.105C48.9452 142.754 48.8292 142.33 48.8292 141.832C48.8292 141.395 48.9154 141.04 49.0877 140.768C49.2601 140.493 49.4904 140.278 49.7788 140.122C50.0671 139.966 50.3853 139.85 50.7333 139.774C51.0846 139.695 51.4376 139.632 51.7923 139.585C52.2563 139.526 52.6325 139.481 52.9208 139.451C53.2125 139.418 53.4246 139.363 53.5572 139.287C53.6931 139.211 53.761 139.078 53.761 138.889V138.849C53.761 138.359 53.6268 137.978 53.3583 137.706C53.0932 137.434 52.6905 137.298 52.1502 137.298C51.5901 137.298 51.1509 137.421 50.8327 137.666C50.5146 137.911 50.2908 138.173 50.1616 138.452L49.0479 138.054C49.2468 137.59 49.512 137.229 49.8434 136.97C50.1781 136.708 50.5427 136.526 50.9371 136.423C51.3349 136.317 51.726 136.264 52.1104 136.264C52.3557 136.264 52.6374 136.294 52.9556 136.354C53.2771 136.41 53.587 136.528 53.8853 136.707C54.1869 136.886 54.4371 137.156 54.636 137.517C54.8349 137.878 54.9343 138.362 54.9343 138.969V144H53.761V142.966H53.7013C53.6218 143.132 53.4892 143.309 53.3036 143.498C53.118 143.687 52.8711 143.848 52.5629 143.98C52.2546 144.113 51.8784 144.179 51.4343 144.179ZM51.6133 143.125C52.0773 143.125 52.4684 143.034 52.7866 142.852C53.1081 142.669 53.35 142.434 53.5124 142.146C53.6781 141.857 53.761 141.554 53.761 141.236V140.162C53.7113 140.222 53.6019 140.276 53.4329 140.326C53.2672 140.372 53.0749 140.414 52.8562 140.45C52.6407 140.483 52.4303 140.513 52.2248 140.54C52.0226 140.563 51.8585 140.583 51.7326 140.599C51.4277 140.639 51.1426 140.704 50.8775 140.793C50.6156 140.879 50.4035 141.01 50.2411 141.186C50.082 141.358 50.0025 141.594 50.0025 141.892C50.0025 142.3 50.1533 142.608 50.4549 142.817C50.7598 143.022 51.146 143.125 51.6133 143.125ZM62.4849 138.074L61.4309 138.372C61.3646 138.196 61.2669 138.026 61.1376 137.86C61.0117 137.691 60.8393 137.552 60.6206 137.442C60.4018 137.333 60.1217 137.278 59.7804 137.278C59.313 137.278 58.9236 137.386 58.612 137.602C58.3038 137.814 58.1497 138.084 58.1497 138.412C58.1497 138.704 58.2557 138.934 58.4679 139.103C58.68 139.272 59.0114 139.413 59.4622 139.526L60.5957 139.804C61.2785 139.97 61.7872 140.223 62.122 140.565C62.4567 140.903 62.6241 141.339 62.6241 141.872C62.6241 142.31 62.4982 142.701 62.2463 143.045C61.9977 143.39 61.6497 143.662 61.2022 143.861C60.7548 144.06 60.2344 144.159 59.6412 144.159C58.8623 144.159 58.2176 143.99 57.7072 143.652C57.1968 143.314 56.8736 142.82 56.7377 142.17L57.8514 141.892C57.9574 142.303 58.158 142.611 58.4529 142.817C58.7512 143.022 59.1407 143.125 59.6213 143.125C60.1681 143.125 60.6023 143.009 60.9238 142.777C61.2486 142.542 61.411 142.26 61.411 141.932C61.411 141.667 61.3182 141.445 61.1326 141.266C60.947 141.083 60.662 140.947 60.2775 140.858L59.0048 140.56C58.3055 140.394 57.7917 140.137 57.4636 139.789C57.1388 139.438 56.9764 138.999 56.9764 138.472C56.9764 138.041 57.0974 137.66 57.3393 137.328C57.5846 136.997 57.9177 136.737 58.3386 136.548C58.7628 136.359 59.2434 136.264 59.7804 136.264C60.536 136.264 61.1293 136.43 61.5602 136.761C61.9944 137.093 62.3026 137.53 62.4849 138.074ZM65.146 146.864C64.9471 146.864 64.7698 146.847 64.614 146.814C64.4582 146.784 64.3505 146.754 64.2908 146.724L64.5891 145.69C64.8742 145.763 65.1261 145.79 65.3448 145.77C65.5636 145.75 65.7575 145.652 65.9265 145.477C66.0988 145.304 66.2563 145.024 66.3988 144.636L66.6175 144.04L63.7937 136.364H65.0664L67.1744 142.449H67.2539L69.3619 136.364H70.6346L67.3931 145.114C67.2473 145.508 67.0666 145.835 66.8512 146.093C66.6358 146.355 66.3855 146.549 66.1005 146.675C65.8188 146.801 65.5006 146.864 65.146 146.864ZM73.4547 142.608L73.3752 143.145C73.3188 143.523 73.2327 143.927 73.1167 144.358C73.004 144.789 72.8863 145.195 72.7637 145.576C72.641 145.957 72.54 146.26 72.4604 146.486H71.5655C71.6086 146.274 71.665 145.994 71.7346 145.646C71.8042 145.298 71.8738 144.908 71.9434 144.477C72.0163 144.05 72.0759 143.612 72.1223 143.165L72.182 142.608H73.4547ZM11.2812 164.023C10.7145 164.023 10.2273 163.95 9.8196 163.804C9.41193 163.661 9.07221 163.473 8.80043 163.237C8.53196 163.005 8.31818 162.757 8.15909 162.491L9.09375 161.835C9.19981 161.974 9.33404 162.134 9.49645 162.312C9.65885 162.495 9.88092 162.652 10.1626 162.785C10.4477 162.921 10.8205 162.989 11.2812 162.989C11.8977 162.989 12.4065 162.839 12.8075 162.541C13.2086 162.243 13.4091 161.776 13.4091 161.139V159.588H13.3097C13.2235 159.727 13.1009 159.9 12.9418 160.105C12.786 160.307 12.5606 160.488 12.2656 160.647C11.974 160.803 11.5795 160.881 11.0824 160.881C10.4659 160.881 9.91241 160.735 9.42188 160.443C8.93466 160.152 8.54853 159.727 8.26349 159.17C7.98177 158.614 7.84091 157.937 7.84091 157.142C7.84091 156.36 7.97846 155.679 8.25355 155.099C8.52865 154.515 8.91146 154.065 9.40199 153.746C9.89252 153.425 10.4593 153.264 11.1023 153.264C11.5994 153.264 11.9938 153.347 12.2855 153.513C12.5805 153.675 12.8059 153.861 12.9616 154.07C13.1207 154.275 13.2434 154.444 13.3295 154.577H13.4489V153.364H14.5824V161.219C14.5824 161.875 14.4332 162.409 14.1349 162.82C13.84 163.234 13.4422 163.537 12.9418 163.729C12.4446 163.925 11.8911 164.023 11.2812 164.023ZM11.2415 159.827C11.7121 159.827 12.1098 159.719 12.4347 159.504C12.7595 159.288 13.0064 158.978 13.1754 158.574C13.3445 158.17 13.429 157.686 13.429 157.122C13.429 156.572 13.3461 156.086 13.1804 155.665C13.0147 155.245 12.7694 154.915 12.4446 154.676C12.1198 154.437 11.7188 154.318 11.2415 154.318C10.7443 154.318 10.33 154.444 9.99858 154.696C9.67045 154.948 9.42353 155.286 9.25781 155.71C9.09541 156.134 9.0142 156.605 9.0142 157.122C9.0142 157.652 9.09706 158.121 9.26278 158.529C9.43182 158.933 9.6804 159.252 10.0085 159.484C10.34 159.712 10.7509 159.827 11.2415 159.827ZM19.9318 161.159C19.196 161.159 18.5613 160.997 18.0277 160.672C17.4974 160.344 17.0881 159.886 16.7997 159.3C16.5147 158.71 16.3722 158.024 16.3722 157.241C16.3722 156.459 16.5147 155.77 16.7997 155.173C17.0881 154.573 17.4891 154.106 18.0028 153.771C18.5199 153.433 19.1231 153.264 19.8125 153.264C20.2102 153.264 20.603 153.33 20.9908 153.463C21.3786 153.596 21.7315 153.811 22.0497 154.109C22.3679 154.404 22.6214 154.795 22.8104 155.283C22.9993 155.77 23.0938 156.37 23.0938 157.082V157.58H17.2074V156.565H21.9006C21.9006 156.134 21.8144 155.75 21.642 155.412C21.473 155.074 21.2311 154.807 20.9162 154.612C20.6046 154.416 20.2367 154.318 19.8125 154.318C19.3452 154.318 18.9408 154.434 18.5994 154.666C18.2614 154.895 18.0012 155.193 17.8189 155.561C17.6366 155.929 17.5455 156.323 17.5455 156.744V157.42C17.5455 157.997 17.6449 158.486 17.8438 158.887C18.0459 159.285 18.326 159.588 18.6839 159.797C19.0419 160.002 19.4579 160.105 19.9318 160.105C20.2401 160.105 20.5185 160.062 20.767 159.976C21.0189 159.886 21.236 159.754 21.4183 159.578C21.6006 159.399 21.7415 159.177 21.8409 158.912L22.9744 159.23C22.8551 159.615 22.6546 159.953 22.3729 160.244C22.0911 160.533 21.7431 160.758 21.3288 160.92C20.9145 161.08 20.4489 161.159 19.9318 161.159ZM28.1996 153.364V154.358H24.2422V153.364H28.1996ZM25.3956 151.534H26.5689V158.812C26.5689 159.144 26.617 159.393 26.7131 159.558C26.8125 159.721 26.9384 159.83 27.0909 159.886C27.2467 159.939 27.4107 159.966 27.5831 159.966C27.7124 159.966 27.8184 159.959 27.9013 159.946C27.9841 159.929 28.0504 159.916 28.1001 159.906L28.3388 160.96C28.2592 160.99 28.1482 161.02 28.0057 161.05C27.8632 161.083 27.6825 161.099 27.4638 161.099C27.1323 161.099 26.8075 161.028 26.4893 160.886C26.1745 160.743 25.9126 160.526 25.7038 160.234C25.4983 159.943 25.3956 159.575 25.3956 159.131V151.534ZM35.2369 155.074L34.1829 155.372C34.1166 155.196 34.0188 155.026 33.8896 154.86C33.7636 154.691 33.5913 154.552 33.3725 154.442C33.1538 154.333 32.8737 154.278 32.5323 154.278C32.065 154.278 31.6755 154.386 31.364 154.602C31.0558 154.814 30.9016 155.084 30.9016 155.412C30.9016 155.704 31.0077 155.934 31.2198 156.103C31.4319 156.272 31.7634 156.413 32.2141 156.526L33.3477 156.804C34.0304 156.97 34.5392 157.223 34.8739 157.565C35.2087 157.903 35.3761 158.339 35.3761 158.872C35.3761 159.31 35.2501 159.701 34.9982 160.045C34.7496 160.39 34.4016 160.662 33.9542 160.861C33.5067 161.06 32.9864 161.159 32.3931 161.159C31.6142 161.159 30.9696 160.99 30.4592 160.652C29.9487 160.314 29.6256 159.82 29.4897 159.17L30.6033 158.892C30.7094 159.303 30.9099 159.611 31.2049 159.817C31.5032 160.022 31.8926 160.125 32.3732 160.125C32.9201 160.125 33.3543 160.009 33.6758 159.777C34.0006 159.542 34.163 159.26 34.163 158.932C34.163 158.667 34.0702 158.445 33.8846 158.266C33.699 158.083 33.4139 157.947 33.0295 157.858L31.7567 157.56C31.0574 157.394 30.5437 157.137 30.2156 156.789C29.8907 156.438 29.7283 155.999 29.7283 155.472C29.7283 155.041 29.8493 154.66 30.0913 154.328C30.3365 153.997 30.6696 153.737 31.0906 153.548C31.5148 153.359 31.9954 153.264 32.5323 153.264C33.288 153.264 33.8813 153.43 34.3121 153.761C34.7463 154.093 35.0546 154.53 35.2369 155.074ZM41.2388 161V150.818H42.4121V154.577H42.5115C42.5977 154.444 42.717 154.275 42.8695 154.07C43.0253 153.861 43.2473 153.675 43.5357 153.513C43.8274 153.347 44.2218 153.264 44.7189 153.264C45.3619 153.264 45.9287 153.425 46.4192 153.746C46.9097 154.068 47.2926 154.524 47.5676 155.114C47.8427 155.704 47.9803 156.4 47.9803 157.202C47.9803 158.01 47.8427 158.711 47.5676 159.305C47.2926 159.895 46.9114 160.352 46.4242 160.677C45.937 160.998 45.3752 161.159 44.7388 161.159C44.2483 161.159 43.8555 161.078 43.5605 160.915C43.2656 160.75 43.0385 160.562 42.8794 160.354C42.7203 160.142 42.5977 159.966 42.5115 159.827H42.3723V161H41.2388ZM42.3922 157.182C42.3922 157.759 42.4767 158.267 42.6458 158.708C42.8148 159.146 43.0617 159.489 43.3865 159.737C43.7114 159.982 44.1091 160.105 44.5797 160.105C45.0703 160.105 45.4796 159.976 45.8077 159.717C46.1391 159.455 46.3877 159.104 46.5534 158.663C46.7225 158.219 46.807 157.725 46.807 157.182C46.807 156.645 46.7241 156.161 46.5584 155.73C46.396 155.296 46.1491 154.953 45.8176 154.701C45.4895 154.446 45.0769 154.318 44.5797 154.318C44.1025 154.318 43.7014 154.439 43.3766 154.681C43.0518 154.92 42.8065 155.254 42.6408 155.685C42.4751 156.113 42.3922 156.612 42.3922 157.182ZM52.8773 161.159C52.1879 161.159 51.583 160.995 51.0627 160.667C50.5456 160.339 50.1413 159.88 49.8496 159.29C49.5613 158.7 49.4171 158.01 49.4171 157.222C49.4171 156.426 49.5613 155.732 49.8496 155.138C50.1413 154.545 50.5456 154.085 51.0627 153.756C51.583 153.428 52.1879 153.264 52.8773 153.264C53.5667 153.264 54.1699 153.428 54.687 153.756C55.2073 154.085 55.6117 154.545 55.9 155.138C56.1917 155.732 56.3375 156.426 56.3375 157.222C56.3375 158.01 56.1917 158.7 55.9 159.29C55.6117 159.88 55.2073 160.339 54.687 160.667C54.1699 160.995 53.5667 161.159 52.8773 161.159ZM52.8773 160.105C53.401 160.105 53.8319 159.971 54.1699 159.702C54.508 159.434 54.7582 159.081 54.9206 158.643C55.083 158.206 55.1642 157.732 55.1642 157.222C55.1642 156.711 55.083 156.236 54.9206 155.795C54.7582 155.354 54.508 154.998 54.1699 154.726C53.8319 154.454 53.401 154.318 52.8773 154.318C52.3536 154.318 51.9228 154.454 51.5847 154.726C51.2466 154.998 50.9964 155.354 50.834 155.795C50.6716 156.236 50.5904 156.711 50.5904 157.222C50.5904 157.732 50.6716 158.206 50.834 158.643C50.9964 159.081 51.2466 159.434 51.5847 159.702C51.9228 159.971 52.3536 160.105 52.8773 160.105ZM58.1286 161V153.364H59.2621V154.517H59.3416C59.4808 154.139 59.7327 153.833 60.0973 153.597C60.4619 153.362 60.8729 153.244 61.3303 153.244C61.4164 153.244 61.5241 153.246 61.6534 153.249C61.7827 153.253 61.8804 153.258 61.9467 153.264V154.457C61.907 154.447 61.8158 154.433 61.6733 154.413C61.5341 154.389 61.3866 154.378 61.2308 154.378C60.8596 154.378 60.5282 154.456 60.2365 154.612C59.9482 154.764 59.7195 154.976 59.5504 155.248C59.3847 155.516 59.3018 155.823 59.3018 156.168V161H58.1286ZM66.3068 161.159C65.571 161.159 64.9363 160.997 64.4027 160.672C63.8724 160.344 63.4631 159.886 63.1747 159.3C62.8897 158.71 62.7472 158.024 62.7472 157.241C62.7472 156.459 62.8897 155.77 63.1747 155.173C63.4631 154.573 63.8641 154.106 64.3778 153.771C64.8949 153.433 65.4981 153.264 66.1875 153.264C66.5852 153.264 66.978 153.33 67.3658 153.463C67.7536 153.596 68.1065 153.811 68.4247 154.109C68.7429 154.404 68.9964 154.795 69.1854 155.283C69.3743 155.77 69.4688 156.37 69.4688 157.082V157.58H63.5824V156.565H68.2756C68.2756 156.134 68.1894 155.75 68.017 155.412C67.848 155.074 67.6061 154.807 67.2912 154.612C66.9796 154.416 66.6117 154.318 66.1875 154.318C65.7202 154.318 65.3158 154.434 64.9744 154.666C64.6364 154.895 64.3762 155.193 64.1939 155.561C64.0116 155.929 63.9205 156.323 63.9205 156.744V157.42C63.9205 157.997 64.0199 158.486 64.2188 158.887C64.4209 159.285 64.701 159.588 65.0589 159.797C65.4169 160.002 65.8329 160.105 66.3068 160.105C66.6151 160.105 66.8935 160.062 67.142 159.976C67.3939 159.886 67.611 159.754 67.7933 159.578C67.9756 159.399 68.1165 159.177 68.2159 158.912L69.3494 159.23C69.2301 159.615 69.0296 159.953 68.7479 160.244C68.4661 160.533 68.1181 160.758 67.7038 160.92C67.2895 161.08 66.8239 161.159 66.3068 161.159ZM74.1371 161.159C73.5007 161.159 72.9389 160.998 72.4517 160.677C71.9645 160.352 71.5833 159.895 71.3082 159.305C71.0331 158.711 70.8956 158.01 70.8956 157.202C70.8956 156.4 71.0331 155.704 71.3082 155.114C71.5833 154.524 71.9661 154.068 72.4567 153.746C72.9472 153.425 73.514 153.264 74.157 153.264C74.6541 153.264 75.0469 153.347 75.3352 153.513C75.6269 153.675 75.849 153.861 76.0014 154.07C76.1572 154.275 76.2782 154.444 76.3643 154.577H76.4638V150.818H77.6371V161H76.5036V159.827H76.3643C76.2782 159.966 76.1555 160.142 75.9964 160.354C75.8374 160.562 75.6103 160.75 75.3153 160.915C75.0204 161.078 74.6276 161.159 74.1371 161.159ZM74.2962 160.105C74.7668 160.105 75.1645 159.982 75.4893 159.737C75.8142 159.489 76.0611 159.146 76.2301 158.708C76.3991 158.267 76.4837 157.759 76.4837 157.182C76.4837 156.612 76.4008 156.113 76.2351 155.685C76.0694 155.254 75.8241 154.92 75.4993 154.681C75.1745 154.439 74.7734 154.318 74.2962 154.318C73.799 154.318 73.3847 154.446 73.0533 154.701C72.7251 154.953 72.4782 155.296 72.3125 155.73C72.1501 156.161 72.0689 156.645 72.0689 157.182C72.0689 157.725 72.1518 158.219 72.3175 158.663C72.4865 159.104 72.7351 159.455 73.0632 159.717C73.3946 159.976 73.8056 160.105 74.2962 160.105Z" fill="white"/>
<path d="M38.5001 124.728C38.5068 125.556 39.1838 126.221 40.0122 126.213C40.8406 126.206 41.5067 125.528 41.4999 124.699L38.5001 124.728ZM40.052 0.92936C39.4614 0.349124 38.5117 0.358092 37.9307 0.94939L28.463 10.5851C27.882 11.1764 27.8898 12.1262 28.4803 12.7064C29.0708 13.2866 30.0205 13.2777 30.6015 12.6864L39.0173 4.12125L47.5713 12.5261C48.1619 13.1064 49.1116 13.0974 49.6926 12.5061C50.2735 11.9148 50.2658 10.9651 49.6753 10.3849L40.052 0.92936ZM41.4999 124.699L40.4999 1.98584L37.5001 2.01416L38.5001 124.728L41.4999 124.699Z" fill="white"/>
</svg>
