<svg width="86" height="235" viewBox="0 0 86 235" fill="none" xmlns="http://www.w3.org/2000/svg">
<path d="M3.70641 205.912V204.818H11.3428V205.912H8.14107V215H6.90811V205.912H3.70641ZM15.0814 215.159C14.392 215.159 13.7871 214.995 13.2668 214.667C12.7497 214.339 12.3454 213.88 12.0537 213.29C11.7654 212.7 11.6212 212.01 11.6212 211.222C11.6212 210.426 11.7654 209.732 12.0537 209.138C12.3454 208.545 12.7497 208.085 13.2668 207.756C13.7871 207.428 14.392 207.264 15.0814 207.264C15.7708 207.264 16.374 207.428 16.8911 207.756C17.4114 208.085 17.8158 208.545 18.1041 209.138C18.3958 209.732 18.5416 210.426 18.5416 211.222C18.5416 212.01 18.3958 212.7 18.1041 213.29C17.8158 213.88 17.4114 214.339 16.8911 214.667C16.374 214.995 15.7708 215.159 15.0814 215.159ZM15.0814 214.105C15.6051 214.105 16.036 213.971 16.374 213.702C16.7121 213.434 16.9623 213.081 17.1247 212.643C17.2871 212.206 17.3683 211.732 17.3683 211.222C17.3683 210.711 17.2871 210.236 17.1247 209.795C16.9623 209.354 16.7121 208.998 16.374 208.726C16.036 208.454 15.6051 208.318 15.0814 208.318C14.5577 208.318 14.1269 208.454 13.7888 208.726C13.4507 208.998 13.2005 209.354 13.0381 209.795C12.8757 210.236 12.7945 210.711 12.7945 211.222C12.7945 211.732 12.8757 212.206 13.0381 212.643C13.2005 213.081 13.4507 213.434 13.7888 213.702C14.1269 213.971 14.5577 214.105 15.0814 214.105ZM23.4349 215.159C22.7455 215.159 22.1407 214.995 21.6203 214.667C21.1032 214.339 20.6989 213.88 20.4072 213.29C20.1189 212.7 19.9747 212.01 19.9747 211.222C19.9747 210.426 20.1189 209.732 20.4072 209.138C20.6989 208.545 21.1032 208.085 21.6203 207.756C22.1407 207.428 22.7455 207.264 23.4349 207.264C24.1243 207.264 24.7275 207.428 25.2446 207.756C25.7649 208.085 26.1693 208.545 26.4577 209.138C26.7493 209.732 26.8952 210.426 26.8952 211.222C26.8952 212.01 26.7493 212.7 26.4577 213.29C26.1693 213.88 25.7649 214.339 25.2446 214.667C24.7275 214.995 24.1243 215.159 23.4349 215.159ZM23.4349 214.105C23.9586 214.105 24.3895 213.971 24.7275 213.702C25.0656 213.434 25.3158 213.081 25.4782 212.643C25.6407 212.206 25.7219 211.732 25.7219 211.222C25.7219 210.711 25.6407 210.236 25.4782 209.795C25.3158 209.354 25.0656 208.998 24.7275 208.726C24.3895 208.454 23.9586 208.318 23.4349 208.318C22.9113 208.318 22.4804 208.454 22.1423 208.726C21.8042 208.998 21.554 209.354 21.3916 209.795C21.2292 210.236 21.148 210.711 21.148 211.222C21.148 211.732 21.2292 212.206 21.3916 212.643C21.554 213.081 21.8042 213.434 22.1423 213.702C22.4804 213.971 22.9113 214.105 23.4349 214.105ZM32.2259 205.912V204.818H39.8623V205.912H36.6606V215H35.4276V205.912H32.2259ZM41.6061 215V207.364H42.7794V215H41.6061ZM42.2027 206.091C41.974 206.091 41.7768 206.013 41.6111 205.857C41.4487 205.701 41.3675 205.514 41.3675 205.295C41.3675 205.077 41.4487 204.889 41.6111 204.734C41.7768 204.578 41.974 204.5 42.2027 204.5C42.4314 204.5 42.6269 204.578 42.7893 204.734C42.955 204.889 43.0379 205.077 43.0379 205.295C43.0379 205.514 42.955 205.701 42.7893 205.857C42.6269 206.013 42.4314 206.091 42.2027 206.091ZM44.9284 215V207.364H46.0619V208.517H46.1414C46.2806 208.139 46.5325 207.833 46.8971 207.597C47.2617 207.362 47.6727 207.244 48.1301 207.244C48.2162 207.244 48.324 207.246 48.4532 207.249C48.5825 207.253 48.6803 207.258 48.7465 207.264V208.457C48.7068 208.447 48.6156 208.433 48.4731 208.413C48.3339 208.389 48.1864 208.378 48.0306 208.378C47.6594 208.378 47.328 208.456 47.0363 208.612C46.748 208.764 46.5193 208.976 46.3502 209.248C46.1845 209.516 46.1017 209.823 46.1017 210.168V215H44.9284ZM53.1066 215.159C52.3708 215.159 51.7361 214.997 51.2025 214.672C50.6722 214.344 50.2629 213.886 49.9745 213.3C49.6895 212.71 49.547 212.024 49.547 211.241C49.547 210.459 49.6895 209.77 49.9745 209.173C50.2629 208.573 50.6639 208.106 51.1776 207.771C51.6947 207.433 52.2979 207.264 52.9873 207.264C53.385 207.264 53.7778 207.33 54.1656 207.463C54.5534 207.596 54.9063 207.811 55.2245 208.109C55.5427 208.404 55.7963 208.795 55.9852 209.283C56.1741 209.77 56.2686 210.37 56.2686 211.082V211.58H50.3822V210.565H55.0754C55.0754 210.134 54.9892 209.75 54.8169 209.412C54.6478 209.074 54.4059 208.807 54.091 208.612C53.7794 208.416 53.4115 208.318 52.9873 208.318C52.52 208.318 52.1156 208.434 51.7742 208.666C51.4362 208.895 51.176 209.193 50.9937 209.561C50.8114 209.929 50.7203 210.323 50.7203 210.744V211.42C50.7203 211.997 50.8197 212.486 51.0186 212.887C51.2207 213.285 51.5008 213.588 51.8588 213.797C52.2167 214.002 52.6327 214.105 53.1066 214.105C53.4149 214.105 53.6933 214.062 53.9419 213.976C54.1937 213.886 54.4108 213.754 54.5931 213.578C54.7754 213.399 54.9163 213.177 55.0157 212.912L56.1492 213.23C56.0299 213.615 55.8294 213.953 55.5477 214.244C55.266 214.533 54.9179 214.758 54.5036 214.92C54.0893 215.08 53.6237 215.159 53.1066 215.159ZM60.9369 215.159C60.3005 215.159 59.7387 214.998 59.2515 214.677C58.7643 214.352 58.3831 213.895 58.108 213.305C57.8329 212.711 57.6954 212.01 57.6954 211.202C57.6954 210.4 57.8329 209.704 58.108 209.114C58.3831 208.524 58.766 208.068 59.2565 207.746C59.747 207.425 60.3138 207.264 60.9568 207.264C61.4539 207.264 61.8467 207.347 62.135 207.513C62.4267 207.675 62.6488 207.861 62.8012 208.07C62.957 208.275 63.078 208.444 63.1642 208.577H63.2636V204.818H64.4369V215H63.3034V213.827H63.1642C63.078 213.966 62.9553 214.142 62.7963 214.354C62.6372 214.562 62.4101 214.75 62.1151 214.915C61.8202 215.078 61.4274 215.159 60.9369 215.159ZM61.096 214.105C61.5666 214.105 61.9643 213.982 62.2892 213.737C62.614 213.489 62.8609 213.146 63.0299 212.708C63.199 212.267 63.2835 211.759 63.2835 211.182C63.2835 210.612 63.2006 210.113 63.0349 209.685C62.8692 209.254 62.6239 208.92 62.2991 208.681C61.9743 208.439 61.5732 208.318 61.096 208.318C60.5988 208.318 60.1845 208.446 59.8531 208.701C59.5249 208.953 59.278 209.296 59.1123 209.73C58.9499 210.161 58.8687 210.645 58.8687 211.182C58.8687 211.725 58.9516 212.219 59.1173 212.663C59.2863 213.104 59.5349 213.455 59.863 213.717C60.1945 213.976 60.6054 214.105 61.096 214.105ZM74.0072 207.364V208.358H70.0498V207.364H74.0072ZM71.2032 205.534H72.3765V212.812C72.3765 213.144 72.4246 213.393 72.5207 213.558C72.6201 213.721 72.7461 213.83 72.8985 213.886C73.0543 213.939 73.2184 213.966 73.3907 213.966C73.52 213.966 73.626 213.959 73.7089 213.946C73.7918 213.929 73.858 213.916 73.9078 213.906L74.1464 214.96C74.0669 214.99 73.9558 215.02 73.8133 215.05C73.6708 215.083 73.4901 215.099 73.2714 215.099C72.94 215.099 72.6151 215.028 72.297 214.886C71.9821 214.743 71.7203 214.526 71.5115 214.234C71.306 213.943 71.2032 213.575 71.2032 213.131V205.534ZM78.7923 215.159C78.103 215.159 77.4981 214.995 76.9777 214.667C76.4607 214.339 76.0563 213.88 75.7646 213.29C75.4763 212.7 75.3321 212.01 75.3321 211.222C75.3321 210.426 75.4763 209.732 75.7646 209.138C76.0563 208.545 76.4607 208.085 76.9777 207.756C77.4981 207.428 78.103 207.264 78.7923 207.264C79.4817 207.264 80.085 207.428 80.602 207.756C81.1224 208.085 81.5267 208.545 81.8151 209.138C82.1067 209.732 82.2526 210.426 82.2526 211.222C82.2526 212.01 82.1067 212.7 81.8151 213.29C81.5267 213.88 81.1224 214.339 80.602 214.667C80.085 214.995 79.4817 215.159 78.7923 215.159ZM78.7923 214.105C79.316 214.105 79.7469 213.971 80.085 213.702C80.423 213.434 80.6733 213.081 80.8357 212.643C80.9981 212.206 81.0793 211.732 81.0793 211.222C81.0793 210.711 80.9981 210.236 80.8357 209.795C80.6733 209.354 80.423 208.998 80.085 208.726C79.7469 208.454 79.316 208.318 78.7923 208.318C78.2687 208.318 77.8378 208.454 77.4997 208.726C77.1617 208.998 76.9114 209.354 76.749 209.795C76.5866 210.236 76.5054 210.711 76.5054 211.222C76.5054 211.732 76.5866 212.206 76.749 212.643C76.9114 213.081 77.1617 213.434 77.4997 213.702C77.8378 213.971 78.2687 214.105 78.7923 214.105ZM29.2977 224.364V225.358H25.1812V224.364H29.2977ZM26.4142 232V223.31C26.4142 222.872 26.5169 222.508 26.7224 222.216C26.9279 221.924 27.1947 221.705 27.5228 221.56C27.8509 221.414 28.1973 221.341 28.5619 221.341C28.8502 221.341 29.0856 221.364 29.2678 221.411C29.4501 221.457 29.586 221.5 29.6755 221.54L29.3374 222.554C29.2778 222.534 29.1949 222.509 29.0889 222.479C28.9861 222.45 28.8502 222.435 28.6812 222.435C28.2934 222.435 28.0133 222.532 27.841 222.728C27.672 222.924 27.5874 223.21 27.5874 223.588V232H26.4142ZM33.7298 232.159C33.0405 232.159 32.4356 231.995 31.9152 231.667C31.3982 231.339 30.9938 230.88 30.7021 230.29C30.4138 229.7 30.2696 229.01 30.2696 228.222C30.2696 227.426 30.4138 226.732 30.7021 226.138C30.9938 225.545 31.3982 225.085 31.9152 224.756C32.4356 224.428 33.0405 224.264 33.7298 224.264C34.4192 224.264 35.0225 224.428 35.5395 224.756C36.0599 225.085 36.4642 225.545 36.7526 226.138C37.0442 226.732 37.1901 227.426 37.1901 228.222C37.1901 229.01 37.0442 229.7 36.7526 230.29C36.4642 230.88 36.0599 231.339 35.5395 231.667C35.0225 231.995 34.4192 232.159 33.7298 232.159ZM33.7298 231.105C34.2535 231.105 34.6844 230.971 35.0225 230.702C35.3605 230.434 35.6108 230.081 35.7732 229.643C35.9356 229.206 36.0168 228.732 36.0168 228.222C36.0168 227.711 35.9356 227.236 35.7732 226.795C35.6108 226.354 35.3605 225.998 35.0225 225.726C34.6844 225.454 34.2535 225.318 33.7298 225.318C33.2062 225.318 32.7753 225.454 32.4372 225.726C32.0992 225.998 31.8489 226.354 31.6865 226.795C31.5241 227.236 31.4429 227.711 31.4429 228.222C31.4429 228.732 31.5241 229.206 31.6865 229.643C31.8489 230.081 32.0992 230.434 32.4372 230.702C32.7753 230.971 33.2062 231.105 33.7298 231.105ZM42.0834 232.159C41.3675 232.159 40.751 231.99 40.2339 231.652C39.7169 231.314 39.3192 230.848 39.0407 230.255C38.7623 229.662 38.6231 228.984 38.6231 228.222C38.6231 227.446 38.7657 226.762 39.0507 226.168C39.339 225.572 39.7401 225.106 40.2538 224.771C40.7709 224.433 41.3741 224.264 42.0635 224.264C42.6004 224.264 43.0843 224.364 43.5152 224.562C43.9461 224.761 44.299 225.04 44.5741 225.398C44.8492 225.756 45.0199 226.173 45.0862 226.651H43.9129C43.8234 226.303 43.6246 225.994 43.3163 225.726C43.0114 225.454 42.6004 225.318 42.0834 225.318C41.626 225.318 41.2249 225.437 40.8802 225.676C40.5389 225.911 40.272 226.245 40.0798 226.675C39.8909 227.103 39.7964 227.605 39.7964 228.182C39.7964 228.772 39.8892 229.286 40.0748 229.723C40.2638 230.161 40.5289 230.5 40.8703 230.742C41.215 230.984 41.6193 231.105 42.0834 231.105C42.3883 231.105 42.665 231.052 42.9136 230.946C43.1622 230.84 43.3727 230.688 43.545 230.489C43.7174 230.29 43.84 230.051 43.9129 229.773H45.0862C45.0199 230.223 44.8559 230.629 44.594 230.991C44.3355 231.349 43.9925 231.634 43.5649 231.846C43.1407 232.055 42.6468 232.159 42.0834 232.159ZM51.6139 228.878V224.364H52.7872V232H51.6139V230.707H51.5344C51.3554 231.095 51.077 231.425 50.6991 231.697C50.3213 231.965 49.844 232.099 49.2673 232.099C48.79 232.099 48.3658 231.995 47.9946 231.786C47.6234 231.574 47.3317 231.256 47.1196 230.832C46.9075 230.404 46.8014 229.866 46.8014 229.216V224.364H47.9747V229.136C47.9747 229.693 48.1305 230.137 48.442 230.469C48.7569 230.8 49.1579 230.966 49.6452 230.966C49.9368 230.966 50.2335 230.891 50.5351 230.742C50.84 230.593 51.0952 230.364 51.3007 230.056C51.5095 229.748 51.6139 229.355 51.6139 228.878ZM60.3453 226.074L59.2913 226.372C59.225 226.196 59.1272 226.026 58.998 225.86C58.872 225.691 58.6997 225.552 58.4809 225.442C58.2622 225.333 57.9821 225.278 57.6407 225.278C57.1734 225.278 56.7839 225.386 56.4724 225.602C56.1642 225.814 56.01 226.084 56.01 226.412C56.01 226.704 56.1161 226.934 56.3282 227.103C56.5403 227.272 56.8718 227.413 57.3225 227.526L58.4561 227.804C59.1388 227.97 59.6476 228.223 59.9823 228.565C60.3171 228.903 60.4845 229.339 60.4845 229.872C60.4845 230.31 60.3585 230.701 60.1066 231.045C59.858 231.39 59.51 231.662 59.0626 231.861C58.6151 232.06 58.0948 232.159 57.5015 232.159C56.7226 232.159 56.078 231.99 55.5676 231.652C55.0571 231.314 54.734 230.82 54.5981 230.17L55.7117 229.892C55.8178 230.303 56.0183 230.611 56.3133 230.817C56.6116 231.022 57.001 231.125 57.4816 231.125C58.0285 231.125 58.4627 231.009 58.7842 230.777C59.109 230.542 59.2714 230.26 59.2714 229.932C59.2714 229.667 59.1786 229.445 58.993 229.266C58.8074 229.083 58.5223 228.947 58.1379 228.858L56.8651 228.56C56.1658 228.394 55.6521 228.137 55.324 227.789C54.9991 227.438 54.8367 226.999 54.8367 226.472C54.8367 226.041 54.9577 225.66 55.1997 225.328C55.4449 224.997 55.778 224.737 56.199 224.548C56.6232 224.359 57.1038 224.264 57.6407 224.264C58.3964 224.264 58.9897 224.43 59.4205 224.761C59.8547 225.093 60.163 225.53 60.3453 226.074Z" fill="white"/>
<path d="M41.5 194C41.5 194.828 42.1716 195.5 43 195.5C43.8284 195.5 44.5 194.828 44.5 194H41.5ZM44.0607 0.93934C43.4749 0.353553 42.5251 0.353553 41.9393 0.93934L32.3934 10.4853C31.8076 11.0711 31.8076 12.0208 32.3934 12.6066C32.9792 13.1924 33.9289 13.1924 34.5147 12.6066L43 4.12132L51.4853 12.6066C52.0711 13.1924 53.0208 13.1924 53.6066 12.6066C54.1924 12.0208 54.1924 11.0711 53.6066 10.4853L44.0607 0.93934ZM44.5 194L44.5 2H41.5L41.5 194H44.5Z" fill="white"/>
</svg>
