<svg width="86" height="116" viewBox="0 0 86 116" fill="none" xmlns="http://www.w3.org/2000/svg">
<path d="M13.1183 85.8182V96H11.8853V85.8182H13.1183ZM15.4313 96V88.3636H16.5648V89.5568H16.6642C16.8233 89.1491 17.0802 88.8326 17.4348 88.6072C17.7895 88.3786 18.2154 88.2642 18.7125 88.2642C19.2163 88.2642 19.6356 88.3786 19.9703 88.6072C20.3084 88.8326 20.5719 89.1491 20.7608 89.5568H20.8404C21.0359 89.1624 21.3292 88.8492 21.7203 88.6172C22.1114 88.3819 22.5804 88.2642 23.1273 88.2642C23.8101 88.2642 24.3685 88.478 24.8027 88.9055C25.2369 89.3298 25.454 89.991 25.454 90.8892V96H24.2807V90.8892C24.2807 90.3258 24.1266 89.9231 23.8184 89.6811C23.5101 89.4392 23.1472 89.3182 22.7296 89.3182C22.1926 89.3182 21.7767 89.4806 21.4817 89.8054C21.1867 90.1269 21.0392 90.5346 21.0392 91.0284V96H19.8461V90.7699C19.8461 90.3357 19.7052 89.986 19.4235 89.7209C19.1417 89.4524 18.7788 89.3182 18.3347 89.3182C18.0298 89.3182 17.7447 89.3994 17.4796 89.5618C17.2177 89.7242 17.0056 89.9496 16.8432 90.2379C16.6841 90.523 16.6046 90.8527 16.6046 91.2273V96H15.4313ZM27.5993 98.8636V88.3636H28.7328V89.5767H28.872C28.9582 89.4441 29.0775 89.2751 29.2299 89.0696C29.3857 88.8608 29.6078 88.6752 29.8961 88.5128C30.1878 88.3471 30.5822 88.2642 31.0794 88.2642C31.7224 88.2642 32.2891 88.425 32.7797 88.7464C33.2702 89.0679 33.653 89.5237 33.9281 90.1136C34.2032 90.7036 34.3407 91.3996 34.3407 92.2017C34.3407 93.0104 34.2032 93.7114 33.9281 94.3047C33.653 94.8946 33.2718 95.352 32.7846 95.6768C32.2974 95.9983 31.7356 96.1591 31.0993 96.1591C30.6087 96.1591 30.216 96.0779 29.921 95.9155C29.626 95.7498 29.399 95.5625 29.2399 95.3537C29.0808 95.1416 28.9582 94.9659 28.872 94.8267H28.7725V98.8636H27.5993ZM28.7527 92.1818C28.7527 92.7585 28.8372 93.2673 29.0062 93.7081C29.1752 94.1456 29.4222 94.4886 29.747 94.7372C30.0718 94.9825 30.4695 95.1051 30.9402 95.1051C31.4307 95.1051 31.84 94.9759 32.1681 94.7173C32.4996 94.4555 32.7482 94.1042 32.9139 93.6634C33.0829 93.2192 33.1674 92.7254 33.1674 92.1818C33.1674 91.6449 33.0846 91.161 32.9189 90.7301C32.7565 90.2959 32.5095 89.9529 32.1781 89.701C31.85 89.4458 31.4373 89.3182 30.9402 89.3182C30.4629 89.3182 30.0618 89.4392 29.737 89.6811C29.4122 89.9197 29.167 90.2545 29.0012 90.6854C28.8355 91.1129 28.7527 91.6117 28.7527 92.1818ZM39.2328 96.1591C38.5434 96.1591 37.9385 95.995 37.4181 95.6669C36.9011 95.3388 36.4967 94.8797 36.2051 94.2898C35.9167 93.6998 35.7725 93.0104 35.7725 92.2216C35.7725 91.4261 35.9167 90.7318 36.2051 90.1385C36.4967 89.5452 36.9011 89.0845 37.4181 88.7564C37.9385 88.4283 38.5434 88.2642 39.2328 88.2642C39.9222 88.2642 40.5254 88.4283 41.0424 88.7564C41.5628 89.0845 41.9672 89.5452 42.2555 90.1385C42.5472 90.7318 42.693 91.4261 42.693 92.2216C42.693 93.0104 42.5472 93.6998 42.2555 94.2898C41.9672 94.8797 41.5628 95.3388 41.0424 95.6669C40.5254 95.995 39.9222 96.1591 39.2328 96.1591ZM39.2328 95.1051C39.7565 95.1051 40.1873 94.9709 40.5254 94.7024C40.8635 94.4339 41.1137 94.081 41.2761 93.6435C41.4385 93.206 41.5197 92.732 41.5197 92.2216C41.5197 91.7112 41.4385 91.2356 41.2761 90.7947C41.1137 90.3539 40.8635 89.9976 40.5254 89.7259C40.1873 89.4541 39.7565 89.3182 39.2328 89.3182C38.7091 89.3182 38.2782 89.4541 37.9402 89.7259C37.6021 89.9976 37.3519 90.3539 37.1895 90.7947C37.027 91.2356 36.9458 91.7112 36.9458 92.2216C36.9458 92.732 37.027 93.206 37.1895 93.6435C37.3519 94.081 37.6021 94.4339 37.9402 94.7024C38.2782 94.9709 38.7091 95.1051 39.2328 95.1051ZM44.484 96V88.3636H45.6175V89.517H45.6971C45.8363 89.1392 46.0882 88.8326 46.4528 88.5973C46.8174 88.362 47.2283 88.2443 47.6857 88.2443C47.7719 88.2443 47.8796 88.246 48.0089 88.2493C48.1381 88.2526 48.2359 88.2576 48.3022 88.2642V89.4574C48.2624 89.4474 48.1713 89.4325 48.0288 89.4126C47.8896 89.3894 47.7421 89.3778 47.5863 89.3778C47.2151 89.3778 46.8836 89.4557 46.592 89.6115C46.3036 89.764 46.0749 89.9761 45.9059 90.2479C45.7402 90.5163 45.6573 90.8229 45.6573 91.1676V96H44.484ZM53.4925 88.3636V89.358H49.5352V88.3636H53.4925ZM50.6886 86.5341H51.8619V93.8125C51.8619 94.1439 51.9099 94.3925 52.006 94.5582C52.1055 94.7206 52.2314 94.83 52.3839 94.8864C52.5397 94.9394 52.7037 94.9659 52.8761 94.9659C53.0053 94.9659 53.1114 94.9593 53.1942 94.946C53.2771 94.9295 53.3434 94.9162 53.3931 94.9062L53.6317 95.9602C53.5522 95.9901 53.4412 96.0199 53.2987 96.0497C53.1561 96.0829 52.9755 96.0994 52.7567 96.0994C52.4253 96.0994 52.1005 96.0282 51.7823 95.8857C51.4674 95.7431 51.2056 95.526 50.9968 95.2344C50.7913 94.9427 50.6886 94.5748 50.6886 94.1307V86.5341ZM57.5046 96.179C57.0207 96.179 56.5816 96.0878 56.1871 95.9055C55.7927 95.7199 55.4795 95.4531 55.2475 95.1051C55.0155 94.7538 54.8995 94.3295 54.8995 93.8324C54.8995 93.3949 54.9857 93.0402 55.158 92.7685C55.3304 92.4934 55.5607 92.2779 55.8491 92.1222C56.1374 91.9664 56.4556 91.8504 56.8036 91.7741C57.1549 91.6946 57.5079 91.6316 57.8626 91.5852C58.3266 91.5256 58.7028 91.4808 58.9911 91.451C59.2828 91.4179 59.4949 91.3632 59.6275 91.2869C59.7634 91.2107 59.8313 91.0781 59.8313 90.8892V90.8494C59.8313 90.3589 59.6971 89.9777 59.4286 89.706C59.1635 89.4342 58.7608 89.2983 58.2205 89.2983C57.6604 89.2983 57.2212 89.4209 56.9031 89.6662C56.5849 89.9115 56.3612 90.1733 56.2319 90.4517L55.1183 90.054C55.3171 89.59 55.5823 89.2287 55.9137 88.9702C56.2485 88.7083 56.613 88.526 57.0075 88.4233C57.4052 88.3172 57.7963 88.2642 58.1808 88.2642C58.426 88.2642 58.7077 88.294 59.0259 88.3537C59.3474 88.41 59.6573 88.5277 59.9556 88.7067C60.2572 88.8857 60.5075 89.1558 60.7063 89.517C60.9052 89.8783 61.0046 90.3622 61.0046 90.9688V96H59.8313V94.9659H59.7717C59.6921 95.1316 59.5595 95.3089 59.3739 95.4979C59.1883 95.6868 58.9414 95.8475 58.6332 95.9801C58.3249 96.1127 57.9487 96.179 57.5046 96.179ZM57.6836 95.125C58.1476 95.125 58.5387 95.0339 58.8569 94.8516C59.1784 94.6693 59.4203 94.4339 59.5827 94.1456C59.7485 93.8572 59.8313 93.554 59.8313 93.2358V92.1619C59.7816 92.2216 59.6722 92.2763 59.5032 92.326C59.3375 92.3724 59.1452 92.4138 58.9265 92.4503C58.7111 92.4834 58.5006 92.5133 58.2951 92.5398C58.0929 92.563 57.9289 92.5829 57.8029 92.5994C57.498 92.6392 57.2129 92.7038 56.9478 92.7933C56.686 92.8795 56.4738 93.0104 56.3114 93.1861C56.1523 93.3584 56.0728 93.5937 56.0728 93.892C56.0728 94.2997 56.2236 94.608 56.5252 94.8168C56.8301 95.0223 57.2163 95.125 57.6836 95.125ZM64.3194 91.4062V96H63.1461V88.3636H64.2797V89.5568H64.3791C64.5581 89.169 64.8298 88.8575 65.1944 88.6222C65.559 88.3835 66.0297 88.2642 66.6064 88.2642C67.1234 88.2642 67.5758 88.3703 67.9636 88.5824C68.3514 88.7912 68.653 89.1094 68.8684 89.5369C69.0839 89.9612 69.1916 90.4981 69.1916 91.1477V96H68.0183V91.2273C68.0183 90.6274 67.8625 90.16 67.551 89.8253C67.2394 89.4872 66.8118 89.3182 66.2683 89.3182C65.8938 89.3182 65.559 89.3994 65.264 89.5618C64.9724 89.7242 64.742 89.9612 64.573 90.2727C64.4039 90.5843 64.3194 90.9621 64.3194 91.4062ZM74.6566 88.3636V89.358H70.6992V88.3636H74.6566ZM71.8526 86.5341H73.0259V93.8125C73.0259 94.1439 73.074 94.3925 73.1701 94.5582C73.2695 94.7206 73.3955 94.83 73.5479 94.8864C73.7037 94.9394 73.8678 94.9659 74.0401 94.9659C74.1694 94.9659 74.2755 94.9593 74.3583 94.946C74.4412 94.9295 74.5075 94.9162 74.5572 94.9062L74.7958 95.9602C74.7163 95.9901 74.6052 96.0199 74.4627 96.0497C74.3202 96.0829 74.1396 96.0994 73.9208 96.0994C73.5894 96.0994 73.2646 96.0282 72.9464 95.8857C72.6315 95.7431 72.3697 95.526 72.1609 95.2344C71.9554 94.9427 71.8526 94.5748 71.8526 94.1307V86.5341ZM4.57395 113.179C4.09005 113.179 3.65089 113.088 3.25648 112.906C2.86207 112.72 2.54886 112.453 2.31685 112.105C2.08484 111.754 1.96884 111.33 1.96884 110.832C1.96884 110.395 2.05501 110.04 2.22736 109.768C2.39971 109.493 2.63006 109.278 2.91841 109.122C3.20676 108.966 3.52495 108.85 3.87296 108.774C4.22428 108.695 4.57727 108.632 4.93191 108.585C5.39592 108.526 5.77211 108.481 6.06046 108.451C6.35213 108.418 6.56425 108.363 6.69682 108.287C6.83271 108.211 6.90066 108.078 6.90066 107.889V107.849C6.90066 107.359 6.76642 106.978 6.49796 106.706C6.23281 106.434 5.83011 106.298 5.28986 106.298C4.72973 106.298 4.29057 106.421 3.97239 106.666C3.65421 106.911 3.43049 107.173 3.30123 107.452L2.18759 107.054C2.38645 106.59 2.6516 106.229 2.98304 105.97C3.3178 105.708 3.68238 105.526 4.07679 105.423C4.47452 105.317 4.86562 105.264 5.25009 105.264C5.49535 105.264 5.77708 105.294 6.09526 105.354C6.41676 105.41 6.72665 105.528 7.02495 105.707C7.32656 105.886 7.57679 106.156 7.77566 106.517C7.97452 106.878 8.07395 107.362 8.07395 107.969V113H6.90066V111.966H6.841C6.76145 112.132 6.62888 112.309 6.44327 112.498C6.25766 112.687 6.01074 112.848 5.7025 112.98C5.39427 113.113 5.01808 113.179 4.57395 113.179ZM4.75293 112.125C5.21694 112.125 5.60804 112.034 5.92623 111.852C6.24772 111.669 6.48967 111.434 6.65208 111.146C6.8178 110.857 6.90066 110.554 6.90066 110.236V109.162C6.85094 109.222 6.74157 109.276 6.57253 109.326C6.40681 109.372 6.21458 109.414 5.99583 109.45C5.78039 109.483 5.56993 109.513 5.36444 109.54C5.16226 109.563 4.9982 109.583 4.87225 109.599C4.56732 109.639 4.28229 109.704 4.01713 109.793C3.7553 109.879 3.54318 110.01 3.38077 110.186C3.22168 110.358 3.14213 110.594 3.14213 110.892C3.14213 111.3 3.29294 111.608 3.59455 111.817C3.89947 112.022 4.2856 112.125 4.75293 112.125ZM10.2155 115.864V105.364H11.349V106.577H11.4882C11.5744 106.444 11.6937 106.275 11.8461 106.07C12.0019 105.861 12.224 105.675 12.5123 105.513C12.804 105.347 13.1984 105.264 13.6956 105.264C14.3386 105.264 14.9053 105.425 15.3959 105.746C15.8864 106.068 16.2692 106.524 16.5443 107.114C16.8194 107.704 16.9569 108.4 16.9569 109.202C16.9569 110.01 16.8194 110.711 16.5443 111.305C16.2692 111.895 15.8881 112.352 15.4008 112.677C14.9136 112.998 14.3518 113.159 13.7155 113.159C13.2249 113.159 12.8322 113.078 12.5372 112.915C12.2422 112.75 12.0152 112.562 11.8561 112.354C11.697 112.142 11.5744 111.966 11.4882 111.827H11.3888V115.864H10.2155ZM11.3689 109.182C11.3689 109.759 11.4534 110.267 11.6224 110.708C11.7915 111.146 12.0384 111.489 12.3632 111.737C12.688 111.982 13.0857 112.105 13.5564 112.105C14.0469 112.105 14.4562 111.976 14.7844 111.717C15.1158 111.455 15.3644 111.104 15.5301 110.663C15.6991 110.219 15.7836 109.725 15.7836 109.182C15.7836 108.645 15.7008 108.161 15.5351 107.73C15.3727 107.296 15.1257 106.953 14.7943 106.701C14.4662 106.446 14.0535 106.318 13.5564 106.318C13.0791 106.318 12.6781 106.439 12.3532 106.681C12.0284 106.92 11.7832 107.254 11.6175 107.685C11.4517 108.113 11.3689 108.612 11.3689 109.182ZM18.7467 115.864V105.364H19.8802V106.577H20.0194C20.1056 106.444 20.2249 106.275 20.3774 106.07C20.5332 105.861 20.7552 105.675 21.0436 105.513C21.3353 105.347 21.7297 105.264 22.2268 105.264C22.8698 105.264 23.4366 105.425 23.9271 105.746C24.4176 106.068 24.8005 106.524 25.0756 107.114C25.3506 107.704 25.4882 108.4 25.4882 109.202C25.4882 110.01 25.3506 110.711 25.0756 111.305C24.8005 111.895 24.4193 112.352 23.9321 112.677C23.4449 112.998 22.8831 113.159 22.2467 113.159C21.7562 113.159 21.3634 113.078 21.0684 112.915C20.7735 112.75 20.5464 112.562 20.3873 112.354C20.2282 112.142 20.1056 111.966 20.0194 111.827H19.92V115.864H18.7467ZM19.9001 109.182C19.9001 109.759 19.9846 110.267 20.1537 110.708C20.3227 111.146 20.5696 111.489 20.8944 111.737C21.2193 111.982 21.617 112.105 22.0876 112.105C22.5782 112.105 22.9875 111.976 23.3156 111.717C23.647 111.455 23.8956 111.104 24.0613 110.663C24.2304 110.219 24.3149 109.725 24.3149 109.182C24.3149 108.645 24.232 108.161 24.0663 107.73C23.9039 107.296 23.657 106.953 23.3256 106.701C22.9974 106.446 22.5848 106.318 22.0876 106.318C21.6104 106.318 21.2093 106.439 20.8845 106.681C20.5597 106.92 20.3144 107.254 20.1487 107.685C19.983 108.113 19.9001 108.612 19.9001 109.182ZM30.3802 113.159C29.6908 113.159 29.086 112.995 28.5656 112.667C28.0486 112.339 27.6442 111.88 27.3525 111.29C27.0642 110.7 26.92 110.01 26.92 109.222C26.92 108.426 27.0642 107.732 27.3525 107.138C27.6442 106.545 28.0486 106.085 28.5656 105.756C29.086 105.428 29.6908 105.264 30.3802 105.264C31.0696 105.264 31.6729 105.428 32.1899 105.756C32.7103 106.085 33.1146 106.545 33.403 107.138C33.6946 107.732 33.8405 108.426 33.8405 109.222C33.8405 110.01 33.6946 110.7 33.403 111.29C33.1146 111.88 32.7103 112.339 32.1899 112.667C31.6729 112.995 31.0696 113.159 30.3802 113.159ZM30.3802 112.105C30.9039 112.105 31.3348 111.971 31.6729 111.702C32.0109 111.434 32.2612 111.081 32.4236 110.643C32.586 110.206 32.6672 109.732 32.6672 109.222C32.6672 108.711 32.586 108.236 32.4236 107.795C32.2612 107.354 32.0109 106.998 31.6729 106.726C31.3348 106.454 30.9039 106.318 30.3802 106.318C29.8566 106.318 29.4257 106.454 29.0876 106.726C28.7496 106.998 28.4993 107.354 28.3369 107.795C28.1745 108.236 28.0933 108.711 28.0933 109.222C28.0933 109.732 28.1745 110.206 28.3369 110.643C28.4993 111.081 28.7496 111.434 29.0876 111.702C29.4257 111.971 29.8566 112.105 30.3802 112.105ZM35.6315 113V105.364H36.8048V113H35.6315ZM36.2281 104.091C35.9994 104.091 35.8022 104.013 35.6365 103.857C35.474 103.701 35.3928 103.514 35.3928 103.295C35.3928 103.077 35.474 102.889 35.6365 102.734C35.8022 102.578 35.9994 102.5 36.2281 102.5C36.4568 102.5 36.6523 102.578 36.8147 102.734C36.9804 102.889 37.0633 103.077 37.0633 103.295C37.0633 103.514 36.9804 103.701 36.8147 103.857C36.6523 104.013 36.4568 104.091 36.2281 104.091ZM40.127 108.406V113H38.9537V105.364H40.0873V106.557H40.1867C40.3657 106.169 40.6375 105.857 41.002 105.622C41.3666 105.384 41.8373 105.264 42.414 105.264C42.931 105.264 43.3834 105.37 43.7712 105.582C44.159 105.791 44.4606 106.109 44.676 106.537C44.8915 106.961 44.9992 107.498 44.9992 108.148V113H43.8259V108.227C43.8259 107.627 43.6701 107.16 43.3586 106.825C43.047 106.487 42.6195 106.318 42.0759 106.318C41.7014 106.318 41.3666 106.399 41.0716 106.562C40.78 106.724 40.5496 106.961 40.3806 107.273C40.2116 107.584 40.127 107.962 40.127 108.406ZM50.4642 105.364V106.358H46.5068V105.364H50.4642ZM47.6602 103.534H48.8335V110.812C48.8335 111.144 48.8816 111.393 48.9777 111.558C49.0771 111.721 49.2031 111.83 49.3556 111.886C49.5113 111.939 49.6754 111.966 49.8477 111.966C49.977 111.966 50.0831 111.959 50.1659 111.946C50.2488 111.929 50.3151 111.916 50.3648 111.906L50.6034 112.96C50.5239 112.99 50.4128 113.02 50.2703 113.05C50.1278 113.083 49.9472 113.099 49.7284 113.099C49.397 113.099 49.0722 113.028 48.754 112.886C48.4391 112.743 48.1773 112.526 47.9685 112.234C47.763 111.943 47.6602 111.575 47.6602 111.131V103.534ZM52.2291 113V105.364H53.3627V106.557H53.4621C53.6212 106.149 53.878 105.833 54.2327 105.607C54.5873 105.379 55.0132 105.264 55.5104 105.264C56.0142 105.264 56.4334 105.379 56.7682 105.607C57.1063 105.833 57.3698 106.149 57.5587 106.557H57.6382C57.8338 106.162 58.1271 105.849 58.5182 105.617C58.9093 105.382 59.3783 105.264 59.9252 105.264C60.6079 105.264 61.1664 105.478 61.6006 105.906C62.0348 106.33 62.2519 106.991 62.2519 107.889V113H61.0786V107.889C61.0786 107.326 60.9244 106.923 60.6162 106.681C60.308 106.439 59.945 106.318 59.5274 106.318C58.9905 106.318 58.5745 106.481 58.2796 106.805C57.9846 107.127 57.8371 107.535 57.8371 108.028V113H56.6439V107.77C56.6439 107.336 56.503 106.986 56.2213 106.721C55.9396 106.452 55.5767 106.318 55.1325 106.318C54.8276 106.318 54.5426 106.399 54.2774 106.562C54.0156 106.724 53.8035 106.95 53.6411 107.238C53.482 107.523 53.4024 107.853 53.4024 108.227V113H52.2291ZM67.5988 113.159C66.863 113.159 66.2283 112.997 65.6947 112.672C65.1644 112.344 64.7551 111.886 64.4667 111.3C64.1817 110.71 64.0392 110.024 64.0392 109.241C64.0392 108.459 64.1817 107.77 64.4667 107.173C64.7551 106.573 65.1561 106.106 65.6698 105.771C66.1869 105.433 66.7901 105.264 67.4795 105.264C67.8772 105.264 68.27 105.33 68.6578 105.463C69.0455 105.596 69.3985 105.811 69.7167 106.109C70.0349 106.404 70.2884 106.795 70.4774 107.283C70.6663 107.77 70.7607 108.37 70.7607 109.082V109.58H64.8744V108.565H69.5676C69.5676 108.134 69.4814 107.75 69.309 107.412C69.14 107.074 68.8981 106.807 68.5832 106.612C68.2716 106.416 67.9037 106.318 67.4795 106.318C67.0122 106.318 66.6078 106.434 66.2664 106.666C65.9284 106.895 65.6682 107.193 65.4859 107.561C65.3036 107.929 65.2124 108.323 65.2124 108.744V109.42C65.2124 109.997 65.3119 110.486 65.5107 110.887C65.7129 111.285 65.993 111.588 66.3509 111.797C66.7089 112.002 67.1249 112.105 67.5988 112.105C67.907 112.105 68.1855 112.062 68.434 111.976C68.6859 111.886 68.903 111.754 69.0853 111.578C69.2676 111.399 69.4085 111.177 69.5079 110.912L70.6414 111.23C70.5221 111.615 70.3216 111.953 70.0399 112.244C69.7581 112.533 69.4101 112.758 68.9958 112.92C68.5815 113.08 68.1159 113.159 67.5988 113.159ZM73.7188 108.406V113H72.5455V105.364H73.6791V106.557H73.7785C73.9575 106.169 74.2293 105.857 74.5938 105.622C74.9584 105.384 75.4291 105.264 76.0058 105.264C76.5228 105.264 76.9752 105.37 77.363 105.582C77.7508 105.791 78.0524 106.109 78.2678 106.537C78.4833 106.961 78.591 107.498 78.591 108.148V113H77.4177V108.227C77.4177 107.627 77.2619 107.16 76.9504 106.825C76.6388 106.487 76.2113 106.318 75.6677 106.318C75.2932 106.318 74.9584 106.399 74.6634 106.562C74.3718 106.724 74.1414 106.961 73.9724 107.273C73.8034 107.584 73.7188 107.962 73.7188 108.406ZM84.056 105.364V106.358H80.0986V105.364H84.056ZM81.252 103.534H82.4253V110.812C82.4253 111.144 82.4734 111.393 82.5695 111.558C82.6689 111.721 82.7949 111.83 82.9474 111.886C83.1031 111.939 83.2672 111.966 83.4395 111.966C83.5688 111.966 83.6749 111.959 83.7577 111.946C83.8406 111.929 83.9069 111.916 83.9566 111.906L84.1952 112.96C84.1157 112.99 84.0046 113.02 83.8621 113.05C83.7196 113.083 83.539 113.099 83.3202 113.099C82.9888 113.099 82.664 113.028 82.3458 112.886C82.0309 112.743 81.7691 112.526 81.5603 112.234C81.3548 111.943 81.252 111.575 81.252 111.131V103.534Z" fill="#E5E7EB"/>
<path d="M40.5001 79.0195C40.5109 79.8478 41.1911 80.5106 42.0195 80.4999C42.8478 80.4891 43.5106 79.8089 43.4999 78.9805L40.5001 79.0195ZM42.0468 0.925653C41.4535 0.347523 40.5038 0.359856 39.9257 0.9532L30.5045 10.6223C29.9264 11.2156 29.9387 12.1653 30.532 12.7434C31.1254 13.3216 32.075 13.3092 32.6532 12.7159L41.0275 4.12114L49.6223 12.4955C50.2156 13.0736 51.1653 13.0613 51.7434 12.468C52.3216 11.8746 52.3092 10.925 51.7159 10.3468L42.0468 0.925653ZM43.4999 78.9805L42.4999 1.98052L39.5001 2.01948L40.5001 79.0195L43.4999 78.9805Z" fill="white"/>
</svg>
