<svg width="3587" height="2049" viewBox="0 0 3587 2049" fill="none" xmlns="http://www.w3.org/2000/svg">
    <path d="M131.5 1029.59C116.5 1002.09 77.5 1004.09 56 1024.09V1025.28C56 1036.37 58.2097 1047.36 62.5 1057.59C89 1062.09 129 1052.59 131.5 1029.59Z" fill="white" stroke="white"/>
    <path d="M2.18861 1057.35C-4.63941 1043.48 19.6132 1032.73 32.5892 1029.04C32.6824 1029.02 32.7779 1029.06 32.8295 1029.14C39.1079 1039.11 41.994 1050.85 41.0574 1062.59L41.0114 1063.17C41.0044 1063.26 40.9515 1063.33 40.8697 1063.36C30.7319 1067.16 9.01423 1071.21 2.18861 1057.35Z" fill="white" stroke="white"/>
    <path d="M224.747 1109.21C218.281 1078.56 180.351 1069.27 154.011 1082.25L153.668 1083.4C150.481 1094.02 149.442 1105.18 150.611 1116.21C174.701 1128.13 215.744 1130.53 224.747 1109.21Z" fill="white" stroke="white"/>
    <path d="M92.9122 1098.65C90.3571 1083.4 116.674 1080.08 130.163 1080.27C130.26 1080.28 130.34 1080.34 130.366 1080.43C133.514 1091.79 132.907 1103.86 128.634 1114.84L128.424 1115.38C128.393 1115.47 128.321 1115.52 128.234 1115.53C117.432 1116.25 95.4663 1113.89 92.9122 1098.65Z" fill="white" stroke="white"/>
    <path d="M317.5 1003.59C302.5 976.087 263.5 978.087 242 998.087V999.279C242 1010.37 244.21 1021.36 248.5 1031.59C275 1036.09 315 1026.59 317.5 1003.59Z" fill="white" stroke="white"/>
    <path d="M188.189 1031.35C181.361 1017.48 205.613 1006.73 218.589 1003.04C218.682 1003.02 218.778 1003.06 218.83 1003.14C225.108 1013.11 227.994 1024.85 227.057 1036.59L227.011 1037.17C227.004 1037.26 226.951 1037.33 226.87 1037.36C216.732 1041.16 195.014 1045.21 188.189 1031.35Z" fill="white" stroke="white"/>
    <path d="M410.747 1083.21C404.281 1052.56 366.351 1043.27 340.011 1056.25L339.668 1057.4C336.481 1068.02 335.442 1079.18 336.611 1090.21C360.701 1102.13 401.744 1104.53 410.747 1083.21Z" fill="white" stroke="white"/>
    <path d="M278.912 1072.65C276.357 1057.4 302.674 1054.08 316.163 1054.27C316.26 1054.28 316.34 1054.34 316.366 1054.43C319.514 1065.79 318.907 1077.86 314.634 1088.84L314.424 1089.38C314.393 1089.47 314.321 1089.52 314.233 1089.53C303.432 1090.25 281.466 1087.89 278.912 1072.65Z" fill="white" stroke="white"/>
    <path d="M483.69 949.194C460.206 928.465 424.23 943.655 410.847 969.792L411.254 970.913C415.04 981.341 420.865 990.91 428.39 999.062C454.834 994.248 489.19 971.667 483.69 949.194Z" fill="white" stroke="white"/>
    <path d="M371.618 1019.42C360.466 1008.71 379.595 990.337 390.533 982.441C390.612 982.385 390.715 982.389 390.791 982.448C400.097 989.68 406.815 999.726 409.944 1011.09L410.097 1011.65C410.121 1011.73 410.096 1011.82 410.03 1011.87C401.797 1018.91 382.766 1030.12 371.618 1019.42Z" fill="white" stroke="white"/>
    <path d="M598.515 992.215C581.976 965.612 543.153 969.826 522.824 991.015L522.892 992.206C523.523 1003.28 526.353 1014.12 531.218 1024.09C557.931 1027.08 597.326 1015.32 598.515 992.215Z" fill="white" stroke="white"/>
    <path d="M470.99 1027.28C463.385 1013.82 486.988 1001.71 499.733 997.295C499.825 997.263 499.922 997.297 499.978 997.376C506.813 1006.98 510.362 1018.53 510.095 1030.31L510.081 1030.89C510.079 1030.98 510.031 1031.05 509.951 1031.09C500.045 1035.46 478.593 1040.73 470.99 1027.28Z" fill="white" stroke="white"/>
    <path d="M623.69 856.194C600.206 835.465 564.23 850.655 550.847 876.792L551.254 877.913C555.04 888.341 560.865 897.91 568.39 906.062C594.834 901.248 629.19 878.667 623.69 856.194Z" fill="white" stroke="white"/>
    <path d="M511.618 926.421C500.466 915.714 519.595 897.337 530.533 889.441C530.612 889.385 530.715 889.389 530.791 889.448C540.097 896.68 546.815 906.726 549.944 918.088L550.097 918.646C550.121 918.73 550.096 918.818 550.03 918.875C541.797 925.905 522.766 937.124 511.618 926.421Z" fill="white" stroke="white"/>
    <path d="M738.515 899.215C721.976 872.612 683.153 876.826 662.824 898.015L662.892 899.206C663.523 910.282 666.353 921.122 671.218 931.092C697.931 934.079 737.326 922.321 738.515 899.215Z" fill="white" stroke="white"/>
    <path d="M610.99 934.28C603.385 920.821 626.988 908.715 639.733 904.295C639.825 904.263 639.922 904.297 639.978 904.376C646.813 913.976 650.362 925.529 650.095 937.311L650.081 937.889C650.079 937.977 650.031 938.054 649.951 938.089C640.045 942.458 618.593 947.735 610.99 934.28Z" fill="white" stroke="white"/>
    <path d="M821.833 831.5C814.421 801.064 776.222 792.953 750.296 806.742L749.989 807.894C747.132 818.614 746.439 829.795 747.95 840.786C772.397 851.959 813.494 853.08 821.833 831.5Z" fill="white" stroke="white"/>
    <path d="M689.734 825.022C686.709 809.861 712.91 805.725 726.399 805.502C726.495 805.501 726.578 805.563 726.606 805.656C730.105 816.91 729.871 828.993 725.941 840.103L725.748 840.649C725.719 840.731 725.648 840.789 725.561 840.797C714.787 841.857 692.759 840.177 689.734 825.022Z" fill="white" stroke="white"/>
    <path d="M891.429 932.455C893.074 901.173 858.816 882.429 830.022 888.187L829.396 889.203C823.58 898.65 819.703 909.16 817.993 920.122C838.199 937.848 877.241 950.73 891.429 932.455Z" fill="white" stroke="white"/>
    <path d="M766.761 888.296C768.219 872.905 794.504 876.471 807.488 880.134C807.581 880.16 807.642 880.244 807.643 880.341C807.76 892.125 804.065 903.631 797.108 913.144L796.766 913.611C796.715 913.682 796.631 913.717 796.545 913.7C785.921 911.62 765.304 903.681 766.761 888.296Z" fill="white" stroke="white"/>
    <path d="M1007.5 901.675C1011.63 870.624 978.978 849.209 949.816 852.654L949.112 853.616C942.561 862.569 937.859 872.737 935.28 883.527C954.009 902.808 991.9 918.761 1007.5 901.675Z" fill="white" stroke="white"/>
    <path d="M886.748 847.719C889.428 832.494 915.346 838.144 927.996 842.829C928.087 842.863 928.141 842.951 928.134 843.048C927.311 854.804 922.711 865.979 915.018 874.907L914.64 875.345C914.583 875.412 914.496 875.44 914.412 875.416C903.988 872.496 884.07 862.939 886.748 847.719Z" fill="white" stroke="white"/>
    <path d="M1035.73 1021C1048.61 992.446 1023.49 962.551 994.566 957.472L993.615 958.191C984.768 964.885 977.343 973.273 971.772 982.867C984.172 1006.72 1015.88 1032.88 1035.73 1021Z" fill="white" stroke="white"/>
    <path d="M935.576 934.625C942.517 920.811 965.718 933.669 976.489 941.792C976.566 941.851 976.592 941.951 976.558 942.041C972.393 953.065 964.775 962.448 954.841 968.788L954.353 969.1C954.28 969.147 954.189 969.149 954.115 969.103C944.969 963.31 928.637 948.433 935.576 934.625Z" fill="white" stroke="white"/>
    <path d="M1141.24 1058.84C1164.79 1038.18 1154.29 1000.57 1130.07 983.969L1128.91 984.23C1118.08 986.66 1107.85 991.221 1098.81 997.648C1100.22 1024.49 1118.25 1061.44 1141.24 1058.84Z" fill="white" stroke="white"/>
    <path d="M1085.83 938.748C1097.87 929.048 1113.67 950.359 1120.11 962.212C1120.15 962.297 1120.14 962.399 1120.07 962.467C1111.71 970.778 1100.89 976.164 1089.23 977.823L1088.65 977.904C1088.57 977.917 1088.48 977.881 1088.43 977.808C1082.51 968.748 1073.8 948.445 1085.83 938.748Z" fill="white" stroke="white"/>
    <path d="M1083.97 1167.26C1112.46 1154.24 1113.22 1115.2 1094.78 1092.34L1093.59 1092.25C1082.53 1091.47 1071.42 1092.9 1060.91 1096.46C1054.55 1122.58 1061.2 1163.15 1083.97 1167.26Z" fill="white" stroke="white"/>
    <path d="M1065.4 1036.31C1079.72 1030.48 1088.73 1055.43 1091.49 1068.64C1091.51 1068.73 1091.46 1068.82 1091.38 1068.87C1080.99 1074.43 1069.08 1076.48 1057.43 1074.72L1056.85 1074.63C1056.77 1074.62 1056.7 1074.56 1056.67 1074.47C1053.6 1064.09 1051.09 1042.14 1065.4 1036.31Z" fill="white" stroke="white"/>
    <path d="M1131.62 1267.05C1162.88 1269.12 1182.08 1235.11 1176.71 1206.24L1175.7 1205.61C1166.34 1199.66 1155.88 1195.64 1144.94 1193.79C1126.95 1213.75 1113.54 1252.62 1131.62 1267.05Z" fill="white" stroke="white"/>
    <path d="M1177.46 1142.99C1192.82 1144.65 1188.91 1170.89 1185.07 1183.82C1185.04 1183.91 1184.96 1183.97 1184.86 1183.97C1173.07 1183.93 1161.62 1180.08 1152.2 1173L1151.74 1172.65C1151.67 1172.6 1151.63 1172.51 1151.65 1172.43C1153.88 1161.83 1162.09 1141.32 1177.46 1142.99Z" fill="white" stroke="white"/>
    <path d="M1014.43 1303.13C1043.77 1314.09 1071.94 1287.04 1075.09 1257.84L1074.31 1256.94C1067.04 1248.56 1058.18 1241.7 1048.24 1236.78C1025.26 1250.73 1001.26 1284.11 1014.43 1303.13Z" fill="white" stroke="white"/>
    <path d="M1093.98 1197.47C1108.22 1203.48 1096.93 1227.48 1089.54 1238.77C1089.48 1238.85 1089.38 1238.88 1089.29 1238.85C1078.02 1235.43 1068.15 1228.45 1061.16 1218.95L1060.82 1218.49C1060.77 1218.42 1060.76 1218.33 1060.8 1218.25C1065.98 1208.74 1079.74 1191.46 1093.98 1197.47Z" fill="white" stroke="white"/>
    <path d="M990.237 1403.21C1015.03 1422.35 1049.93 1404.83 1061.57 1377.87L1061.09 1376.78C1056.63 1366.62 1050.18 1357.46 1042.14 1349.82C1016.07 1356.36 983.272 1381.15 990.237 1403.21Z" fill="white" stroke="white"/>
    <path d="M1097.45 1325.77C1109.28 1335.72 1091.4 1355.31 1081.01 1363.91C1080.93 1363.97 1080.83 1363.98 1080.75 1363.92C1070.99 1357.32 1063.63 1347.73 1059.76 1336.6L1059.57 1336.06C1059.54 1335.97 1059.56 1335.88 1059.62 1335.82C1067.37 1328.27 1085.62 1315.82 1097.45 1325.77Z" fill="white" stroke="white"/>
    <path d="M872.833 1367.83C891.084 1393.29 929.547 1386.53 948.439 1364.05L948.293 1362.87C946.936 1351.86 943.399 1341.23 937.89 1331.6C911.038 1330.37 872.501 1344.69 872.833 1367.83Z" fill="white" stroke="white"/>
    <path d="M997.777 1324.46C1006.25 1337.39 983.495 1351.02 971.067 1356.27C970.978 1356.31 970.878 1356.28 970.817 1356.2C963.366 1347.07 959.066 1335.78 958.558 1324L958.534 1323.43C958.53 1323.34 958.573 1323.26 958.651 1323.22C968.248 1318.21 989.307 1311.53 997.777 1324.46Z" fill="white" stroke="white"/>
    <path d="M835.021 1480.97C855.159 1504.97 892.995 1495.3 910.119 1471.45L909.883 1470.28C907.691 1459.4 903.355 1449.07 897.128 1439.89C870.261 1440.71 832.927 1457.93 835.021 1480.97Z" fill="white" stroke="white"/>
    <path d="M956.298 1428.21C965.732 1440.46 944.08 1455.78 932.089 1461.96C932.003 1462 931.902 1461.98 931.835 1461.91C923.71 1453.38 918.562 1442.44 917.159 1430.74L917.09 1430.17C917.079 1430.08 917.117 1430 917.191 1429.95C926.378 1424.23 946.867 1415.97 956.298 1428.21Z" fill="white" stroke="white"/>
    <path d="M727.879 1421.34C740.274 1450.11 779.292 1451.72 802.548 1433.79L802.658 1432.6C803.683 1421.56 802.498 1410.42 799.171 1399.83C773.2 1392.9 732.493 1398.67 727.879 1421.34Z" fill="white" stroke="white"/>
    <path d="M859.202 1405.65C864.719 1420.09 839.578 1428.54 826.316 1431.02C826.221 1431.04 826.13 1430.99 826.086 1430.9C820.756 1420.39 818.967 1408.44 820.985 1396.83L821.084 1396.26C821.099 1396.17 821.158 1396.1 821.243 1396.08C831.688 1393.23 853.687 1391.21 859.202 1405.65Z" fill="white" stroke="white"/>
    <path d="M1135.31 1895.12C1119.06 1868.34 1080.19 1872.13 1059.64 1893.09L1059.69 1894.29C1060.2 1905.37 1062.91 1916.24 1067.67 1926.26C1094.35 1929.54 1133.87 1918.21 1135.31 1895.12Z" fill="white" stroke="white"/>
    <path d="M1007.41 1928.79C999.95 1915.25 1023.68 1903.4 1036.48 1899.12C1036.57 1899.09 1036.67 1899.13 1036.72 1899.21C1043.45 1908.88 1046.87 1920.47 1046.48 1932.25L1046.46 1932.83C1046.45 1932.91 1046.41 1932.99 1046.33 1933.03C1036.37 1937.29 1014.86 1942.33 1007.41 1928.79Z" fill="white" stroke="white"/>
    <path d="M1232.11 1970.38C1224.25 1940.06 1185.93 1932.52 1160.21 1946.7L1159.92 1947.85C1157.23 1958.62 1156.7 1969.81 1158.38 1980.77C1182.99 1991.58 1224.1 1992.08 1232.11 1970.38Z" fill="white" stroke="white"/>
    <path d="M1099.93 1965.88C1096.68 1950.77 1122.82 1946.24 1136.3 1945.82C1136.4 1945.81 1136.48 1945.87 1136.51 1945.97C1140.18 1957.17 1140.13 1969.25 1136.36 1980.42L1136.18 1980.97C1136.15 1981.05 1136.08 1981.11 1135.99 1981.12C1125.24 1982.34 1103.19 1980.99 1099.93 1965.88Z" fill="white" stroke="white"/>
    <path d="M1333.31 1851.12C1317.06 1824.34 1278.19 1828.13 1257.64 1849.09L1257.69 1850.29C1258.2 1861.37 1260.91 1872.24 1265.67 1882.26C1292.35 1885.54 1331.87 1874.21 1333.31 1851.12Z" fill="white" stroke="white"/>
    <path d="M1205.41 1884.79C1197.95 1871.25 1221.68 1859.4 1234.48 1855.12C1234.57 1855.09 1234.67 1855.13 1234.72 1855.21C1241.45 1864.88 1244.87 1876.47 1244.48 1888.25L1244.46 1888.83C1244.45 1888.91 1244.41 1888.99 1244.33 1889.03C1234.37 1893.29 1212.86 1898.33 1205.41 1884.79Z" fill="white" stroke="white"/>
    <path d="M1430.11 1926.38C1422.25 1896.06 1383.93 1888.52 1358.21 1902.7L1357.92 1903.85C1355.23 1914.62 1354.7 1925.81 1356.38 1936.77C1380.99 1947.58 1422.1 1948.08 1430.11 1926.38Z" fill="white" stroke="white"/>
    <path d="M1297.93 1921.88C1294.68 1906.77 1320.82 1902.24 1334.3 1901.82C1334.4 1901.81 1334.48 1901.87 1334.51 1901.97C1338.18 1913.17 1338.13 1925.25 1334.36 1936.42L1334.18 1936.97C1334.15 1937.05 1334.08 1937.11 1333.99 1937.12C1323.24 1938.34 1301.19 1936.99 1297.93 1921.88Z" fill="white" stroke="white"/>
    <path d="M1517.31 1816.12C1501.06 1789.34 1462.19 1793.13 1441.64 1814.09L1441.69 1815.29C1442.2 1826.37 1444.91 1837.24 1449.67 1847.26C1476.35 1850.54 1515.87 1839.21 1517.31 1816.12Z" fill="white" stroke="white"/>
    <path d="M1389.41 1849.79C1381.95 1836.25 1405.68 1824.4 1418.48 1820.12C1418.57 1820.09 1418.67 1820.13 1418.72 1820.21C1425.45 1829.88 1428.87 1841.47 1428.48 1853.25L1428.46 1853.83C1428.45 1853.91 1428.41 1853.99 1428.33 1854.03C1418.37 1858.29 1396.86 1863.33 1389.41 1849.79Z" fill="white" stroke="white"/>
    <path d="M1614.11 1891.38C1606.25 1861.06 1567.93 1853.52 1542.21 1867.7L1541.92 1868.85C1539.23 1879.62 1538.7 1890.81 1540.38 1901.77C1564.99 1912.58 1606.1 1913.08 1614.11 1891.38Z" fill="white" stroke="white"/>
    <path d="M1481.93 1886.88C1478.68 1871.77 1504.82 1867.24 1518.3 1866.82C1518.4 1866.81 1518.48 1866.87 1518.51 1866.97C1522.18 1878.17 1522.13 1890.25 1518.36 1901.42L1518.18 1901.97C1518.15 1902.05 1518.08 1902.11 1517.99 1902.12C1507.24 1903.34 1485.19 1901.99 1481.93 1886.88Z" fill="white" stroke="white"/>
    <path d="M1707.31 1778.12C1691.06 1751.34 1652.19 1755.13 1631.64 1776.09L1631.69 1777.29C1632.2 1788.37 1634.91 1799.24 1639.67 1809.26C1666.35 1812.54 1705.87 1801.21 1707.31 1778.12Z" fill="white" stroke="white"/>
    <path d="M1579.41 1811.79C1571.95 1798.25 1595.68 1786.4 1608.48 1782.12C1608.57 1782.09 1608.67 1782.13 1608.72 1782.21C1615.45 1791.88 1618.87 1803.47 1618.48 1815.25L1618.46 1815.83C1618.45 1815.91 1618.41 1815.99 1618.33 1816.03C1608.37 1820.29 1586.86 1825.33 1579.41 1811.79Z" fill="white" stroke="white"/>
    <path d="M1804.11 1853.38C1796.25 1823.06 1757.93 1815.52 1732.21 1829.7L1731.92 1830.85C1729.23 1841.62 1728.7 1852.81 1730.38 1863.77C1754.99 1874.58 1796.1 1875.08 1804.11 1853.38Z" fill="white" stroke="white"/>
    <path d="M1671.93 1848.88C1668.68 1833.77 1694.82 1829.24 1708.3 1828.82C1708.4 1828.81 1708.48 1828.87 1708.51 1828.97C1712.18 1840.17 1712.13 1852.25 1708.36 1863.42L1708.18 1863.97C1708.15 1864.05 1708.08 1864.11 1707.99 1864.12C1697.24 1865.34 1675.19 1863.99 1671.93 1848.88Z" fill="white" stroke="white"/>
    <path d="M1897.31 1738.12C1881.06 1711.34 1842.19 1715.13 1821.64 1736.09L1821.69 1737.29C1822.2 1748.37 1824.91 1759.24 1829.67 1769.26C1856.35 1772.54 1895.87 1761.21 1897.31 1738.12Z" fill="white" stroke="white"/>
    <path d="M1769.41 1771.79C1761.95 1758.25 1785.68 1746.4 1798.48 1742.12C1798.57 1742.09 1798.67 1742.13 1798.72 1742.21C1805.45 1751.88 1808.87 1763.47 1808.48 1775.25L1808.46 1775.83C1808.45 1775.91 1808.41 1775.99 1808.33 1776.03C1798.37 1780.29 1776.86 1785.33 1769.41 1771.79Z" fill="white" stroke="white"/>
    <path d="M1994.11 1813.38C1986.25 1783.06 1947.93 1775.52 1922.21 1789.7L1921.92 1790.85C1919.23 1801.62 1918.7 1812.81 1920.38 1823.77C1944.99 1834.58 1986.1 1835.08 1994.11 1813.38Z" fill="white" stroke="white"/>
    <path d="M1861.93 1808.88C1858.68 1793.77 1884.82 1789.24 1898.3 1788.82C1898.4 1788.81 1898.48 1788.87 1898.51 1788.97C1902.18 1800.17 1902.13 1812.25 1898.36 1823.42L1898.18 1823.97C1898.15 1824.05 1898.08 1824.11 1897.99 1824.12C1887.24 1825.34 1865.19 1823.99 1861.93 1808.88Z" fill="white" stroke="white"/>
    <path d="M2087.31 1707.12C2071.06 1680.34 2032.19 1684.13 2011.64 1705.09L2011.69 1706.29C2012.2 1717.37 2014.91 1728.24 2019.67 1738.26C2046.35 1741.54 2085.87 1730.21 2087.31 1707.12Z" fill="white" stroke="white"/>
    <path d="M1959.41 1740.79C1951.95 1727.25 1975.68 1715.4 1988.48 1711.12C1988.57 1711.09 1988.67 1711.13 1988.72 1711.21C1995.45 1720.88 1998.87 1732.47 1998.48 1744.25L1998.46 1744.83C1998.45 1744.91 1998.41 1744.99 1998.33 1745.03C1988.37 1749.29 1966.86 1754.33 1959.41 1740.79Z" fill="white" stroke="white"/>
    <path d="M2184.11 1782.38C2176.25 1752.06 2137.93 1744.52 2112.21 1758.7L2111.92 1759.85C2109.23 1770.62 2108.7 1781.81 2110.38 1792.77C2134.99 1803.58 2176.1 1804.08 2184.11 1782.38Z" fill="white" stroke="white"/>
    <path d="M2051.93 1777.88C2048.68 1762.77 2074.82 1758.24 2088.3 1757.82C2088.4 1757.81 2088.48 1757.87 2088.51 1757.97C2092.18 1769.17 2092.13 1781.25 2088.36 1792.42L2088.18 1792.97C2088.15 1793.05 2088.08 1793.11 2087.99 1793.12C2077.24 1794.34 2055.19 1792.99 2051.93 1777.88Z" fill="white" stroke="white"/>
    <path d="M2277.31 1659.12C2261.06 1632.34 2222.19 1636.13 2201.64 1657.09L2201.69 1658.29C2202.2 1669.37 2204.91 1680.24 2209.67 1690.26C2236.35 1693.54 2275.87 1682.21 2277.31 1659.12Z" fill="white" stroke="white"/>
    <path d="M2149.41 1692.79C2141.95 1679.25 2165.68 1667.4 2178.48 1663.12C2178.57 1663.09 2178.67 1663.13 2178.72 1663.21C2185.45 1672.88 2188.87 1684.47 2188.48 1696.25L2188.46 1696.83C2188.45 1696.91 2188.41 1696.99 2188.33 1697.03C2178.37 1701.29 2156.86 1706.33 2149.41 1692.79Z" fill="white" stroke="white"/>
    <path d="M2374.11 1734.38C2366.25 1704.06 2327.93 1696.52 2302.21 1710.7L2301.92 1711.85C2299.23 1722.62 2298.7 1733.81 2300.38 1744.77C2324.99 1755.58 2366.1 1756.08 2374.11 1734.38Z" fill="white" stroke="white"/>
    <path d="M2241.93 1729.88C2238.68 1714.77 2264.82 1710.24 2278.3 1709.82C2278.4 1709.81 2278.48 1709.87 2278.51 1709.97C2282.18 1721.17 2282.13 1733.25 2278.36 1744.42L2278.18 1744.97C2278.15 1745.05 2278.08 1745.11 2277.99 1745.12C2267.24 1746.34 2245.19 1744.99 2241.93 1729.88Z" fill="white" stroke="white"/>
    <path d="M758.159 1658.4C789.44 1660.06 808.201 1625.81 802.456 1597.01L801.441 1596.38C791.997 1590.56 781.488 1586.68 770.528 1584.97C752.792 1605.16 739.891 1644.2 758.159 1658.4Z" fill="white" stroke="white"/>
    <path d="M802.378 1533.75C817.768 1535.21 814.189 1561.5 810.521 1574.48C810.494 1574.57 810.411 1574.63 810.314 1574.63C798.529 1574.75 787.025 1571.05 777.515 1564.08L777.048 1563.74C776.978 1563.69 776.943 1563.61 776.96 1563.52C779.045 1552.9 786.993 1532.28 802.378 1533.75Z" fill="white" stroke="white"/>
    <path d="M675.176 1583.36C704.661 1593.94 732.471 1566.52 735.243 1537.29L734.45 1536.4C727.077 1528.11 718.126 1521.37 708.121 1516.58C685.33 1530.83 661.757 1564.52 675.176 1583.36Z" fill="white" stroke="white"/>
    <path d="M753.343 1476.68C767.663 1482.5 756.684 1506.65 749.44 1518.03C749.388 1518.11 749.291 1518.14 749.197 1518.12C737.878 1514.84 727.922 1507.99 720.814 1498.59L720.464 1498.13C720.412 1498.06 720.402 1497.97 720.443 1497.89C725.493 1488.31 739.028 1470.85 753.343 1476.68Z" fill="white" stroke="white"/>
    <path d="M850.461 1792.04C865.04 1764.31 841.763 1732.96 813.2 1726.14L812.208 1726.8C802.973 1732.95 795.055 1740.88 788.917 1750.12C799.856 1774.67 829.93 1802.7 850.461 1792.04Z" fill="white" stroke="white"/>
    <path d="M755.694 1699.78C763.456 1686.41 785.84 1700.64 796.101 1709.4C796.175 1709.46 796.195 1709.57 796.155 1709.65C791.333 1720.41 783.163 1729.31 772.865 1735.04L772.359 1735.33C772.283 1735.37 772.192 1735.36 772.121 1735.31C763.341 1728.98 747.935 1713.15 755.694 1699.78Z" fill="white" stroke="white"/>
    <path d="M712.845 1771.83C734.775 1749.46 721.488 1712.74 696.087 1698.01L694.947 1698.36C684.335 1701.59 674.474 1706.91 665.939 1714C669.363 1740.66 690.115 1776.15 712.845 1771.83Z" fill="white" stroke="white"/>
    <path d="M648.58 1656.24C659.856 1645.66 677.207 1665.72 684.519 1677.06C684.572 1677.14 684.562 1677.25 684.498 1677.32C676.79 1686.23 666.406 1692.42 654.896 1694.95L654.33 1695.07C654.245 1695.09 654.159 1695.06 654.106 1694.99C647.515 1686.4 637.309 1666.81 648.58 1656.24Z" fill="white" stroke="white"/>
    <path d="M981.378 1884.09C984.684 1852.94 951.47 1832.4 922.411 1836.62L921.732 1837.6C915.422 1846.73 910.992 1857.02 908.701 1867.87C927.937 1886.65 966.24 1901.59 981.378 1884.09Z" fill="white" stroke="white"/>
    <path d="M859.234 1833.37C861.507 1818.08 887.566 1823.04 900.336 1827.38C900.428 1827.42 900.484 1827.5 900.48 1827.6C899.971 1839.37 895.669 1850.67 888.217 1859.8L887.851 1860.24C887.796 1860.31 887.71 1860.34 887.625 1860.32C877.126 1857.68 856.961 1848.66 859.234 1833.37Z" fill="white" stroke="white"/>
    <path d="M846.031 1916.15C858.147 1887.27 832.235 1858.05 803.189 1853.74L802.257 1854.49C793.591 1861.41 786.392 1870 781.079 1879.74C794.109 1903.25 826.504 1928.56 846.031 1916.15Z" fill="white" stroke="white"/>
    <path d="M743.61 1832.48C750.182 1818.48 773.717 1830.72 784.7 1838.55C784.779 1838.61 784.808 1838.71 784.776 1838.8C780.905 1849.93 773.54 1859.51 763.779 1866.11L763.299 1866.44C763.227 1866.49 763.136 1866.49 763.061 1866.45C753.764 1860.9 737.041 1846.46 743.61 1832.48Z" fill="white" stroke="white"/>
    <path d="M994.031 2016.15C1006.15 1987.27 980.235 1958.05 951.189 1953.74L950.257 1954.49C941.591 1961.41 934.392 1970 929.079 1979.74C942.109 2003.25 974.504 2028.56 994.031 2016.15Z" fill="white" stroke="white"/>
    <path d="M891.61 1932.48C898.181 1918.48 921.717 1930.72 932.7 1938.55C932.779 1938.61 932.808 1938.71 932.776 1938.8C928.905 1949.93 921.54 1959.51 911.779 1966.11L911.299 1966.44C911.227 1966.49 911.136 1966.49 911.061 1966.45C901.764 1960.9 885.041 1946.46 891.61 1932.48Z" fill="white" stroke="white"/>
    <path d="M2404.87 1566.55C2376.85 1552.55 2345.98 1576.47 2339.76 1605.17L2340.44 1606.14C2346.78 1615.25 2354.87 1623 2364.23 1628.95C2388.55 1617.5 2415.96 1586.85 2404.87 1566.55Z" fill="white" stroke="white"/>
    <path d="M2314.6 1663.21C2301.07 1655.72 2314.83 1633.05 2323.38 1622.61C2323.44 1622.53 2323.54 1622.51 2323.63 1622.55C2334.48 1627.15 2343.55 1635.13 2349.5 1645.31L2349.79 1645.81C2349.83 1645.88 2349.83 1645.97 2349.78 1646.05C2343.63 1654.96 2328.12 1670.69 2314.6 1663.21Z" fill="white" stroke="white"/>
    <path d="M2526.89 1578.63C2504.07 1557.17 2467.64 1571.21 2453.43 1596.91L2453.8 1598.05C2457.26 1608.59 2462.78 1618.34 2470.04 1626.72C2496.62 1622.75 2531.68 1601.26 2526.89 1578.63Z" fill="white" stroke="white"/>
    <path d="M2412.65 1645.27C2401.85 1634.22 2421.55 1616.46 2432.73 1608.91C2432.81 1608.86 2432.91 1608.87 2432.99 1608.93C2442.06 1616.45 2448.46 1626.7 2451.22 1638.16L2451.36 1638.72C2451.38 1638.81 2451.35 1638.89 2451.28 1638.95C2442.83 1645.71 2423.46 1656.33 2412.65 1645.27Z" fill="white" stroke="white"/>
    <path d="M2546.87 1436.55C2518.85 1422.55 2487.98 1446.47 2481.76 1475.17L2482.44 1476.14C2488.78 1485.25 2496.87 1493 2506.23 1498.95C2530.55 1487.5 2557.96 1456.85 2546.87 1436.55Z" fill="white" stroke="white"/>
    <path d="M2456.6 1533.21C2443.07 1525.72 2456.83 1503.05 2465.38 1492.61C2465.44 1492.53 2465.54 1492.51 2465.63 1492.55C2476.48 1497.15 2485.55 1505.13 2491.5 1515.31L2491.79 1515.81C2491.83 1515.88 2491.83 1515.97 2491.78 1516.05C2485.63 1524.96 2470.12 1540.69 2456.6 1533.21Z" fill="white" stroke="white"/>
    <path d="M2668.89 1448.63C2646.07 1427.17 2609.64 1441.21 2595.43 1466.91L2595.8 1468.05C2599.26 1478.59 2604.78 1488.34 2612.04 1496.72C2638.62 1492.75 2673.68 1471.26 2668.89 1448.63Z" fill="white" stroke="white"/>
    <path d="M2554.65 1515.27C2543.85 1504.22 2563.55 1486.46 2574.73 1478.91C2574.81 1478.86 2574.91 1478.87 2574.99 1478.93C2584.06 1486.45 2590.46 1496.7 2593.22 1508.16L2593.36 1508.72C2593.38 1508.81 2593.35 1508.89 2593.28 1508.95C2584.83 1515.71 2565.46 1526.33 2554.65 1515.27Z" fill="white" stroke="white"/>
    <path d="M2592.88 1265.92C2562.25 1272.47 2553.07 1310.43 2566.12 1336.73L2567.26 1337.07C2577.9 1340.23 2589.05 1341.24 2600.08 1340.04C2611.94 1315.91 2614.22 1274.86 2592.88 1265.92Z" fill="white" stroke="white"/>
    <path d="M2582.68 1397.78C2567.45 1400.38 2564.05 1374.07 2564.21 1360.58C2564.21 1360.49 2564.27 1360.41 2564.37 1360.38C2575.71 1357.2 2587.79 1357.77 2598.78 1362.02L2599.32 1362.23C2599.4 1362.26 2599.46 1362.33 2599.46 1362.42C2600.22 1373.22 2597.92 1395.19 2582.68 1397.78Z" fill="white" stroke="white"/>
    <path d="M2695.76 1199.2C2664.54 1196.67 2644.84 1230.39 2649.78 1259.33L2650.78 1259.99C2660.06 1266.07 2670.45 1270.24 2681.36 1272.26C2699.65 1252.56 2713.63 1213.89 2695.76 1199.2Z" fill="white" stroke="white"/>
    <path d="M2648.1 1322.57C2632.76 1320.68 2637.07 1294.51 2641.09 1281.63C2641.12 1281.54 2641.21 1281.48 2641.3 1281.48C2653.09 1281.7 2664.49 1285.71 2673.8 1292.94L2674.26 1293.29C2674.32 1293.35 2674.36 1293.43 2674.34 1293.52C2671.96 1304.08 2663.44 1324.46 2648.1 1322.57Z" fill="white" stroke="white"/>
    <path d="M2594.7 1094.27C2564.65 1103.12 2558.37 1141.66 2573.37 1166.91L2574.54 1167.16C2585.38 1169.5 2596.58 1169.66 2607.49 1167.63C2617.49 1142.68 2616.66 1101.58 2594.7 1094.27Z" fill="white" stroke="white"/>
    <path d="M2594.51 1226.53C2579.51 1230.27 2574.13 1204.3 2573.27 1190.83C2573.26 1190.74 2573.32 1190.65 2573.41 1190.62C2584.49 1186.59 2596.57 1186.25 2607.85 1189.65L2608.4 1189.82C2608.49 1189.84 2608.55 1189.91 2608.56 1189.99C2610.13 1200.71 2609.5 1222.79 2594.51 1226.53Z" fill="white" stroke="white"/>
    <path d="M2692.24 1019.96C2660.92 1019.8 2643.82 1054.91 2650.94 1083.4L2651.98 1083.98C2661.69 1089.34 2672.38 1092.71 2683.41 1093.9C2700.15 1072.88 2711.17 1033.27 2692.24 1019.96Z" fill="white" stroke="white"/>
    <path d="M2654.05 1146.59C2638.61 1145.86 2640.92 1119.44 2643.96 1106.29C2643.99 1106.2 2644.07 1106.13 2644.16 1106.13C2655.93 1105.45 2667.6 1108.6 2677.43 1115.09L2677.91 1115.41C2677.99 1115.46 2678.02 1115.54 2678.01 1115.63C2676.44 1126.34 2669.49 1147.31 2654.05 1146.59Z" fill="white" stroke="white"/>
    <path d="M2646.53 912.681C2672.97 933.745 2662.57 971.399 2636.49 987.756L2634.97 987.427C2623.16 984.874 2611.92 980.189 2601.8 973.603C2602.55 946.654 2621.24 909.77 2646.53 912.681Z" fill="white" stroke="white"/>
    <path d="M2589.31 1032.61C2602.79 1042.5 2619.46 1021.35 2626.19 1009.52C2626.25 1009.41 2626.22 1009.29 2626.14 1009.21C2616.7 1000.73 2604.95 995.248 2592.39 993.469L2591.25 993.307C2591.15 993.293 2591.05 993.333 2590.99 993.417C2584.76 1002.45 2575.83 1022.71 2589.31 1032.61Z" fill="white" stroke="white"/>
    <path d="M2580.5 803.001C2612.14 816.458 2614.12 855.694 2594.58 878.417L2593.07 878.496C2581.08 879.132 2568.95 877.55 2557.3 873.833C2549.55 847.511 2555.65 806.838 2580.5 803.001Z" fill="white" stroke="white"/>
    <path d="M2564.01 934.318C2579.88 940.36 2589.02 915.456 2591.66 902.218C2591.69 902.105 2591.63 901.993 2591.52 901.94C2579.93 896.206 2567.05 893.989 2554.56 895.577L2553.51 895.711C2553.41 895.723 2553.33 895.787 2553.3 895.881C2550.24 906.277 2548.15 928.276 2564.01 934.318Z" fill="white" stroke="white"/>
    <path d="M2699.72 714.839C2730.52 729.918 2730.03 769.103 2709.04 790.7L2707.51 790.7C2695.48 790.697 2683.45 788.48 2672.03 784.16C2665.94 757.533 2674.61 717.345 2699.72 714.839Z" fill="white" stroke="white"/>
    <path d="M2674.92 844.759C2690.41 851.617 2701.13 827.3 2704.62 814.255C2704.65 814.142 2704.59 814.026 2704.49 813.967C2693.26 807.641 2680.52 804.751 2667.94 805.67L2666.85 805.75C2666.75 805.757 2666.67 805.817 2666.63 805.91C2662.91 816.103 2659.43 837.901 2674.92 844.759Z" fill="white" stroke="white"/>
    <path d="M2608.35 621.128C2642.23 627.633 2654.07 665.746 2640.99 692.208L2639.58 692.601C2628.17 695.772 2616.07 696.794 2603.91 695.614C2589.79 671.407 2585.37 630.168 2608.35 621.128Z" fill="white" stroke="white"/>
    <path d="M2625.68 753.593C2642.5 756.163 2645 729.76 2644.2 716.198C2644.2 716.085 2644.11 715.99 2644 715.961C2631.38 712.788 2618.39 713.348 2606.73 717.565L2605.79 717.905C2605.7 717.939 2605.64 718.017 2605.64 718.115C2605.31 728.973 2608.87 751.024 2625.68 753.593Z" fill="white" stroke="white"/>
    <path d="M2695.83 514.544C2730.18 516.918 2747.36 553.463 2738.29 581.418L2737.06 581.936C2726.21 586.505 2714.38 589.01 2702.22 589.308C2684.8 566.897 2674.48 526.337 2695.83 514.544Z" fill="white" stroke="white"/>
    <path d="M2732.07 644.445C2749.03 644.967 2747.67 618.327 2744.92 604.916C2744.9 604.815 2744.81 604.739 2744.7 604.725C2731.82 603.095 2718.96 605.276 2707.96 610.954L2707.29 611.295C2707.21 611.338 2707.16 611.419 2707.17 611.51C2708.43 622.366 2715.11 643.923 2732.07 644.445Z" fill="white" stroke="white"/>
    <path d="M2571.91 462.046C2605.16 455.303 2632.9 486.203 2633.09 515.69L2632.1 516.509C2623.26 523.8 2612.85 529.345 2601.44 532.834C2577.91 515.698 2555.42 479.098 2571.91 462.046Z" fill="white" stroke="white"/>
    <path d="M2647 578.423C2663.21 574.463 2653.56 548.996 2646.75 536.72C2646.7 536.628 2646.59 536.579 2646.48 536.594C2633.78 538.405 2622.29 543.912 2613.65 552.322L2613.14 552.812C2613.08 552.876 2613.06 552.966 2613.1 553.051C2617.69 563.245 2630.79 582.381 2647 578.423Z" fill="white" stroke="white"/>
    <path d="M2567.36 329.606C2599.21 318.956 2630.93 346.481 2635.27 375.851L2634.54 376.641C2626.77 385.036 2617.21 391.862 2606.46 396.68C2580.84 382.378 2553.49 348.552 2567.36 329.606Z" fill="white" stroke="white"/>
    <path d="M2657.83 436.742C2673.27 430.876 2660.14 406.602 2651.69 395.18C2651.63 395.106 2651.54 395.077 2651.44 395.102C2639.2 398.399 2628.47 405.406 2621 414.986L2620.82 415.217C2620.76 415.285 2620.76 415.371 2620.8 415.442C2626.76 425.058 2642.39 442.605 2657.83 436.742Z" fill="white" stroke="white"/>
    <path d="M2432.84 327.204C2459.64 308.493 2498.3 326.823 2511.63 354.149L2511.18 355.129C2506.47 365.3 2499.56 374.424 2490.91 381.924C2462.17 374.808 2425.66 349.221 2432.84 327.204Z" fill="white" stroke="white"/>
    <path d="M2552.1 407.234C2564.87 397.481 2544.82 377.413 2533.24 368.564C2533.16 368.507 2533.06 368.503 2532.98 368.553C2522.42 374.974 2514.48 384.567 2510.43 395.794L2510.31 396.113C2510.29 396.193 2510.31 396.279 2510.37 396.337C2519.03 404.089 2539.33 416.982 2552.1 407.234Z" fill="white" stroke="white"/>
    <path d="M2402.05 202.668C2423.28 176.362 2460.87 186.997 2477.06 213.178L2476.72 214.7C2474.09 226.489 2469.34 237.701 2462.69 247.784C2435.74 246.858 2398.98 227.942 2402.05 202.668Z" fill="white" stroke="white"/>
    <path d="M2521.61 260.646C2531.59 247.231 2510.54 230.421 2498.76 223.62C2498.65 223.56 2498.52 223.583 2498.44 223.672C2489.9 233.053 2484.35 244.765 2482.49 257.315L2482.32 258.455C2482.31 258.556 2482.35 258.654 2482.43 258.713C2491.43 265.002 2511.63 274.06 2521.61 260.646Z" fill="white" stroke="white"/>
    <path d="M2291.95 268C2305.61 236.451 2344.86 234.714 2367.46 254.399L2367.53 255.908C2368.09 267.907 2366.43 280.025 2362.64 291.648C2336.27 299.229 2295.63 292.874 2291.95 268Z" fill="white" stroke="white"/>
    <path d="M2423.16 285.32C2429.31 269.495 2404.46 260.198 2391.24 257.466C2391.13 257.442 2391.01 257.503 2390.96 257.609C2385.15 269.161 2382.85 282.028 2384.36 294.527L2384.49 295.58C2384.5 295.68 2384.57 295.759 2384.66 295.788C2395.04 298.916 2417.02 301.144 2423.16 285.32Z" fill="white" stroke="white"/>
    <path d="M2204.55 148.229C2219.82 117.519 2259 118.259 2280.47 139.385L2280.46 140.913C2280.38 152.948 2278.08 164.963 2273.69 176.356C2247.03 182.277 2206.89 173.352 2204.55 148.229Z" fill="white" stroke="white"/>
    <path d="M2334.31 173.847C2341.26 158.399 2317.01 147.527 2303.99 143.957C2303.88 143.927 2303.76 143.98 2303.7 144.084C2297.31 155.279 2294.34 167.994 2295.18 180.582L2295.25 181.671C2295.25 181.772 2295.31 181.856 2295.41 181.891C2305.58 185.676 2327.35 189.293 2334.31 173.847Z" fill="white" stroke="white"/>
    <path d="M2110.26 239.004C2116.98 205.159 2155.17 193.561 2181.55 206.81L2181.93 208.226C2185.03 219.655 2185.97 231.757 2184.72 243.911C2160.42 257.882 2119.15 262.035 2110.26 239.004Z" fill="white" stroke="white"/>
    <path d="M2242.83 222.511C2245.51 205.711 2219.12 203.039 2205.56 203.751C2205.44 203.757 2205.35 203.842 2205.32 203.957C2202.06 216.55 2202.54 229.55 2206.69 241.233L2207.02 242.174C2207.05 242.266 2207.13 242.327 2207.23 242.331C2218.08 242.72 2240.16 239.308 2242.83 222.511Z" fill="white" stroke="white"/>
    <path d="M2004.23 150.852C2006.82 116.517 2043.48 99.5655 2071.37 108.814L2071.88 110.046C2076.38 120.927 2078.81 132.776 2079.03 144.928C2056.51 162.212 2015.89 172.269 2004.23 150.852Z" fill="white" stroke="white"/>
    <path d="M2134.36 115.434C2134.99 98.4788 2108.34 99.6676 2094.91 102.332C2094.81 102.352 2094.73 102.441 2094.72 102.551C2093.01 115.419 2095.11 128.296 2100.72 139.334L2101.05 139.997C2101.1 140.081 2101.18 140.128 2101.27 140.118C2112.13 138.937 2133.73 132.385 2134.36 115.434Z" fill="white" stroke="white"/>
    <path d="M1950.95 274.434C1944.42 241.14 1975.49 213.599 2004.98 213.591L2005.79 214.589C2013.03 223.475 2018.51 233.925 2021.92 245.351C2004.64 268.77 1967.9 291.036 1950.95 274.434Z" fill="white" stroke="white"/>
    <path d="M2067.8 200.085C2063.94 183.847 2038.41 193.337 2026.1 200.072C2026 200.123 2025.95 200.23 2025.97 200.338C2027.7 213.046 2033.13 224.579 2041.49 233.269L2041.98 233.776C2042.04 233.841 2042.13 233.861 2042.21 233.823C2052.44 229.296 2071.66 216.318 2067.8 200.085Z" fill="white" stroke="white"/>
    <path d="M1818.48 278.151C1808.04 246.231 1835.76 214.69 1865.16 210.531L1865.94 211.267C1874.29 219.09 1881.05 228.697 1885.8 239.471C1871.34 265.004 1837.34 292.14 1818.48 278.151Z" fill="white" stroke="white"/>
    <path d="M1926.19 188.361C1920.42 172.878 1896.07 185.859 1884.59 194.237C1884.52 194.291 1884.49 194.388 1884.51 194.481C1887.73 206.744 1894.67 217.517 1904.2 225.051L1904.43 225.233C1904.5 225.286 1904.59 225.294 1904.66 225.25C1914.31 219.351 1931.96 203.837 1926.19 188.361Z" fill="white" stroke="white"/>
    <path d="M1815.23 412.651C1796.69 385.734 1815.26 347.193 1842.67 334.031L1843.65 334.492C1853.79 339.267 1862.87 346.226 1870.32 354.929C1863.02 383.623 1837.2 419.965 1815.23 412.651Z" fill="white" stroke="white"/>
    <path d="M1896.01 293.902C1886.34 281.067 1866.15 300.988 1857.23 312.516C1857.17 312.592 1857.16 312.695 1857.21 312.776C1863.57 323.37 1873.11 331.37 1884.31 335.496L1884.63 335.613C1884.71 335.642 1884.8 335.622 1884.85 335.557C1892.66 326.946 1905.68 306.732 1896.01 293.902Z" fill="white" stroke="white"/>
    <path d="M1761.89 557.52C1729.92 568.494 1703.75 539.489 1703.97 508.706L1705.07 507.598C1713.57 499.015 1723.56 492.053 1734.56 487.054C1756.88 502.176 1777.94 537.755 1761.89 557.52Z" fill="white" stroke="white"/>
    <path d="M1691.51 444.81C1675.93 450.858 1684.8 476.289 1691.16 488.32C1691.22 488.426 1691.34 488.474 1691.45 488.442C1703.68 485.043 1714.61 478.082 1722.86 468.446L1723.61 467.571C1723.68 467.493 1723.7 467.388 1723.66 467.294C1719.39 457.183 1707.1 438.762 1691.51 444.81Z" fill="white" stroke="white"/>
    <path d="M1889.87 560.79C1861.52 580.235 1827.36 560.821 1818.71 532.129L1819.45 530.814C1825.36 520.357 1833.21 510.98 1842.61 503.156C1868.97 510.769 1899.99 537.772 1889.87 560.79Z" fill="white" stroke="white"/>
    <path d="M1788 476.306C1774.37 486.436 1790.46 507.528 1800.2 516.877C1800.28 516.956 1800.41 516.965 1800.51 516.903C1811.58 510.213 1820.37 500.543 1825.75 489.157L1826.2 488.198C1826.24 488.107 1826.23 488.006 1826.16 487.931C1819.04 479.762 1801.62 466.176 1788 476.306Z" fill="white" stroke="white"/>
    <path d="M1900.14 708.707C1870.87 726.58 1838.09 705.104 1831.16 675.796L1831.98 674.508C1838.45 664.36 1846.78 655.407 1856.56 648.098C1882.29 657.274 1911.52 686.186 1900.14 708.707Z" fill="white" stroke="white"/>
    <path d="M1803.91 617.968C1789.8 627.346 1804.54 649.454 1813.67 659.406C1813.75 659.492 1813.88 659.509 1813.98 659.453C1825.35 653.379 1834.64 644.194 1840.62 633.089L1841.14 632.128C1841.19 632.039 1841.18 631.937 1841.12 631.858C1834.53 623.242 1818.02 608.591 1803.91 617.968Z" fill="white" stroke="white"/>
    <path d="M2028.27 682.023C2004.57 707.103 1966.07 696.603 1950.79 671.349L1951.21 669.946C1954.67 658.62 1960.31 647.87 1967.84 638.249C1995.85 639.349 2033 657.791 2028.27 682.023Z" fill="white" stroke="white"/>
    <path d="M1907.25 625.443C1896.05 638.243 1916.97 654.546 1928.83 661.162C1928.93 661.218 1929.06 661.197 1929.14 661.115C1938.6 652.184 1945.11 640.922 1947.82 628.827L1948.04 627.852C1948.06 627.756 1948.02 627.663 1947.94 627.608C1938.96 621.502 1918.46 612.645 1907.25 625.443Z" fill="white" stroke="white"/>
    <path d="M2071.14 813.08C2050.67 840.771 2010.62 835.619 1991.92 812.944L1992.14 811.629C1994.12 800.021 1998.37 788.697 2004.65 778.29C2032.91 775.641 2072.66 788.743 2071.14 813.08Z" fill="white" stroke="white"/>
    <path d="M1942.11 773.822C1932.56 787.843 1955.75 801.016 1968.54 805.906C1968.64 805.943 1968.75 805.908 1968.82 805.823C1977.12 795.839 1982.19 783.82 1983.32 771.489L1983.38 770.749C1983.39 770.655 1983.35 770.572 1983.27 770.532C1973.44 765.751 1951.67 759.805 1942.11 773.822Z" fill="white" stroke="white"/>
    <path d="M2182.01 736.8C2169.82 768.465 2128.86 775.247 2103.89 759.562L2103.73 758.284C2102.33 746.912 2103.25 735.148 2106.44 723.656C2133.54 713.025 2176.49 713.725 2182.01 736.8Z" fill="white" stroke="white"/>
    <path d="M2043.51 737.569C2038.14 753.37 2064.8 758.919 2078.81 759.772C2078.92 759.778 2079.02 759.714 2079.06 759.615C2084.36 747.934 2085.9 735.278 2083.45 723.474L2083.3 722.786C2083.29 722.697 2083.22 722.632 2083.13 722.619C2072.06 721.012 2048.89 721.774 2043.51 737.569Z" fill="white" stroke="white"/>
    <path d="M2296.14 804.142C2288 836.727 2247.74 848.678 2220.64 836.557L2220.37 835.516C2217.46 824.452 2216.85 812.718 2218.56 801.068C2244.39 787.146 2287.62 782.263 2296.14 804.142Z" fill="white" stroke="white"/>
    <path d="M2157.17 822.85C2153.81 839.029 2181.34 840.998 2195.52 840.011C2195.61 840.005 2195.69 839.939 2195.71 839.847C2199.51 827.751 2199.37 814.938 2195.31 803.487L2195.21 803.21C2195.18 803.129 2195.11 803.077 2195.03 803.076C2183.72 802.933 2160.52 806.679 2157.17 822.85Z" fill="white" stroke="white"/>
    <path d="M2370.46 691.997C2371.84 724.653 2335.6 747.399 2305.39 743.958L2304.81 743.048C2298.77 733.609 2294.78 722.886 2293.11 711.555C2314.56 691.144 2355.75 674.113 2370.46 691.997Z" fill="white" stroke="white"/>
    <path d="M2238.88 749.55C2240.24 765.564 2267.94 759.443 2281.62 754.43C2281.71 754.398 2281.77 754.312 2281.77 754.217C2282.03 741.867 2278.21 730.016 2270.92 720.562L2270.71 720.293C2270.66 720.226 2270.58 720.197 2270.49 720.221C2259.3 723.358 2237.52 733.543 2238.88 749.55Z" fill="white" stroke="white"/>
    <path d="M2525.85 758.385C2522.59 792.032 2485.35 803.831 2457.43 790.877L2456.87 789.419C2452.58 778.129 2450.38 766.15 2450.39 754.072C2473.4 740.021 2514.51 735.589 2525.85 758.385Z" fill="white" stroke="white"/>
    <path d="M2394.11 775.75C2393.16 792.442 2419.98 794.9 2433.56 794.094C2433.68 794.087 2433.78 793.997 2433.8 793.879C2435.77 781.347 2433.96 768.512 2428.61 757.01L2428.12 755.965C2428.08 755.872 2427.99 755.812 2427.89 755.809C2416.92 755.505 2395.06 759.059 2394.11 775.75Z" fill="white" stroke="white"/>
    <path d="M2891.8 646.886C2893.42 681.28 2859.1 702.574 2830.29 696.796L2829.63 695.635C2823.84 685.384 2819.98 673.92 2818.28 661.885C2838.52 641.985 2877.62 627.049 2891.8 646.886Z" fill="white" stroke="white"/>
    <path d="M2766.96 697.905C2768.41 714.81 2794.71 710.381 2807.71 706.1C2807.81 706.067 2807.88 705.969 2807.88 705.859C2808.01 692.878 2804.35 680.354 2797.44 670.081L2797.03 669.464C2796.97 669.386 2796.89 669.349 2796.8 669.37C2786.16 671.867 2765.52 681.004 2766.96 697.905Z" fill="white" stroke="white"/>
    <path d="M2929.62 517.73C2940.16 549.979 2912.68 581.103 2883.41 584.706L2882.48 583.814C2874.22 575.877 2867.5 566.173 2862.72 555.248C2877.02 529.897 2910.77 503.318 2929.62 517.73Z" fill="white" stroke="white"/>
    <path d="M2822.71 605.771C2828.51 621.418 2852.69 608.886 2864.1 600.699C2864.18 600.637 2864.22 600.525 2864.19 600.42C2860.93 588.017 2854.13 577.233 2844.77 569.626L2844.23 569.182C2844.16 569.125 2844.07 569.117 2843.99 569.164C2834.39 574.905 2816.9 590.129 2822.71 605.771Z" fill="white" stroke="white"/>
    <path d="M3070.33 577.366C3064.5 610.443 3025.18 625.197 2997.29 615.013L2996.95 613.993C2993.27 603.16 2991.83 591.499 2992.72 579.758C3017.51 564.053 3060.28 556.141 3070.33 577.366Z" fill="white" stroke="white"/>
    <path d="M2933.02 605.805C2930.81 622.179 2958.41 622.207 2972.48 620.226C2972.57 620.213 2972.64 620.141 2972.66 620.048C2975.6 607.715 2974.56 594.943 2969.7 583.806L2969.58 583.537C2969.55 583.459 2969.48 583.411 2969.39 583.416C2958.1 584.07 2935.22 589.438 2933.02 605.805Z" fill="white" stroke="white"/>
    <path d="M3136.58 460.27C3140.24 492.748 3105.7 517.987 3075.32 516.68L3074.68 515.813C3067.98 506.823 3063.25 496.406 3060.79 485.221C3080.75 463.352 3120.64 443.465 3136.58 460.27Z" fill="white" stroke="white"/>
    <path d="M3009.37 526.937C3011.85 542.816 3039.05 534.762 3052.35 528.798C3052.44 528.759 3052.49 528.67 3052.48 528.575C3051.87 516.237 3047.22 504.685 3039.29 495.767L3039.06 495.514C3039.01 495.45 3038.92 495.427 3038.84 495.456C3027.9 499.373 3006.89 511.065 3009.37 526.937Z" fill="white" stroke="white"/>
    <path d="M3271.33 538.366C3265.5 571.443 3226.18 586.197 3198.29 576.013L3197.95 574.993C3194.27 564.16 3192.83 552.499 3193.72 540.758C3218.51 525.053 3261.28 517.141 3271.33 538.366Z" fill="white" stroke="white"/>
    <path d="M3134.02 566.805C3131.81 583.179 3159.41 583.207 3173.48 581.226C3173.57 581.213 3173.64 581.141 3173.66 581.048C3176.6 568.715 3175.56 555.943 3170.7 544.806L3170.58 544.537C3170.55 544.459 3170.48 544.411 3170.39 544.416C3159.1 545.07 3136.22 550.438 3134.02 566.805Z" fill="white" stroke="white"/>
    <path d="M3337.58 421.27C3341.24 453.748 3306.7 478.987 3276.32 477.68L3275.68 476.813C3268.98 467.823 3264.25 457.406 3261.79 446.221C3281.75 424.352 3321.64 404.465 3337.58 421.27Z" fill="white" stroke="white"/>
    <path d="M3210.37 487.937C3212.85 503.816 3240.05 495.762 3253.35 489.798C3253.44 489.759 3253.49 489.67 3253.48 489.575C3252.87 477.237 3248.22 465.685 3240.29 456.767L3240.06 456.514C3240.01 456.45 3239.92 456.427 3239.84 456.456C3228.9 460.373 3207.89 472.065 3210.37 487.937Z" fill="white" stroke="white"/>
    <path d="M3472.33 508.365C3466.5 541.442 3427.18 556.196 3399.29 546.012L3398.95 544.992C3395.27 534.159 3393.83 522.498 3394.72 510.757C3419.51 495.052 3462.28 487.14 3472.33 508.365Z" fill="white" stroke="white"/>
    <path d="M3335.02 536.804C3332.81 553.178 3360.41 553.206 3374.48 551.225C3374.57 551.212 3374.64 551.14 3374.66 551.047C3377.6 538.714 3376.56 525.942 3371.7 514.805L3371.58 514.536C3371.55 514.458 3371.48 514.41 3371.39 514.415C3360.1 515.069 3337.22 520.437 3335.02 536.804Z" fill="white" stroke="white"/>
    <path d="M3538.58 391.269C3542.25 423.747 3507.7 448.986 3477.32 447.679L3476.68 446.812C3469.98 437.822 3465.25 427.405 3462.79 416.22C3482.75 394.351 3522.64 374.464 3538.58 391.269Z" fill="white" stroke="white"/>
    <path d="M3411.37 457.936C3413.85 473.815 3441.05 465.761 3454.35 459.797C3454.44 459.758 3454.49 459.669 3454.48 459.574C3453.87 447.236 3449.22 435.684 3441.29 426.766L3441.06 426.513C3441.01 426.449 3440.92 426.426 3440.84 426.455C3429.9 430.372 3408.89 442.064 3411.37 457.936Z" fill="white" stroke="white"/>
</svg>
