<svg width="126" height="272" viewBox="0 0 126 272" fill="none" xmlns="http://www.w3.org/2000/svg">
<path d="M15.7599 224.818V235H14.5668L9.01847 227.006H8.91903V235H7.68608V224.818H8.87926L14.4474 232.832H14.5469V224.818H15.7599ZM21.2697 235.159C20.5339 235.159 19.8992 234.997 19.3656 234.672C18.8353 234.344 18.426 233.886 18.1376 233.3C17.8526 232.71 17.71 232.024 17.71 231.241C17.71 230.459 17.8526 229.77 18.1376 229.173C18.426 228.573 18.827 228.106 19.3407 227.771C19.8578 227.433 20.461 227.264 21.1504 227.264C21.5481 227.264 21.9409 227.33 22.3287 227.463C22.7164 227.596 23.0694 227.811 23.3876 228.109C23.7058 228.404 23.9593 228.795 24.1483 229.283C24.3372 229.77 24.4316 230.37 24.4316 231.082V231.58H18.5453V230.565H23.2385C23.2385 230.134 23.1523 229.75 22.9799 229.412C22.8109 229.074 22.569 228.807 22.2541 228.612C21.9425 228.416 21.5746 228.318 21.1504 228.318C20.6831 228.318 20.2787 228.434 19.9373 228.666C19.5993 228.895 19.3391 229.193 19.1568 229.561C18.9745 229.929 18.8833 230.323 18.8833 230.744V231.42C18.8833 231.997 18.9828 232.486 19.1816 232.887C19.3838 233.285 19.6639 233.588 20.0218 233.797C20.3798 234.002 20.7958 234.105 21.2697 234.105C21.5779 234.105 21.8564 234.062 22.1049 233.976C22.3568 233.886 22.5739 233.754 22.7562 233.578C22.9385 233.399 23.0794 233.177 23.1788 232.912L24.3123 233.23C24.193 233.615 23.9925 233.953 23.7108 234.244C23.429 234.533 23.081 234.758 22.6667 234.92C22.2524 235.08 21.7868 235.159 21.2697 235.159ZM29.4181 235.159C28.6824 235.159 28.0476 234.997 27.514 234.672C26.9837 234.344 26.5744 233.886 26.286 233.3C26.001 232.71 25.8585 232.024 25.8585 231.241C25.8585 230.459 26.001 229.77 26.286 229.173C26.5744 228.573 26.9754 228.106 27.4892 227.771C28.0062 227.433 28.6094 227.264 29.2988 227.264C29.6966 227.264 30.0893 227.33 30.4771 227.463C30.8649 227.596 31.2179 227.811 31.536 228.109C31.8542 228.404 32.1078 228.795 32.2967 229.283C32.4856 229.77 32.5801 230.37 32.5801 231.082V231.58H26.6937V230.565H31.3869C31.3869 230.134 31.3007 229.75 31.1284 229.412C30.9593 229.074 30.7174 228.807 30.4025 228.612C30.091 228.416 29.7231 228.318 29.2988 228.318C28.8315 228.318 28.4271 228.434 28.0858 228.666C27.7477 228.895 27.4875 229.193 27.3052 229.561C27.1229 229.929 27.0318 230.323 27.0318 230.744V231.42C27.0318 231.997 27.1312 232.486 27.3301 232.887C27.5323 233.285 27.8123 233.588 28.1703 233.797C28.5282 234.002 28.9442 234.105 29.4181 234.105C29.7264 234.105 30.0048 234.062 30.2534 233.976C30.5053 233.886 30.7224 233.754 30.9047 233.578C31.0869 233.399 31.2278 233.177 31.3272 232.912L32.4608 233.23C32.3414 233.615 32.1409 233.953 31.8592 234.244C31.5775 234.533 31.2295 234.758 30.8152 234.92C30.4009 235.08 29.9352 235.159 29.4181 235.159ZM37.2484 235.159C36.612 235.159 36.0502 234.998 35.563 234.677C35.0758 234.352 34.6947 233.895 34.4196 233.305C34.1445 232.711 34.0069 232.01 34.0069 231.202C34.0069 230.4 34.1445 229.704 34.4196 229.114C34.6947 228.524 35.0775 228.068 35.568 227.746C36.0585 227.425 36.6253 227.264 37.2683 227.264C37.7654 227.264 38.1582 227.347 38.4466 227.513C38.7382 227.675 38.9603 227.861 39.1127 228.07C39.2685 228.275 39.3895 228.444 39.4757 228.577H39.5751V224.818H40.7484V235H39.6149V233.827H39.4757C39.3895 233.966 39.2669 234.142 39.1078 234.354C38.9487 234.562 38.7217 234.75 38.4267 234.915C38.1317 235.078 37.7389 235.159 37.2484 235.159ZM37.4075 234.105C37.8781 234.105 38.2759 233.982 38.6007 233.737C38.9255 233.489 39.1724 233.146 39.3414 232.708C39.5105 232.267 39.595 231.759 39.595 231.182C39.595 230.612 39.5121 230.113 39.3464 229.685C39.1807 229.254 38.9354 228.92 38.6106 228.681C38.2858 228.439 37.8848 228.318 37.4075 228.318C36.9103 228.318 36.496 228.446 36.1646 228.701C35.8365 228.953 35.5895 229.296 35.4238 229.73C35.2614 230.161 35.1802 230.645 35.1802 231.182C35.1802 231.725 35.2631 232.219 35.4288 232.663C35.5978 233.104 35.8464 233.455 36.1745 233.717C36.506 233.976 36.917 234.105 37.4075 234.105ZM48.4693 229.074L47.4153 229.372C47.349 229.196 47.2512 229.026 47.122 228.86C46.996 228.691 46.8237 228.552 46.6049 228.442C46.3862 228.333 46.1061 228.278 45.7647 228.278C45.2974 228.278 44.908 228.386 44.5964 228.602C44.2882 228.814 44.1341 229.084 44.1341 229.412C44.1341 229.704 44.2401 229.934 44.4522 230.103C44.6644 230.272 44.9958 230.413 45.4466 230.526L46.5801 230.804C47.2628 230.97 47.7716 231.223 48.1064 231.565C48.4411 231.903 48.6085 232.339 48.6085 232.872C48.6085 233.31 48.4825 233.701 48.2306 234.045C47.9821 234.39 47.6341 234.662 47.1866 234.861C46.7392 235.06 46.2188 235.159 45.6255 235.159C44.8467 235.159 44.202 234.99 43.6916 234.652C43.1812 234.314 42.858 233.82 42.7221 233.17L43.8358 232.892C43.9418 233.303 44.1423 233.611 44.4373 233.817C44.7356 234.022 45.1251 234.125 45.6056 234.125C46.1525 234.125 46.5867 234.009 46.9082 233.777C47.233 233.542 47.3954 233.26 47.3954 232.932C47.3954 232.667 47.3026 232.445 47.117 232.266C46.9314 232.083 46.6464 231.947 46.2619 231.858L44.9892 231.56C44.2898 231.394 43.7761 231.137 43.448 230.789C43.1232 230.438 42.9608 229.999 42.9608 229.472C42.9608 229.041 43.0817 228.66 43.3237 228.328C43.569 227.997 43.902 227.737 44.323 227.548C44.7472 227.359 45.2278 227.264 45.7647 227.264C46.5204 227.264 47.1137 227.43 47.5446 227.761C47.9788 228.093 48.287 228.53 48.4693 229.074ZM54.3121 235V227.364H55.4457V228.557H55.5451C55.7042 228.149 55.9611 227.833 56.3157 227.607C56.6703 227.379 57.0962 227.264 57.5934 227.264C58.0972 227.264 58.5165 227.379 58.8512 227.607C59.1893 227.833 59.4528 228.149 59.6417 228.557H59.7212C59.9168 228.162 60.2101 227.849 60.6012 227.617C60.9923 227.382 61.4613 227.264 62.0082 227.264C62.6909 227.264 63.2494 227.478 63.6836 227.906C64.1178 228.33 64.3349 228.991 64.3349 229.889V235H63.1616V229.889C63.1616 229.326 63.0075 228.923 62.6992 228.681C62.391 228.439 62.0281 228.318 61.6104 228.318C61.0735 228.318 60.6576 228.481 60.3626 228.805C60.0676 229.127 59.9201 229.535 59.9201 230.028V235H58.7269V229.77C58.7269 229.336 58.5861 228.986 58.3043 228.721C58.0226 228.452 57.6597 228.318 57.2156 228.318C56.9106 228.318 56.6256 228.399 56.3604 228.562C56.0986 228.724 55.8865 228.95 55.7241 229.238C55.565 229.523 55.4854 229.853 55.4854 230.227V235H54.3121ZM69.5824 235.159C68.893 235.159 68.2881 234.995 67.7678 234.667C67.2507 234.339 66.8464 233.88 66.5547 233.29C66.2663 232.7 66.1222 232.01 66.1222 231.222C66.1222 230.426 66.2663 229.732 66.5547 229.138C66.8464 228.545 67.2507 228.085 67.7678 227.756C68.2881 227.428 68.893 227.264 69.5824 227.264C70.2718 227.264 70.875 227.428 71.392 227.756C71.9124 228.085 72.3168 228.545 72.6051 229.138C72.8968 229.732 73.0426 230.426 73.0426 231.222C73.0426 232.01 72.8968 232.7 72.6051 233.29C72.3168 233.88 71.9124 234.339 71.392 234.667C70.875 234.995 70.2718 235.159 69.5824 235.159ZM69.5824 234.105C70.1061 234.105 70.5369 233.971 70.875 233.702C71.2131 233.434 71.4633 233.081 71.6257 232.643C71.7881 232.206 71.8693 231.732 71.8693 231.222C71.8693 230.711 71.7881 230.236 71.6257 229.795C71.4633 229.354 71.2131 228.998 70.875 228.726C70.5369 228.454 70.1061 228.318 69.5824 228.318C69.0587 228.318 68.6278 228.454 68.2898 228.726C67.9517 228.998 67.7015 229.354 67.5391 229.795C67.3767 230.236 67.2955 230.711 67.2955 231.222C67.2955 231.732 67.3767 232.206 67.5391 232.643C67.7015 233.081 67.9517 233.434 68.2898 233.702C68.6278 233.971 69.0587 234.105 69.5824 234.105ZM74.8336 235V227.364H75.9672V228.517H76.0467C76.1859 228.139 76.4378 227.833 76.8024 227.597C77.167 227.362 77.5779 227.244 78.0353 227.244C78.1215 227.244 78.2292 227.246 78.3585 227.249C78.4877 227.253 78.5855 227.258 78.6518 227.264V228.457C78.612 228.447 78.5209 228.433 78.3784 228.413C78.2392 228.389 78.0917 228.378 77.9359 228.378C77.5647 228.378 77.2333 228.456 76.9416 228.612C76.6532 228.764 76.4245 228.976 76.2555 229.248C76.0898 229.516 76.0069 229.823 76.0069 230.168V235H74.8336ZM83.0119 235.159C82.2761 235.159 81.6414 234.997 81.1078 234.672C80.5775 234.344 80.1681 233.886 79.8798 233.3C79.5948 232.71 79.4522 232.024 79.4522 231.241C79.4522 230.459 79.5948 229.77 79.8798 229.173C80.1681 228.573 80.5692 228.106 81.0829 227.771C81.6 227.433 82.2032 227.264 82.8926 227.264C83.2903 227.264 83.6831 227.33 84.0708 227.463C84.4586 227.596 84.8116 227.811 85.1298 228.109C85.448 228.404 85.7015 228.795 85.8904 229.283C86.0794 229.77 86.1738 230.37 86.1738 231.082V231.58H80.2875V230.565H84.9806C84.9806 230.134 84.8945 229.75 84.7221 229.412C84.5531 229.074 84.3111 228.807 83.9963 228.612C83.6847 228.416 83.3168 228.318 82.8926 228.318C82.4252 228.318 82.0209 228.434 81.6795 228.666C81.3414 228.895 81.0813 229.193 80.899 229.561C80.7167 229.929 80.6255 230.323 80.6255 230.744V231.42C80.6255 231.997 80.725 232.486 80.9238 232.887C81.126 233.285 81.4061 233.588 81.764 233.797C82.122 234.002 82.5379 234.105 83.0119 234.105C83.3201 234.105 83.5985 234.062 83.8471 233.976C84.099 233.886 84.3161 233.754 84.4984 233.578C84.6807 233.399 84.8216 233.177 84.921 232.912L86.0545 233.23C85.9352 233.615 85.7347 233.953 85.4529 234.244C85.1712 234.533 84.8232 234.758 84.4089 234.92C83.9946 235.08 83.5289 235.159 83.0119 235.159ZM95.2172 227.364V228.358H91.2598V227.364H95.2172ZM92.4132 225.534H93.5865V232.812C93.5865 233.144 93.6345 233.393 93.7306 233.558C93.8301 233.721 93.956 233.83 94.1085 233.886C94.2643 233.939 94.4283 233.966 94.6007 233.966C94.7299 233.966 94.836 233.959 94.9189 233.946C95.0017 233.929 95.068 233.916 95.1177 233.906L95.3564 234.96C95.2768 234.99 95.1658 235.02 95.0233 235.05C94.8807 235.083 94.7001 235.099 94.4814 235.099C94.1499 235.099 93.8251 235.028 93.5069 234.886C93.1921 234.743 92.9302 234.526 92.7214 234.234C92.5159 233.943 92.4132 233.575 92.4132 233.131V225.534ZM96.9821 235V227.364H98.1554V235H96.9821ZM97.5787 226.091C97.35 226.091 97.1528 226.013 96.987 225.857C96.8246 225.701 96.7434 225.514 96.7434 225.295C96.7434 225.077 96.8246 224.889 96.987 224.734C97.1528 224.578 97.35 224.5 97.5787 224.5C97.8074 224.5 98.0029 224.578 98.1653 224.734C98.331 224.889 98.4139 225.077 98.4139 225.295C98.4139 225.514 98.331 225.701 98.1653 225.857C98.0029 226.013 97.8074 226.091 97.5787 226.091ZM100.304 235V227.364H101.438V228.557H101.537C101.696 228.149 101.953 227.833 102.308 227.607C102.663 227.379 103.088 227.264 103.586 227.264C104.089 227.264 104.509 227.379 104.843 227.607C105.181 227.833 105.445 228.149 105.634 228.557H105.713C105.909 228.162 106.202 227.849 106.593 227.617C106.984 227.382 107.453 227.264 108 227.264C108.683 227.264 109.242 227.478 109.676 227.906C110.11 228.33 110.327 228.991 110.327 229.889V235H109.154V229.889C109.154 229.326 109 228.923 108.691 228.681C108.383 228.439 108.02 228.318 107.603 228.318C107.066 228.318 106.65 228.481 106.355 228.805C106.06 229.127 105.912 229.535 105.912 230.028V235H104.719V229.77C104.719 229.336 104.578 228.986 104.297 228.721C104.015 228.452 103.652 228.318 103.208 228.318C102.903 228.318 102.618 228.399 102.353 228.562C102.091 228.724 101.879 228.95 101.716 229.238C101.557 229.523 101.478 229.853 101.478 230.227V235H100.304ZM115.674 235.159C114.938 235.159 114.304 234.997 113.77 234.672C113.24 234.344 112.83 233.886 112.542 233.3C112.257 232.71 112.114 232.024 112.114 231.241C112.114 230.459 112.257 229.77 112.542 229.173C112.83 228.573 113.231 228.106 113.745 227.771C114.262 227.433 114.865 227.264 115.555 227.264C115.952 227.264 116.345 227.33 116.733 227.463C117.121 227.596 117.474 227.811 117.792 228.109C118.11 228.404 118.364 228.795 118.553 229.283C118.741 229.77 118.836 230.37 118.836 231.082V231.58H112.95V230.565H117.643C117.643 230.134 117.557 229.75 117.384 229.412C117.215 229.074 116.973 228.807 116.658 228.612C116.347 228.416 115.979 228.318 115.555 228.318C115.087 228.318 114.683 228.434 114.342 228.666C114.004 228.895 113.743 229.193 113.561 229.561C113.379 229.929 113.288 230.323 113.288 230.744V231.42C113.288 231.997 113.387 232.486 113.586 232.887C113.788 233.285 114.068 233.588 114.426 233.797C114.784 234.002 115.2 234.105 115.674 234.105C115.982 234.105 116.261 234.062 116.509 233.976C116.761 233.886 116.978 233.754 117.161 233.578C117.343 233.399 117.484 233.177 117.583 232.912L118.717 233.23C118.597 233.615 118.397 233.953 118.115 234.244C117.833 234.533 117.485 234.758 117.071 234.92C116.657 235.08 116.191 235.159 115.674 235.159ZM8.16832 244.364V245.358H4.21094V244.364H8.16832ZM5.36435 242.534H6.53764V249.812C6.53764 250.144 6.5857 250.393 6.68182 250.558C6.78125 250.721 6.9072 250.83 7.05966 250.886C7.21544 250.939 7.3795 250.966 7.55185 250.966C7.68111 250.966 7.78717 250.959 7.87003 250.946C7.95289 250.929 8.01918 250.916 8.06889 250.906L8.30753 251.96C8.22798 251.99 8.11695 252.02 7.97443 252.05C7.83191 252.083 7.65128 252.099 7.43253 252.099C7.10109 252.099 6.77628 252.028 6.4581 251.886C6.14323 251.743 5.88139 251.526 5.67259 251.234C5.46709 250.943 5.36435 250.575 5.36435 250.131V242.534ZM12.9535 252.159C12.2641 252.159 11.6592 251.995 11.1388 251.667C10.6218 251.339 10.2174 250.88 9.92578 250.29C9.63743 249.7 9.49325 249.01 9.49325 248.222C9.49325 247.426 9.63743 246.732 9.92578 246.138C10.2174 245.545 10.6218 245.085 11.1388 244.756C11.6592 244.428 12.2641 244.264 12.9535 244.264C13.6429 244.264 14.2461 244.428 14.7631 244.756C15.2835 245.085 15.6879 245.545 15.9762 246.138C16.2679 246.732 16.4137 247.426 16.4137 248.222C16.4137 249.01 16.2679 249.7 15.9762 250.29C15.6879 250.88 15.2835 251.339 14.7631 251.667C14.2461 251.995 13.6429 252.159 12.9535 252.159ZM12.9535 251.105C13.4772 251.105 13.908 250.971 14.2461 250.702C14.5842 250.434 14.8344 250.081 14.9968 249.643C15.1592 249.206 15.2404 248.732 15.2404 248.222C15.2404 247.711 15.1592 247.236 14.9968 246.795C14.8344 246.354 14.5842 245.998 14.2461 245.726C13.908 245.454 13.4772 245.318 12.9535 245.318C12.4298 245.318 11.9989 245.454 11.6609 245.726C11.3228 245.998 11.0726 246.354 10.9102 246.795C10.7478 247.236 10.6665 247.711 10.6665 248.222C10.6665 248.732 10.7478 249.206 10.9102 249.643C11.0726 250.081 11.3228 250.434 11.6609 250.702C11.9989 250.971 12.4298 251.105 12.9535 251.105ZM26.9547 248.878V244.364H28.128V252H26.9547V250.707H26.8752C26.6962 251.095 26.4178 251.425 26.04 251.697C25.6621 251.965 25.1848 252.099 24.6081 252.099C24.1309 252.099 23.7066 251.995 23.3354 251.786C22.9642 251.574 22.6725 251.256 22.4604 250.832C22.2483 250.404 22.1422 249.866 22.1422 249.216V244.364H23.3155V249.136C23.3155 249.693 23.4713 250.137 23.7828 250.469C24.0977 250.8 24.4988 250.966 24.986 250.966C25.2776 250.966 25.5743 250.891 25.8759 250.742C26.1808 250.593 26.436 250.364 26.6415 250.056C26.8503 249.748 26.9547 249.355 26.9547 248.878ZM31.4503 247.406V252H30.277V244.364H31.4105V245.557H31.5099C31.6889 245.169 31.9607 244.857 32.3253 244.622C32.6899 244.384 33.1605 244.264 33.7372 244.264C34.2543 244.264 34.7067 244.37 35.0945 244.582C35.4822 244.791 35.7839 245.109 35.9993 245.537C36.2147 245.961 36.3224 246.498 36.3224 247.148V252H35.1491V247.227C35.1491 246.627 34.9934 246.16 34.6818 245.825C34.3703 245.487 33.9427 245.318 33.3991 245.318C33.0246 245.318 32.6899 245.399 32.3949 245.562C32.1032 245.724 31.8729 245.961 31.7038 246.273C31.5348 246.584 31.4503 246.962 31.4503 247.406ZM41.35 252.159C40.7136 252.159 40.1518 251.998 39.6646 251.677C39.1774 251.352 38.7962 250.895 38.5211 250.305C38.246 249.711 38.1085 249.01 38.1085 248.202C38.1085 247.4 38.246 246.704 38.5211 246.114C38.7962 245.524 39.179 245.068 39.6696 244.746C40.1601 244.425 40.7269 244.264 41.3699 244.264C41.867 244.264 42.2598 244.347 42.5481 244.513C42.8398 244.675 43.0618 244.861 43.2143 245.07C43.3701 245.275 43.4911 245.444 43.5772 245.577H43.6767V241.818H44.85V252H43.7164V250.827H43.5772C43.4911 250.966 43.3684 251.142 43.2093 251.354C43.0502 251.562 42.8232 251.75 42.5282 251.915C42.2333 252.078 41.8405 252.159 41.35 252.159ZM41.5091 251.105C41.9797 251.105 42.3774 250.982 42.7022 250.737C43.027 250.489 43.274 250.146 43.443 249.708C43.612 249.267 43.6966 248.759 43.6966 248.182C43.6966 247.612 43.6137 247.113 43.448 246.685C43.2823 246.254 43.037 245.92 42.7122 245.681C42.3874 245.439 41.9863 245.318 41.5091 245.318C41.0119 245.318 40.5976 245.446 40.2662 245.701C39.938 245.953 39.6911 246.296 39.5254 246.73C39.363 247.161 39.2818 247.645 39.2818 248.182C39.2818 248.725 39.3646 249.219 39.5304 249.663C39.6994 250.104 39.948 250.455 40.2761 250.717C40.6075 250.976 41.0185 251.105 41.5091 251.105ZM50.3635 252.159C49.6277 252.159 48.993 251.997 48.4593 251.672C47.929 251.344 47.5197 250.886 47.2314 250.3C46.9463 249.71 46.8038 249.024 46.8038 248.241C46.8038 247.459 46.9463 246.77 47.2314 246.173C47.5197 245.573 47.9208 245.106 48.4345 244.771C48.9515 244.433 49.5547 244.264 50.2441 244.264C50.6419 244.264 51.0346 244.33 51.4224 244.463C51.8102 244.596 52.1632 244.811 52.4814 245.109C52.7995 245.404 53.0531 245.795 53.242 246.283C53.4309 246.77 53.5254 247.37 53.5254 248.082V248.58H47.639V247.565H52.3322C52.3322 247.134 52.246 246.75 52.0737 246.412C51.9047 246.074 51.6627 245.807 51.3478 245.612C51.0363 245.416 50.6684 245.318 50.2441 245.318C49.7768 245.318 49.3725 245.434 49.0311 245.666C48.693 245.895 48.4328 246.193 48.2505 246.561C48.0682 246.929 47.9771 247.323 47.9771 247.744V248.42C47.9771 248.997 48.0765 249.486 48.2754 249.887C48.4776 250.285 48.7576 250.588 49.1156 250.797C49.4735 251.002 49.8895 251.105 50.3635 251.105C50.6717 251.105 50.9501 251.062 51.1987 250.976C51.4506 250.886 51.6677 250.754 51.85 250.578C52.0323 250.399 52.1731 250.177 52.2725 249.912L53.4061 250.23C53.2868 250.615 53.0862 250.953 52.8045 251.244C52.5228 251.533 52.1748 251.758 51.7605 251.92C51.3462 252.08 50.8805 252.159 50.3635 252.159ZM55.3102 252V244.364H56.4437V245.517H56.5233C56.6625 245.139 56.9144 244.833 57.2789 244.597C57.6435 244.362 58.0545 244.244 58.5119 244.244C58.5981 244.244 58.7058 244.246 58.835 244.249C58.9643 244.253 59.0621 244.258 59.1284 244.264V245.457C59.0886 245.447 58.9975 245.433 58.8549 245.413C58.7157 245.389 58.5682 245.378 58.4125 245.378C58.0413 245.378 57.7098 245.456 57.4181 245.612C57.1298 245.764 56.9011 245.976 56.7321 246.248C56.5663 246.516 56.4835 246.823 56.4835 247.168V252H55.3102ZM65.9283 246.074L64.8743 246.372C64.808 246.196 64.7102 246.026 64.581 245.86C64.455 245.691 64.2827 245.552 64.0639 245.442C63.8452 245.333 63.5651 245.278 63.2237 245.278C62.7564 245.278 62.367 245.386 62.0554 245.602C61.7472 245.814 61.593 246.084 61.593 246.412C61.593 246.704 61.6991 246.934 61.9112 247.103C62.1233 247.272 62.4548 247.413 62.9055 247.526L64.0391 247.804C64.7218 247.97 65.2306 248.223 65.5653 248.565C65.9001 248.903 66.0675 249.339 66.0675 249.872C66.0675 250.31 65.9415 250.701 65.6896 251.045C65.4411 251.39 65.093 251.662 64.6456 251.861C64.1982 252.06 63.6778 252.159 63.0845 252.159C62.3056 252.159 61.661 251.99 61.1506 251.652C60.6402 251.314 60.317 250.82 60.1811 250.17L61.2947 249.892C61.4008 250.303 61.6013 250.611 61.8963 250.817C62.1946 251.022 62.584 251.125 63.0646 251.125C63.6115 251.125 64.0457 251.009 64.3672 250.777C64.692 250.542 64.8544 250.26 64.8544 249.932C64.8544 249.667 64.7616 249.445 64.576 249.266C64.3904 249.083 64.1054 248.947 63.7209 248.858L62.4482 248.56C61.7488 248.394 61.2351 248.137 60.907 247.789C60.5821 247.438 60.4197 246.999 60.4197 246.472C60.4197 246.041 60.5407 245.66 60.7827 245.328C61.0279 244.997 61.361 244.737 61.782 244.548C62.2062 244.359 62.6868 244.264 63.2237 244.264C63.9794 244.264 64.5727 244.43 65.0036 244.761C65.4377 245.093 65.746 245.53 65.9283 246.074ZM71.1547 244.364V245.358H67.1973V244.364H71.1547ZM68.3507 242.534H69.524V249.812C69.524 250.144 69.572 250.393 69.6681 250.558C69.7676 250.721 69.8935 250.83 70.046 250.886C70.2018 250.939 70.3658 250.966 70.5382 250.966C70.6674 250.966 70.7735 250.959 70.8564 250.946C70.9392 250.929 71.0055 250.916 71.0552 250.906L71.2939 251.96C71.2143 251.99 71.1033 252.02 70.9608 252.05C70.8182 252.083 70.6376 252.099 70.4189 252.099C70.0874 252.099 69.7626 252.028 69.4444 251.886C69.1296 251.743 68.8677 251.526 68.6589 251.234C68.4534 250.943 68.3507 250.575 68.3507 250.131V242.534ZM75.1667 252.179C74.6828 252.179 74.2437 252.088 73.8493 251.906C73.4548 251.72 73.1416 251.453 72.9096 251.105C72.6776 250.754 72.5616 250.33 72.5616 249.832C72.5616 249.395 72.6478 249.04 72.8201 248.768C72.9925 248.493 73.2228 248.278 73.5112 248.122C73.7995 247.966 74.1177 247.85 74.4657 247.774C74.8171 247.695 75.17 247.632 75.5247 247.585C75.9887 247.526 76.3649 247.481 76.6532 247.451C76.9449 247.418 77.157 247.363 77.2896 247.287C77.4255 247.211 77.4934 247.078 77.4934 246.889V246.849C77.4934 246.359 77.3592 245.978 77.0907 245.706C76.8256 245.434 76.4229 245.298 75.8826 245.298C75.3225 245.298 74.8833 245.421 74.5652 245.666C74.247 245.911 74.0233 246.173 73.894 246.452L72.7804 246.054C72.9792 245.59 73.2444 245.229 73.5758 244.97C73.9106 244.708 74.2752 244.526 74.6696 244.423C75.0673 244.317 75.4584 244.264 75.8429 244.264C76.0881 244.264 76.3699 244.294 76.688 244.354C77.0095 244.41 77.3194 244.528 77.6177 244.707C77.9193 244.886 78.1696 245.156 78.3684 245.517C78.5673 245.878 78.6667 246.362 78.6667 246.969V252H77.4934V250.966H77.4338C77.3542 251.132 77.2217 251.309 77.036 251.498C76.8504 251.687 76.6035 251.848 76.2953 251.98C75.987 252.113 75.6109 252.179 75.1667 252.179ZM75.3457 251.125C75.8097 251.125 76.2008 251.034 76.519 250.852C76.8405 250.669 77.0824 250.434 77.2449 250.146C77.4106 249.857 77.4934 249.554 77.4934 249.236V248.162C77.4437 248.222 77.3343 248.276 77.1653 248.326C76.9996 248.372 76.8074 248.414 76.5886 248.45C76.3732 248.483 76.1627 248.513 75.9572 248.54C75.755 248.563 75.591 248.583 75.465 248.599C75.1601 248.639 74.8751 248.704 74.6099 248.793C74.3481 248.879 74.1359 249.01 73.9735 249.186C73.8145 249.358 73.7349 249.594 73.7349 249.892C73.7349 250.3 73.8857 250.608 74.1873 250.817C74.4922 251.022 74.8784 251.125 75.3457 251.125ZM81.9815 247.406V252H80.8082V244.364H81.9418V245.557H82.0412C82.2202 245.169 82.492 244.857 82.8565 244.622C83.2211 244.384 83.6918 244.264 84.2685 244.264C84.7855 244.264 85.2379 244.37 85.6257 244.582C86.0135 244.791 86.3151 245.109 86.5305 245.537C86.746 245.961 86.8537 246.498 86.8537 247.148V252H85.6804V247.227C85.6804 246.627 85.5246 246.16 85.2131 245.825C84.9015 245.487 84.474 245.318 83.9304 245.318C83.5559 245.318 83.2211 245.399 82.9261 245.562C82.6345 245.724 82.4041 245.961 82.2351 246.273C82.0661 246.584 81.9815 246.962 81.9815 247.406ZM91.8812 252.159C91.2449 252.159 90.6831 251.998 90.1958 251.677C89.7086 251.352 89.3275 250.895 89.0524 250.305C88.7773 249.711 88.6397 249.01 88.6397 248.202C88.6397 247.4 88.7773 246.704 89.0524 246.114C89.3275 245.524 89.7103 245.068 90.2008 244.746C90.6913 244.425 91.2581 244.264 91.9011 244.264C92.3983 244.264 92.791 244.347 93.0794 244.513C93.371 244.675 93.5931 244.861 93.7456 245.07C93.9013 245.275 94.0223 245.444 94.1085 245.577H94.2079V241.818H95.3812V252H94.2477V250.827H94.1085C94.0223 250.966 93.8997 251.142 93.7406 251.354C93.5815 251.562 93.3545 251.75 93.0595 251.915C92.7645 252.078 92.3717 252.159 91.8812 252.159ZM92.0403 251.105C92.5109 251.105 92.9087 250.982 93.2335 250.737C93.5583 250.489 93.8052 250.146 93.9743 249.708C94.1433 249.267 94.2278 248.759 94.2278 248.182C94.2278 247.612 94.1449 247.113 93.9792 246.685C93.8135 246.254 93.5682 245.92 93.2434 245.681C92.9186 245.439 92.5176 245.318 92.0403 245.318C91.5431 245.318 91.1288 245.446 90.7974 245.701C90.4693 245.953 90.2224 246.296 90.0566 246.73C89.8942 247.161 89.813 247.645 89.813 248.182C89.813 248.725 89.8959 249.219 90.0616 249.663C90.2306 250.104 90.4792 250.455 90.8074 250.717C91.1388 250.976 91.5498 251.105 92.0403 251.105ZM104.952 244.364V245.358H100.994V244.364H104.952ZM102.148 242.534H103.321V249.812C103.321 250.144 103.369 250.393 103.465 250.558C103.564 250.721 103.69 250.83 103.843 250.886C103.999 250.939 104.163 250.966 104.335 250.966C104.464 250.966 104.57 250.959 104.653 250.946C104.736 250.929 104.802 250.916 104.852 250.906L105.091 251.96C105.011 251.99 104.9 252.02 104.758 252.05C104.615 252.083 104.434 252.099 104.216 252.099C103.884 252.099 103.559 252.028 103.241 251.886C102.926 251.743 102.665 251.526 102.456 251.234C102.25 250.943 102.148 250.575 102.148 250.131V242.534ZM108.054 247.406V252H106.881V241.818H108.054V245.557H108.153C108.332 245.162 108.601 244.849 108.959 244.617C109.32 244.382 109.8 244.264 110.4 244.264C110.921 244.264 111.376 244.369 111.768 244.577C112.159 244.783 112.462 245.099 112.677 245.527C112.896 245.951 113.006 246.491 113.006 247.148V252H111.832V247.227C111.832 246.621 111.675 246.152 111.36 245.82C111.048 245.486 110.616 245.318 110.062 245.318C109.678 245.318 109.333 245.399 109.028 245.562C108.727 245.724 108.488 245.961 108.312 246.273C108.14 246.584 108.054 246.962 108.054 247.406ZM118.354 252.159C117.618 252.159 116.983 251.997 116.45 251.672C115.919 251.344 115.51 250.886 115.222 250.3C114.937 249.71 114.794 249.024 114.794 248.241C114.794 247.459 114.937 246.77 115.222 246.173C115.51 245.573 115.911 245.106 116.425 244.771C116.942 244.433 117.545 244.264 118.234 244.264C118.632 244.264 119.025 244.33 119.413 244.463C119.8 244.596 120.153 244.811 120.472 245.109C120.79 245.404 121.043 245.795 121.232 246.283C121.421 246.77 121.516 247.37 121.516 248.082V248.58H115.629V247.565H120.322C120.322 247.134 120.236 246.75 120.064 246.412C119.895 246.074 119.653 245.807 119.338 245.612C119.027 245.416 118.659 245.318 118.234 245.318C117.767 245.318 117.363 245.434 117.021 245.666C116.683 245.895 116.423 246.193 116.241 246.561C116.058 246.929 115.967 247.323 115.967 247.744V248.42C115.967 248.997 116.067 249.486 116.266 249.887C116.468 250.285 116.748 250.588 117.106 250.797C117.464 251.002 117.88 251.105 118.354 251.105C118.662 251.105 118.94 251.062 119.189 250.976C119.441 250.886 119.658 250.754 119.84 250.578C120.022 250.399 120.163 250.177 120.263 249.912L121.396 250.23C121.277 250.615 121.076 250.953 120.795 251.244C120.513 251.533 120.165 251.758 119.751 251.92C119.336 252.08 118.871 252.159 118.354 252.159ZM23.932 261.364V262.358H19.9746V261.364H23.932ZM21.128 259.534H22.3013V266.812C22.3013 267.144 22.3494 267.393 22.4455 267.558C22.5449 267.721 22.6709 267.83 22.8233 267.886C22.9791 267.939 23.1432 267.966 23.3155 267.966C23.4448 267.966 23.5508 267.959 23.6337 267.946C23.7166 267.929 23.7828 267.916 23.8326 267.906L24.0712 268.96C23.9917 268.99 23.8806 269.02 23.7381 269.05C23.5956 269.083 23.415 269.099 23.1962 269.099C22.8648 269.099 22.54 269.028 22.2218 268.886C21.9069 268.743 21.6451 268.526 21.4363 268.234C21.2308 267.943 21.128 267.575 21.128 267.131V259.534ZM28.7172 269.159C28.0278 269.159 27.4229 268.995 26.9025 268.667C26.3855 268.339 25.9811 267.88 25.6895 267.29C25.4011 266.7 25.2569 266.01 25.2569 265.222C25.2569 264.426 25.4011 263.732 25.6895 263.138C25.9811 262.545 26.3855 262.085 26.9025 261.756C27.4229 261.428 28.0278 261.264 28.7172 261.264C29.4065 261.264 30.0098 261.428 30.5268 261.756C31.0472 262.085 31.4515 262.545 31.7399 263.138C32.0315 263.732 32.1774 264.426 32.1774 265.222C32.1774 266.01 32.0315 266.7 31.7399 267.29C31.4515 267.88 31.0472 268.339 30.5268 268.667C30.0098 268.995 29.4065 269.159 28.7172 269.159ZM28.7172 268.105C29.2408 268.105 29.6717 267.971 30.0098 267.702C30.3478 267.434 30.5981 267.081 30.7605 266.643C30.9229 266.206 31.0041 265.732 31.0041 265.222C31.0041 264.711 30.9229 264.236 30.7605 263.795C30.5981 263.354 30.3478 262.998 30.0098 262.726C29.6717 262.454 29.2408 262.318 28.7172 262.318C28.1935 262.318 27.7626 262.454 27.4245 262.726C27.0865 262.998 26.8362 263.354 26.6738 263.795C26.5114 264.236 26.4302 264.711 26.4302 265.222C26.4302 265.732 26.5114 266.206 26.6738 266.643C26.8362 267.081 27.0865 267.434 27.4245 267.702C27.7626 267.971 28.1935 268.105 28.7172 268.105ZM33.9684 271.864V261.364H35.1019V262.577H35.2411C35.3273 262.444 35.4466 262.275 35.5991 262.07C35.7549 261.861 35.9769 261.675 36.2653 261.513C36.5569 261.347 36.9513 261.264 37.4485 261.264C38.0915 261.264 38.6583 261.425 39.1488 261.746C39.6393 262.068 40.0221 262.524 40.2972 263.114C40.5723 263.704 40.7099 264.4 40.7099 265.202C40.7099 266.01 40.5723 266.711 40.2972 267.305C40.0221 267.895 39.641 268.352 39.1538 268.677C38.6665 268.998 38.1048 269.159 37.4684 269.159C36.9779 269.159 36.5851 269.078 36.2901 268.915C35.9951 268.75 35.7681 268.562 35.609 268.354C35.4499 268.142 35.3273 267.966 35.2411 267.827H35.1417V271.864H33.9684ZM35.1218 265.182C35.1218 265.759 35.2063 266.267 35.3754 266.708C35.5444 267.146 35.7913 267.489 36.1161 267.737C36.4409 267.982 36.8387 268.105 37.3093 268.105C37.7998 268.105 38.2092 267.976 38.5373 267.717C38.8687 267.455 39.1173 267.104 39.283 266.663C39.4521 266.219 39.5366 265.725 39.5366 265.182C39.5366 264.645 39.4537 264.161 39.288 263.73C39.1256 263.296 38.8787 262.953 38.5472 262.701C38.2191 262.446 37.8065 262.318 37.3093 262.318C36.832 262.318 36.431 262.439 36.1062 262.681C35.7814 262.92 35.5361 263.254 35.3704 263.685C35.2047 264.113 35.1218 264.612 35.1218 265.182ZM42.4996 269V261.364H43.6729V269H42.4996ZM43.0962 260.091C42.8675 260.091 42.6703 260.013 42.5046 259.857C42.3422 259.701 42.261 259.514 42.261 259.295C42.261 259.077 42.3422 258.889 42.5046 258.734C42.6703 258.578 42.8675 258.5 43.0962 258.5C43.3249 258.5 43.5205 258.578 43.6829 258.734C43.8486 258.889 43.9315 259.077 43.9315 259.295C43.9315 259.514 43.8486 259.701 43.6829 259.857C43.5205 260.013 43.3249 260.091 43.0962 260.091ZM48.9242 269.159C48.2083 269.159 47.5918 268.99 47.0748 268.652C46.5577 268.314 46.16 267.848 45.8816 267.255C45.6032 266.662 45.464 265.984 45.464 265.222C45.464 264.446 45.6065 263.762 45.8915 263.168C46.1799 262.572 46.5809 262.106 47.0946 261.771C47.6117 261.433 48.2149 261.264 48.9043 261.264C49.4412 261.264 49.9251 261.364 50.356 261.562C50.7869 261.761 51.1399 262.04 51.415 262.398C51.69 262.756 51.8607 263.173 51.927 263.651H50.7537C50.6642 263.303 50.4654 262.994 50.1571 262.726C49.8522 262.454 49.4412 262.318 48.9242 262.318C48.4668 262.318 48.0658 262.437 47.7211 262.676C47.3797 262.911 47.1129 263.245 46.9206 263.675C46.7317 264.103 46.6373 264.605 46.6373 265.182C46.6373 265.772 46.7301 266.286 46.9157 266.723C47.1046 267.161 47.3697 267.5 47.7111 267.742C48.0558 267.984 48.4602 268.105 48.9242 268.105C49.2291 268.105 49.5059 268.052 49.7544 267.946C50.003 267.84 50.2135 267.688 50.3858 267.489C50.5582 267.29 50.6808 267.051 50.7537 266.773H51.927C51.8607 267.223 51.6967 267.629 51.4348 267.991C51.1763 268.349 50.8333 268.634 50.4057 268.846C49.9815 269.055 49.4876 269.159 48.9242 269.159ZM59.8269 269.179C59.343 269.179 58.9038 269.088 58.5094 268.906C58.115 268.72 57.8018 268.453 57.5698 268.105C57.3378 267.754 57.2218 267.33 57.2218 266.832C57.2218 266.395 57.3079 266.04 57.4803 265.768C57.6526 265.493 57.883 265.278 58.1713 265.122C58.4597 264.966 58.7779 264.85 59.1259 264.774C59.4772 264.695 59.8302 264.632 60.1848 264.585C60.6489 264.526 61.025 264.481 61.3134 264.451C61.6051 264.418 61.8172 264.363 61.9498 264.287C62.0856 264.211 62.1536 264.078 62.1536 263.889V263.849C62.1536 263.359 62.0194 262.978 61.7509 262.706C61.4857 262.434 61.083 262.298 60.5428 262.298C59.9827 262.298 59.5435 262.421 59.2253 262.666C58.9071 262.911 58.6834 263.173 58.5542 263.452L57.4405 263.054C57.6394 262.59 57.9045 262.229 58.236 261.97C58.5707 261.708 58.9353 261.526 59.3297 261.423C59.7275 261.317 60.1185 261.264 60.503 261.264C60.7483 261.264 61.03 261.294 61.3482 261.354C61.6697 261.41 61.9796 261.528 62.2779 261.707C62.5795 261.886 62.8297 262.156 63.0286 262.517C63.2275 262.878 63.3269 263.362 63.3269 263.969V269H62.1536V267.966H62.0939C62.0144 268.132 61.8818 268.309 61.6962 268.498C61.5106 268.687 61.2637 268.848 60.9554 268.98C60.6472 269.113 60.271 269.179 59.8269 269.179ZM60.0059 268.125C60.4699 268.125 60.861 268.034 61.1792 267.852C61.5007 267.669 61.7426 267.434 61.905 267.146C62.0707 266.857 62.1536 266.554 62.1536 266.236V265.162C62.1039 265.222 61.9945 265.276 61.8255 265.326C61.6597 265.372 61.4675 265.414 61.2488 265.45C61.0333 265.483 60.8229 265.513 60.6174 265.54C60.4152 265.563 60.2511 265.583 60.1252 265.599C59.8203 265.639 59.5352 265.704 59.2701 265.793C59.0082 265.879 58.7961 266.01 58.6337 266.186C58.4746 266.358 58.3951 266.594 58.3951 266.892C58.3951 267.3 58.5459 267.608 58.8475 267.817C59.1524 268.022 59.5385 268.125 60.0059 268.125ZM68.7894 261.364V262.358H64.832V261.364H68.7894ZM65.9854 259.534H67.1587V266.812C67.1587 267.144 67.2068 267.393 67.3029 267.558C67.4023 267.721 67.5283 267.83 67.6808 267.886C67.8365 267.939 68.0006 267.966 68.1729 267.966C68.3022 267.966 68.4083 267.959 68.4911 267.946C68.574 267.929 68.6403 267.916 68.69 267.906L68.9286 268.96C68.8491 268.99 68.738 269.02 68.5955 269.05C68.453 269.083 68.2724 269.099 68.0536 269.099C67.7222 269.099 67.3974 269.028 67.0792 268.886C66.7643 268.743 66.5025 268.526 66.2937 268.234C66.0882 267.943 65.9854 267.575 65.9854 267.131V259.534ZM75.6651 264.406V269H74.4918V258.818H75.6651V262.557H75.7646C75.9435 262.162 76.212 261.849 76.57 261.617C76.9312 261.382 77.4118 261.264 78.0117 261.264C78.5321 261.264 78.9878 261.369 79.3789 261.577C79.77 261.783 80.0733 262.099 80.2887 262.527C80.5075 262.951 80.6168 263.491 80.6168 264.148V269H79.4435V264.227C79.4435 263.621 79.2861 263.152 78.9712 262.82C78.6597 262.486 78.2272 262.318 77.6737 262.318C77.2892 262.318 76.9445 262.399 76.6396 262.562C76.3379 262.724 76.0993 262.961 75.9237 263.273C75.7513 263.584 75.6651 263.962 75.6651 264.406ZM85.0105 269.179C84.5266 269.179 84.0874 269.088 83.693 268.906C83.2986 268.72 82.9854 268.453 82.7534 268.105C82.5214 267.754 82.4054 267.33 82.4054 266.832C82.4054 266.395 82.4915 266.04 82.6639 265.768C82.8362 265.493 83.0666 265.278 83.3549 265.122C83.6433 264.966 83.9615 264.85 84.3095 264.774C84.6608 264.695 85.0138 264.632 85.3684 264.585C85.8324 264.526 86.2086 264.481 86.497 264.451C86.7886 264.418 87.0008 264.363 87.1333 264.287C87.2692 264.211 87.3372 264.078 87.3372 263.889V263.849C87.3372 263.359 87.2029 262.978 86.9345 262.706C86.6693 262.434 86.2666 262.298 85.7264 262.298C85.1663 262.298 84.7271 262.421 84.4089 262.666C84.0907 262.911 83.867 263.173 83.7377 263.452L82.6241 263.054C82.823 262.59 83.0881 262.229 83.4196 261.97C83.7543 261.708 84.1189 261.526 84.5133 261.423C84.911 261.317 85.3021 261.264 85.6866 261.264C85.9319 261.264 86.2136 261.294 86.5318 261.354C86.8533 261.41 87.1632 261.528 87.4615 261.707C87.7631 261.886 88.0133 262.156 88.2122 262.517C88.411 262.878 88.5105 263.362 88.5105 263.969V269H87.3372V267.966H87.2775C87.198 268.132 87.0654 268.309 86.8798 268.498C86.6942 268.687 86.4473 268.848 86.139 268.98C85.8308 269.113 85.4546 269.179 85.0105 269.179ZM85.1895 268.125C85.6535 268.125 86.0446 268.034 86.3627 267.852C86.6842 267.669 86.9262 267.434 87.0886 267.146C87.2543 266.857 87.3372 266.554 87.3372 266.236V265.162C87.2875 265.222 87.1781 265.276 87.0091 265.326C86.8433 265.372 86.6511 265.414 86.4324 265.45C86.2169 265.483 86.0065 265.513 85.801 265.54C85.5988 265.563 85.4347 265.583 85.3088 265.599C85.0038 265.639 84.7188 265.704 84.4537 265.793C84.1918 265.879 83.9797 266.01 83.8173 266.186C83.6582 266.358 83.5787 266.594 83.5787 266.892C83.5787 267.3 83.7295 267.608 84.0311 267.817C84.336 268.022 84.7221 268.125 85.1895 268.125ZM91.8253 264.406V269H90.652V261.364H91.7855V262.557H91.8849C92.0639 262.169 92.3357 261.857 92.7003 261.622C93.0649 261.384 93.5355 261.264 94.1122 261.264C94.6293 261.264 95.0817 261.37 95.4695 261.582C95.8572 261.791 96.1589 262.109 96.3743 262.537C96.5897 262.961 96.6974 263.498 96.6974 264.148V269H95.5241V264.227C95.5241 263.627 95.3684 263.16 95.0568 262.825C94.7453 262.487 94.3177 262.318 93.7741 262.318C93.3996 262.318 93.0649 262.399 92.7699 262.562C92.4782 262.724 92.2479 262.961 92.0788 263.273C91.9098 263.584 91.8253 263.962 91.8253 264.406ZM101.725 269.159C101.089 269.159 100.527 268.998 100.04 268.677C99.5524 268.352 99.1712 267.895 98.8961 267.305C98.621 266.711 98.4835 266.01 98.4835 265.202C98.4835 264.4 98.621 263.704 98.8961 263.114C99.1712 262.524 99.554 262.068 100.045 261.746C100.535 261.425 101.102 261.264 101.745 261.264C102.242 261.264 102.635 261.347 102.923 261.513C103.215 261.675 103.437 261.861 103.589 262.07C103.745 262.275 103.866 262.444 103.952 262.577H104.052V258.818H105.225V269H104.091V267.827H103.952C103.866 267.966 103.743 268.142 103.584 268.354C103.425 268.562 103.198 268.75 102.903 268.915C102.608 269.078 102.215 269.159 101.725 269.159ZM101.884 268.105C102.355 268.105 102.752 267.982 103.077 267.737C103.402 267.489 103.649 267.146 103.818 266.708C103.987 266.267 104.072 265.759 104.072 265.182C104.072 264.612 103.989 264.113 103.823 263.685C103.657 263.254 103.412 262.92 103.087 262.681C102.762 262.439 102.361 262.318 101.884 262.318C101.387 262.318 100.973 262.446 100.641 262.701C100.313 262.953 100.066 263.296 99.9004 263.73C99.738 264.161 99.6568 264.645 99.6568 265.182C99.6568 265.725 99.7396 266.219 99.9054 266.663C100.074 267.104 100.323 267.455 100.651 267.717C100.983 267.976 101.394 268.105 101.884 268.105Z" fill="white"/>
<path d="M61.5 215C61.5 215.828 62.1716 216.5 63 216.5C63.8284 216.5 64.5 215.828 64.5 215H61.5ZM64.0607 0.939325C63.4749 0.353538 62.5251 0.353538 61.9393 0.939325L52.3934 10.4853C51.8076 11.0711 51.8076 12.0208 52.3934 12.6066C52.9792 13.1924 53.9289 13.1924 54.5147 12.6066L63 4.12131L71.4853 12.6066C72.0711 13.1924 73.0208 13.1924 73.6066 12.6066C74.1924 12.0208 74.1924 11.0711 73.6066 10.4853L64.0607 0.939325ZM64.5 215L64.5 1.99998H61.5L61.5 215H64.5Z" fill="white"/>
</svg>
