<svg width="249" height="102" viewBox="0 0 249 102" fill="none" xmlns="http://www.w3.org/2000/svg">
<path d="M12.0461 48.997L236.951 49.1856M236.951 49.1856L196.001 12.0513M236.951 49.1856L196.001 89.051" stroke="url(#paint0_linear_5_28)" stroke-width="24" stroke-linecap="round" stroke-linejoin="round"/>
<path d="M12.9834 52V41.8182H17.3783C18.134 41.8182 18.7952 41.9557 19.3619 42.2308C19.9287 42.5059 20.3695 42.902 20.6844 43.419C20.9993 43.9361 21.1567 44.5559 21.1567 45.2784C21.1567 46.0076 20.9943 46.6224 20.6695 47.1229C20.348 47.6233 19.8956 48.0012 19.3122 48.2564C18.7322 48.5116 18.0544 48.6392 17.2789 48.6392H14.6539V46.4915H16.722C17.0468 46.4915 17.3236 46.4517 17.5523 46.3722C17.7843 46.2893 17.9616 46.1584 18.0843 45.9794C18.2102 45.8004 18.2732 45.5668 18.2732 45.2784C18.2732 44.9867 18.2102 44.7498 18.0843 44.5675C17.9616 44.3819 17.7843 44.246 17.5523 44.1598C17.3236 44.0703 17.0468 44.0256 16.722 44.0256H15.7476V52H12.9834ZM18.9493 47.3267L21.4948 52H18.4919L16.0061 47.3267H18.9493ZM25.8698 52.1392C25.0544 52.1392 24.3518 51.9834 23.7618 51.6719C23.1752 51.357 22.7227 50.9062 22.4046 50.3196C22.0897 49.7296 21.9323 49.0237 21.9323 48.2017C21.9323 47.4129 22.0914 46.7235 22.4095 46.1335C22.7277 45.5436 23.1768 45.0845 23.7568 44.7564C24.3369 44.4283 25.0213 44.2642 25.8101 44.2642C26.3868 44.2642 26.9088 44.3537 27.3762 44.5327C27.8435 44.7116 28.2429 44.9718 28.5743 45.3132C28.9057 45.6513 29.161 46.0623 29.3399 46.5462C29.5189 47.0301 29.6084 47.5753 29.6084 48.1818V48.8182H22.7874V47.3068H27.0828C27.0795 47.0881 27.0232 46.8958 26.9138 46.7301C26.8077 46.5611 26.6636 46.4302 26.4813 46.3374C26.3023 46.2412 26.0985 46.1932 25.8698 46.1932C25.6477 46.1932 25.4439 46.2412 25.2583 46.3374C25.0727 46.4302 24.9235 46.5594 24.8108 46.7251C24.7014 46.8909 24.6434 47.0848 24.6368 47.3068V48.9375C24.6368 49.1828 24.6882 49.4015 24.7909 49.5938C24.8937 49.786 25.0412 49.9368 25.2334 50.0462C25.4256 50.1555 25.6576 50.2102 25.9294 50.2102C26.1183 50.2102 26.2907 50.1837 26.4465 50.1307C26.6056 50.0777 26.7414 50.0014 26.8541 49.902C26.9668 49.7992 27.0497 49.6766 27.1027 49.5341H29.6084C29.5222 50.0644 29.3184 50.5251 28.9969 50.9162C28.6754 51.304 28.2495 51.6056 27.7192 51.821C27.1922 52.0331 26.5757 52.1392 25.8698 52.1392ZM30.7282 54.8636V44.3636H33.4527V45.696H33.5123C33.6118 45.4375 33.7576 45.2005 33.9498 44.9851C34.1421 44.7663 34.3807 44.5923 34.6657 44.4631C34.9508 44.3305 35.2822 44.2642 35.6601 44.2642C36.1639 44.2642 36.6428 44.3984 37.0969 44.6669C37.5542 44.9354 37.9255 45.358 38.2105 45.9347C38.4988 46.5114 38.643 47.2604 38.643 48.1818C38.643 49.0634 38.5055 49.7943 38.2304 50.3743C37.9586 50.9543 37.594 51.3868 37.1366 51.6719C36.6826 51.9569 36.1837 52.0994 35.6402 52.0994C35.2822 52.0994 34.9624 52.0414 34.6807 51.9254C34.4023 51.8061 34.1636 51.6454 33.9648 51.4432C33.7692 51.2377 33.6184 51.0057 33.5123 50.7472H33.4726V54.8636H30.7282ZM33.4129 48.1818C33.4129 48.553 33.461 48.8745 33.5571 49.1463C33.6565 49.4148 33.7957 49.6236 33.9747 49.7727C34.157 49.9186 34.3741 49.9915 34.626 49.9915C34.8779 49.9915 35.0916 49.9202 35.2673 49.7777C35.4463 49.6319 35.5822 49.4247 35.675 49.1562C35.7711 48.8845 35.8192 48.5597 35.8192 48.1818C35.8192 47.804 35.7711 47.4808 35.675 47.2124C35.5822 46.9406 35.4463 46.7334 35.2673 46.5909C35.0916 46.4451 34.8779 46.3722 34.626 46.3722C34.3741 46.3722 34.157 46.4451 33.9747 46.5909C33.7957 46.7334 33.6565 46.9406 33.5571 47.2124C33.461 47.4808 33.4129 47.804 33.4129 48.1818ZM43.4518 52.1392C42.6365 52.1392 41.9338 51.9834 41.3438 51.6719C40.7572 51.357 40.3048 50.9062 39.9866 50.3196C39.6717 49.7296 39.5143 49.0237 39.5143 48.2017C39.5143 47.4129 39.6734 46.7235 39.9916 46.1335C40.3097 45.5436 40.7588 45.0845 41.3389 44.7564C41.9189 44.4283 42.6033 44.2642 43.3921 44.2642C43.9688 44.2642 44.4909 44.3537 44.9582 44.5327C45.4255 44.7116 45.8249 44.9718 46.1563 45.3132C46.4878 45.6513 46.743 46.0623 46.922 46.5462C47.1009 47.0301 47.1904 47.5753 47.1904 48.1818V48.8182H40.3694V47.3068H44.6649C44.6615 47.0881 44.6052 46.8958 44.4958 46.7301C44.3898 46.5611 44.2456 46.4302 44.0633 46.3374C43.8843 46.2412 43.6805 46.1932 43.4518 46.1932C43.2297 46.1932 43.0259 46.2412 42.8403 46.3374C42.6547 46.4302 42.5055 46.5594 42.3928 46.7251C42.2835 46.8909 42.2255 47.0848 42.2188 47.3068V48.9375C42.2188 49.1828 42.2702 49.4015 42.373 49.5938C42.4757 49.786 42.6232 49.9368 42.8154 50.0462C43.0077 50.1555 43.2397 50.2102 43.5115 50.2102C43.7004 50.2102 43.8727 50.1837 44.0285 50.1307C44.1876 50.0777 44.3235 50.0014 44.4362 49.902C44.5489 49.7992 44.6317 49.6766 44.6847 49.5341H47.1904C47.1043 50.0644 46.9004 50.5251 46.5789 50.9162C46.2574 51.304 45.8315 51.6056 45.3012 51.821C44.7742 52.0331 44.1578 52.1392 43.4518 52.1392ZM50.4381 52.1193C49.9509 52.1193 49.52 52.0398 49.1455 51.8807C48.7743 51.7183 48.4826 51.473 48.2705 51.1449C48.0584 50.8168 47.9523 50.3991 47.9523 49.892C47.9523 49.4744 48.0236 49.1181 48.1661 48.8232C48.3086 48.5249 48.5075 48.2812 48.7627 48.0923C49.0179 47.9034 49.3145 47.7592 49.6526 47.6598C49.994 47.5604 50.3619 47.4957 50.7563 47.4659C51.1839 47.4328 51.5269 47.393 51.7854 47.3466C52.0473 47.2969 52.2362 47.2289 52.3522 47.1428C52.4682 47.0533 52.5262 46.9356 52.5262 46.7898V46.7699C52.5262 46.571 52.45 46.4186 52.2975 46.3125C52.145 46.2064 51.9495 46.1534 51.7108 46.1534C51.449 46.1534 51.2352 46.2114 51.0695 46.3274C50.9071 46.4401 50.8093 46.6141 50.7762 46.8494H48.2506C48.2838 46.3854 48.4313 45.9579 48.6931 45.5668C48.9582 45.1723 49.3444 44.8575 49.8515 44.6222C50.3586 44.3835 50.9916 44.2642 51.7506 44.2642C52.2975 44.2642 52.788 44.3288 53.2222 44.4581C53.6564 44.584 54.026 44.7614 54.3309 44.9901C54.6358 45.2154 54.8678 45.4806 55.0269 45.7855C55.1893 46.0871 55.2705 46.4152 55.2705 46.7699V52H52.7052V50.9261H52.6455C52.493 51.2112 52.3074 51.4415 52.0887 51.6172C51.8733 51.7929 51.6263 51.9205 51.3479 52C51.0728 52.0795 50.7696 52.1193 50.4381 52.1193ZM51.333 50.3892C51.5418 50.3892 51.7374 50.3461 51.9197 50.2599C52.1053 50.1738 52.2561 50.0495 52.3721 49.8871C52.4881 49.7247 52.5461 49.5275 52.5461 49.2955V48.6591C52.4732 48.6889 52.3953 48.7171 52.3124 48.7436C52.2329 48.7701 52.1467 48.795 52.0539 48.8182C51.9644 48.8414 51.8683 48.8629 51.7655 48.8828C51.6661 48.9027 51.5617 48.9209 51.4523 48.9375C51.2402 48.9706 51.0662 49.0253 50.9303 49.1016C50.7977 49.1745 50.6983 49.2656 50.632 49.375C50.569 49.4811 50.5376 49.6004 50.5376 49.733C50.5376 49.9451 50.6121 50.1075 50.7613 50.2202C50.9104 50.3329 51.101 50.3892 51.333 50.3892ZM61.1357 44.3636V46.3523H56.1045V44.3636H61.1357ZM57.0789 42.5341H59.8232V49.544C59.8232 49.6501 59.8415 49.7396 59.8779 49.8125C59.9144 49.8821 59.9707 49.9351 60.047 49.9716C60.1232 50.0047 60.221 50.0213 60.3403 50.0213C60.4231 50.0213 60.5193 50.0114 60.6286 49.9915C60.7413 49.9716 60.8242 49.955 60.8772 49.9418L61.2749 51.8707C61.1523 51.9072 60.9767 51.9519 60.748 52.005C60.5226 52.058 60.2541 52.0928 59.9426 52.1094C59.3128 52.1425 58.7842 52.0779 58.3566 51.9155C57.9291 51.7498 57.6076 51.4896 57.3921 51.1349C57.1767 50.7803 57.0723 50.3362 57.0789 49.8026V42.5341ZM69.1537 46.8494H66.6281C66.6148 46.6937 66.5602 46.5594 66.464 46.4467C66.3679 46.334 66.2436 46.2479 66.0912 46.1882C65.942 46.1252 65.7763 46.0938 65.594 46.0938C65.3587 46.0938 65.1565 46.1368 64.9875 46.223C64.8184 46.3092 64.7356 46.4318 64.7389 46.5909C64.7356 46.7036 64.7836 46.808 64.8831 46.9041C64.9858 47.0002 65.183 47.0748 65.4747 47.1278L67.0258 47.4062C67.808 47.5488 68.3897 47.7891 68.7709 48.1271C69.1553 48.4619 69.3492 48.911 69.3525 49.4744C69.3492 50.018 69.1868 50.4903 68.8653 50.8913C68.5471 51.2891 68.1113 51.5973 67.5578 51.8161C67.0076 52.0315 66.3795 52.1392 65.6736 52.1392C64.5069 52.1392 63.5938 51.9006 62.9342 51.4233C62.278 50.946 61.9117 50.3163 61.8355 49.5341H64.5599C64.5964 49.776 64.7157 49.9633 64.9179 50.0959C65.1234 50.2251 65.3819 50.2898 65.6934 50.2898C65.9453 50.2898 66.1525 50.2467 66.3149 50.1605C66.4806 50.0743 66.5651 49.9517 66.5684 49.7926C66.5651 49.6468 66.4922 49.5308 66.3497 49.4446C66.2105 49.3584 65.9917 49.2888 65.6934 49.2358L64.3412 48.9972C63.5623 48.8613 62.979 48.6027 62.5912 48.2216C62.2034 47.8404 62.0112 47.3499 62.0145 46.75C62.0112 46.2197 62.1504 45.7706 62.4321 45.4027C62.7171 45.0315 63.1231 44.7498 63.6501 44.5575C64.1804 44.362 64.8085 44.2642 65.5344 44.2642C66.6381 44.2642 67.5081 44.4929 68.1444 44.9503C68.7841 45.4077 69.1205 46.0407 69.1537 46.8494ZM72.8749 44.0455V41.8182H81.7243V44.0455H78.6618V52H75.9374V44.0455H72.8749ZM85.5487 47.7045V52H82.8044V41.8182H85.4493V45.8153H85.5289C85.7012 45.3281 85.9879 44.9486 86.3889 44.6768C86.79 44.4018 87.2722 44.2642 87.8357 44.2642C88.3759 44.2642 88.8449 44.3868 89.2426 44.6321C89.6437 44.8774 89.9536 45.2154 90.1723 45.6463C90.3944 46.0772 90.5038 46.571 90.5004 47.1278V52H87.7561V47.7045C87.7594 47.3267 87.665 47.0301 87.4727 46.8146C87.2838 46.5992 87.0137 46.4915 86.6624 46.4915C86.4403 46.4915 86.2448 46.5412 86.0757 46.6406C85.91 46.7367 85.7807 46.8759 85.6879 47.0582C85.5985 47.2372 85.5521 47.4527 85.5487 47.7045ZM91.8552 52V44.3636H94.52V45.8153H94.5995C94.7387 45.2784 94.9591 44.8857 95.2607 44.6371C95.5657 44.3885 95.922 44.2642 96.3296 44.2642C96.449 44.2642 96.5666 44.2741 96.6826 44.294C96.8019 44.3106 96.9163 44.3355 97.0257 44.3686V46.7102C96.8898 46.6638 96.7224 46.629 96.5235 46.6058C96.3247 46.5826 96.154 46.571 96.0115 46.571C95.743 46.571 95.501 46.6323 95.2856 46.755C95.0735 46.8743 94.9061 47.0433 94.7835 47.2621C94.6608 47.4775 94.5995 47.7311 94.5995 48.0227V52H91.8552ZM101.167 52.1392C100.338 52.1392 99.6291 51.9751 99.0392 51.647C98.4492 51.3156 97.9968 50.8549 97.6819 50.2649C97.367 49.6716 97.2096 48.9839 97.2096 48.2017C97.2096 47.4195 97.367 46.7334 97.6819 46.1435C97.9968 45.5502 98.4492 45.0895 99.0392 44.7614C99.6291 44.4299 100.338 44.2642 101.167 44.2642C101.996 44.2642 102.705 44.4299 103.295 44.7614C103.885 45.0895 104.337 45.5502 104.652 46.1435C104.967 46.7334 105.124 47.4195 105.124 48.2017C105.124 48.9839 104.967 49.6716 104.652 50.2649C104.337 50.8549 103.885 51.3156 103.295 51.647C102.705 51.9751 101.996 52.1392 101.167 52.1392ZM101.187 50.1108C101.419 50.1108 101.619 50.0329 101.788 49.8771C101.957 49.7214 102.088 49.4993 102.181 49.2109C102.274 48.9226 102.32 48.5795 102.32 48.1818C102.32 47.7808 102.274 47.4377 102.181 47.1527C102.088 46.8643 101.957 46.6423 101.788 46.4865C101.619 46.3307 101.419 46.2528 101.187 46.2528C100.942 46.2528 100.731 46.3307 100.555 46.4865C100.38 46.6423 100.246 46.8643 100.153 47.1527C100.06 47.4377 100.014 47.7808 100.014 48.1818C100.014 48.5795 100.06 48.9226 100.153 49.2109C100.246 49.4993 100.38 49.7214 100.555 49.8771C100.731 50.0329 100.942 50.1108 101.187 50.1108ZM111.19 48.6591V44.3636H113.934V52H111.329V50.5483H111.249C111.084 51.0355 110.794 51.4167 110.379 51.6918C109.965 51.9635 109.473 52.0994 108.903 52.0994C108.369 52.0994 107.902 51.9768 107.501 51.7315C107.103 51.4863 106.793 51.1482 106.571 50.7173C106.352 50.2865 106.241 49.7926 106.238 49.2358V44.3636H108.982V48.6591C108.986 49.0369 109.082 49.3336 109.271 49.549C109.463 49.7644 109.731 49.8722 110.076 49.8722C110.305 49.8722 110.502 49.8241 110.668 49.728C110.837 49.6286 110.966 49.4893 111.055 49.3104C111.148 49.1281 111.193 48.911 111.19 48.6591ZM119.009 55.0227C118.243 55.0227 117.587 54.9134 117.04 54.6946C116.496 54.4792 116.074 54.1809 115.772 53.7997C115.474 53.4219 115.307 52.9877 115.27 52.4972H117.915C117.942 52.6596 118.008 52.7905 118.114 52.8899C118.22 52.9893 118.356 53.0606 118.522 53.1037C118.691 53.1501 118.88 53.1733 119.088 53.1733C119.443 53.1733 119.736 53.0871 119.968 52.9148C120.204 52.7424 120.321 52.4309 120.321 51.9801V50.6875H120.242C120.142 50.946 119.99 51.1664 119.784 51.3487C119.579 51.5277 119.332 51.6652 119.044 51.7614C118.755 51.8542 118.439 51.9006 118.094 51.9006C117.55 51.9006 117.05 51.7746 116.593 51.5227C116.139 51.2708 115.774 50.8714 115.499 50.3246C115.227 49.7777 115.091 49.0634 115.091 48.1818C115.091 47.2604 115.234 46.5114 115.519 45.9347C115.807 45.358 116.178 44.9354 116.632 44.6669C117.09 44.3984 117.57 44.2642 118.074 44.2642C118.452 44.2642 118.783 44.3305 119.068 44.4631C119.353 44.5923 119.592 44.7663 119.784 44.9851C119.977 45.2005 120.122 45.4375 120.222 45.696H120.282V44.3636H123.026V51.9801C123.026 52.6264 122.858 53.175 122.524 53.6257C122.192 54.0798 121.725 54.4261 121.122 54.6648C120.518 54.9034 119.814 55.0227 119.009 55.0227ZM119.108 49.9517C119.36 49.9517 119.576 49.8821 119.755 49.7429C119.937 49.6004 120.076 49.3982 120.172 49.1364C120.272 48.8712 120.321 48.553 120.321 48.1818C120.321 47.804 120.272 47.4808 120.172 47.2124C120.076 46.9406 119.937 46.7334 119.755 46.5909C119.576 46.4451 119.36 46.3722 119.108 46.3722C118.856 46.3722 118.641 46.4451 118.462 46.5909C118.286 46.7334 118.15 46.9406 118.054 47.2124C117.961 47.4808 117.915 47.804 117.915 48.1818C117.915 48.5597 117.961 48.8812 118.054 49.1463C118.15 49.4081 118.286 49.6087 118.462 49.7479C118.641 49.8838 118.856 49.9517 119.108 49.9517ZM127.166 47.7045V52H124.422V41.8182H127.066V45.8153H127.146C127.318 45.3281 127.605 44.9486 128.006 44.6768C128.407 44.4018 128.889 44.2642 129.453 44.2642C129.993 44.2642 130.462 44.3868 130.86 44.6321C131.261 44.8774 131.571 45.2154 131.79 45.6463C132.012 46.0772 132.121 46.571 132.118 47.1278V52H129.373V47.7045C129.377 47.3267 129.282 47.0301 129.09 46.8146C128.901 46.5992 128.631 46.4915 128.28 46.4915C128.057 46.4915 127.862 46.5412 127.693 46.6406C127.527 46.7367 127.398 46.8759 127.305 47.0582C127.216 47.2372 127.169 47.4527 127.166 47.7045ZM137.151 52.1392C136.323 52.1392 135.613 51.9751 135.024 51.647C134.434 51.3156 133.981 50.8549 133.666 50.2649C133.351 49.6716 133.194 48.9839 133.194 48.2017C133.194 47.4195 133.351 46.7334 133.666 46.1435C133.981 45.5502 134.434 45.0895 135.024 44.7614C135.613 44.4299 136.323 44.2642 137.151 44.2642C137.98 44.2642 138.689 44.4299 139.279 44.7614C139.869 45.0895 140.322 45.5502 140.636 46.1435C140.951 46.7334 141.109 47.4195 141.109 48.2017C141.109 48.9839 140.951 49.6716 140.636 50.2649C140.322 50.8549 139.869 51.3156 139.279 51.647C138.689 51.9751 137.98 52.1392 137.151 52.1392ZM137.171 50.1108C137.403 50.1108 137.604 50.0329 137.773 49.8771C137.942 49.7214 138.073 49.4993 138.166 49.2109C138.258 48.9226 138.305 48.5795 138.305 48.1818C138.305 47.7808 138.258 47.4377 138.166 47.1527C138.073 46.8643 137.942 46.6423 137.773 46.4865C137.604 46.3307 137.403 46.2528 137.171 46.2528C136.926 46.2528 136.716 46.3307 136.54 46.4865C136.364 46.6423 136.23 46.8643 136.137 47.1527C136.044 47.4377 135.998 47.7808 135.998 48.1818C135.998 48.5795 136.044 48.9226 136.137 49.2109C136.23 49.4993 136.364 49.7214 136.54 49.8771C136.716 50.0329 136.926 50.1108 137.171 50.1108ZM147.174 48.6591V44.3636H149.918V52H147.313V50.5483H147.234C147.068 51.0355 146.778 51.4167 146.364 51.6918C145.949 51.9635 145.457 52.0994 144.887 52.0994C144.354 52.0994 143.886 51.9768 143.485 51.7315C143.087 51.4863 142.778 51.1482 142.555 50.7173C142.337 50.2865 142.226 49.7926 142.222 49.2358V44.3636H144.967V48.6591C144.97 49.0369 145.066 49.3336 145.255 49.549C145.447 49.7644 145.716 49.8722 146.06 49.8722C146.289 49.8722 146.486 49.8241 146.652 49.728C146.821 49.6286 146.95 49.4893 147.04 49.3104C147.133 49.1281 147.177 48.911 147.174 48.6591ZM155.868 44.3636V46.3523H150.837V44.3636H155.868ZM151.811 42.5341H154.556V49.544C154.556 49.6501 154.574 49.7396 154.61 49.8125C154.647 49.8821 154.703 49.9351 154.779 49.9716C154.856 50.0047 154.953 50.0213 155.073 50.0213C155.156 50.0213 155.252 50.0114 155.361 49.9915C155.474 49.9716 155.557 49.955 155.61 49.9418L156.007 51.8707C155.885 51.9072 155.709 51.9519 155.48 52.005C155.255 52.058 154.987 52.0928 154.675 52.1094C154.045 52.1425 153.517 52.0779 153.089 51.9155C152.661 51.7498 152.34 51.4896 152.125 51.1349C151.909 50.7803 151.805 50.3362 151.811 49.8026V42.5341ZM159.459 44.0455V41.8182H168.308V44.0455H165.246V52H162.521V44.0455H159.459ZM172.133 47.7045V52H169.388V41.8182H172.033V45.8153H172.113C172.285 45.3281 172.572 44.9486 172.973 44.6768C173.374 44.4018 173.856 44.2642 174.42 44.2642C174.96 44.2642 175.429 44.3868 175.827 44.6321C176.228 44.8774 176.538 45.2154 176.756 45.6463C176.978 46.0772 177.088 46.571 177.084 47.1278V52H174.34V47.7045C174.343 47.3267 174.249 47.0301 174.057 46.8146C173.868 46.5992 173.598 46.4915 173.246 46.4915C173.024 46.4915 172.829 46.5412 172.66 46.6406C172.494 46.7367 172.365 46.8759 172.272 47.0582C172.182 47.2372 172.136 47.4527 172.133 47.7045ZM182.098 52.1392C181.283 52.1392 180.58 51.9834 179.99 51.6719C179.404 51.357 178.951 50.9062 178.633 50.3196C178.318 49.7296 178.161 49.0237 178.161 48.2017C178.161 47.4129 178.32 46.7235 178.638 46.1335C178.956 45.5436 179.405 45.0845 179.985 44.7564C180.565 44.4283 181.25 44.2642 182.039 44.2642C182.615 44.2642 183.137 44.3537 183.605 44.5327C184.072 44.7116 184.471 44.9718 184.803 45.3132C185.134 45.6513 185.389 46.0623 185.568 46.5462C185.747 47.0301 185.837 47.5753 185.837 48.1818V48.8182H179.016V47.3068H183.311C183.308 47.0881 183.252 46.8958 183.142 46.7301C183.036 46.5611 182.892 46.4302 182.71 46.3374C182.531 46.2412 182.327 46.1932 182.098 46.1932C181.876 46.1932 181.672 46.2412 181.487 46.3374C181.301 46.4302 181.152 46.5594 181.039 46.7251C180.93 46.8909 180.872 47.0848 180.865 47.3068V48.9375C180.865 49.1828 180.917 49.4015 181.019 49.5938C181.122 49.786 181.27 49.9368 181.462 50.0462C181.654 50.1555 181.886 50.2102 182.158 50.2102C182.347 50.2102 182.519 50.1837 182.675 50.1307C182.834 50.0777 182.97 50.0014 183.083 49.902C183.195 49.7992 183.278 49.6766 183.331 49.5341H185.837C185.751 50.0644 185.547 50.5251 185.225 50.9162C184.904 51.304 184.478 51.6056 183.948 51.821C183.421 52.0331 182.804 52.1392 182.098 52.1392ZM189.288 41.8182H192.371L194.359 45.9545H194.439L196.428 41.8182H199.51L195.771 48.7983V52H193.027V48.7983L189.288 41.8182ZM202.169 52.1392C201.353 52.1392 200.651 51.9834 200.061 51.6719C199.474 51.357 199.022 50.9062 198.703 50.3196C198.389 49.7296 198.231 49.0237 198.231 48.2017C198.231 47.4129 198.39 46.7235 198.708 46.1335C199.027 45.5436 199.476 45.0845 200.056 44.7564C200.636 44.4283 201.32 44.2642 202.109 44.2642C202.686 44.2642 203.208 44.3537 203.675 44.5327C204.142 44.7116 204.542 44.9718 204.873 45.3132C205.205 45.6513 205.46 46.0623 205.639 46.5462C205.818 47.0301 205.907 47.5753 205.907 48.1818V48.8182H199.086V47.3068H203.382C203.378 47.0881 203.322 46.8958 203.213 46.7301C203.107 46.5611 202.962 46.4302 202.78 46.3374C202.601 46.2412 202.397 46.1932 202.169 46.1932C201.947 46.1932 201.743 46.2412 201.557 46.3374C201.371 46.4302 201.222 46.5594 201.11 46.7251C201 46.8909 200.942 47.0848 200.936 47.3068V48.9375C200.936 49.1828 200.987 49.4015 201.09 49.5938C201.193 49.786 201.34 49.9368 201.532 50.0462C201.724 50.1555 201.956 50.2102 202.228 50.2102C202.417 50.2102 202.59 50.1837 202.745 50.1307C202.904 50.0777 203.04 50.0014 203.153 49.902C203.266 49.7992 203.349 49.6766 203.402 49.5341H205.907C205.821 50.0644 205.617 50.5251 205.296 50.9162C204.974 51.304 204.548 51.6056 204.018 51.821C203.491 52.0331 202.875 52.1392 202.169 52.1392ZM209.155 52.1193C208.668 52.1193 208.237 52.0398 207.862 51.8807C207.491 51.7183 207.199 51.473 206.987 51.1449C206.775 50.8168 206.669 50.3991 206.669 49.892C206.669 49.4744 206.74 49.1181 206.883 48.8232C207.025 48.5249 207.224 48.2812 207.479 48.0923C207.735 47.9034 208.031 47.7592 208.369 47.6598C208.711 47.5604 209.079 47.4957 209.473 47.4659C209.901 47.4328 210.244 47.393 210.502 47.3466C210.764 47.2969 210.953 47.2289 211.069 47.1428C211.185 47.0533 211.243 46.9356 211.243 46.7898V46.7699C211.243 46.571 211.167 46.4186 211.014 46.3125C210.862 46.2064 210.666 46.1534 210.428 46.1534C210.166 46.1534 209.952 46.2114 209.786 46.3274C209.624 46.4401 209.526 46.6141 209.493 46.8494H206.967C207.001 46.3854 207.148 45.9579 207.41 45.5668C207.675 45.1723 208.061 44.8575 208.568 44.6222C209.075 44.3835 209.708 44.2642 210.467 44.2642C211.014 44.2642 211.505 44.3288 211.939 44.4581C212.373 44.584 212.743 44.7614 213.048 44.9901C213.353 45.2154 213.585 45.4806 213.744 45.7855C213.906 46.0871 213.987 46.4152 213.987 46.7699V52H211.422V50.9261H211.362C211.21 51.2112 211.024 51.4415 210.805 51.6172C210.59 51.7929 210.343 51.9205 210.065 52C209.79 52.0795 209.486 52.1193 209.155 52.1193ZM210.05 50.3892C210.259 50.3892 210.454 50.3461 210.636 50.2599C210.822 50.1738 210.973 50.0495 211.089 49.8871C211.205 49.7247 211.263 49.5275 211.263 49.2955V48.6591C211.19 48.6889 211.112 48.7171 211.029 48.7436C210.95 48.7701 210.863 48.795 210.771 48.8182C210.681 48.8414 210.585 48.8629 210.482 48.8828C210.383 48.9027 210.278 48.9209 210.169 48.9375C209.957 48.9706 209.783 49.0253 209.647 49.1016C209.515 49.1745 209.415 49.2656 209.349 49.375C209.286 49.4811 209.254 49.6004 209.254 49.733C209.254 49.9451 209.329 50.1075 209.478 50.2202C209.627 50.3329 209.818 50.3892 210.05 50.3892ZM215.299 52V44.3636H217.963V45.8153H218.043C218.182 45.2784 218.402 44.8857 218.704 44.6371C219.009 44.3885 219.365 44.2642 219.773 44.2642C219.892 44.2642 220.01 44.2741 220.126 44.294C220.245 44.3106 220.36 44.3355 220.469 44.3686V46.7102C220.333 46.6638 220.166 46.629 219.967 46.6058C219.768 46.5826 219.597 46.571 219.455 46.571C219.186 46.571 218.944 46.6323 218.729 46.755C218.517 46.8743 218.349 47.0433 218.227 47.2621C218.104 47.4775 218.043 47.7311 218.043 48.0227V52H215.299Z" fill="white"/>
<defs>
<linearGradient id="paint0_linear_5_28" x1="248.264" y1="66.4445" x2="12.0553" y2="66.7412" gradientUnits="userSpaceOnUse">
<stop stop-color="#EC4899"/>
<stop offset="1" stop-color="#A855F7"/>
</linearGradient>
</defs>
</svg>
