<svg width="817" height="214" viewBox="0 0 817 214" fill="none" xmlns="http://www.w3.org/2000/svg">
<path d="M33.0026 109.025L784.004 109.047M784.004 109.047L717.026 33.9674M784.004 109.047L717.031 180.971" stroke="url(#paint0_linear_5_22)" stroke-width="66" stroke-linecap="round" stroke-linejoin="round"/>
<path d="M75.0682 69C74.9773 67.8636 74.5511 66.9773 73.7898 66.3409C73.0398 65.7045 71.8977 65.3864 70.3636 65.3864C69.3864 65.3864 68.5852 65.5057 67.9602 65.7443C67.3466 65.9716 66.892 66.2841 66.5966 66.6818C66.3011 67.0795 66.1477 67.5341 66.1364 68.0455C66.1136 68.4659 66.1875 68.8466 66.358 69.1875C66.5398 69.517 66.8239 69.8182 67.2102 70.0909C67.5966 70.3523 68.0909 70.5909 68.6932 70.8068C69.2955 71.0227 70.0114 71.2159 70.8409 71.3864L73.7045 72C75.6364 72.4091 77.2898 72.9489 78.6648 73.6193C80.0398 74.2898 81.1648 75.0795 82.0398 75.9886C82.9148 76.8864 83.5568 77.8977 83.9659 79.0227C84.3864 80.1477 84.6023 81.375 84.6136 82.7045C84.6023 85 84.0284 86.9432 82.892 88.5341C81.7557 90.125 80.1307 91.3352 78.017 92.1648C75.9148 92.9943 73.3864 93.4091 70.4318 93.4091C67.3977 93.4091 64.75 92.9602 62.4886 92.0625C60.2386 91.1648 58.4886 89.7841 57.2386 87.9205C56 86.0455 55.375 83.6477 55.3636 80.7273H64.3636C64.4205 81.7955 64.6875 82.6932 65.1648 83.4205C65.642 84.1477 66.3125 84.6989 67.1761 85.0739C68.0511 85.4489 69.0909 85.6364 70.2955 85.6364C71.3068 85.6364 72.1534 85.5114 72.8352 85.2614C73.517 85.0114 74.0341 84.6648 74.3864 84.2216C74.7386 83.7784 74.9205 83.2727 74.9318 82.7045C74.9205 82.1705 74.7443 81.7045 74.4034 81.3068C74.0739 80.8977 73.5284 80.5341 72.767 80.2159C72.0057 79.8864 70.9773 79.5795 69.6818 79.2955L66.2045 78.5455C63.1136 77.875 60.6761 76.7557 58.892 75.1875C57.1193 73.608 56.2386 71.4545 56.25 68.7273C56.2386 66.5114 56.8295 64.5739 58.0227 62.9148C59.2273 61.2443 60.892 59.9432 63.017 59.0114C65.1534 58.0795 67.6023 57.6136 70.3636 57.6136C73.1818 57.6136 75.6193 58.0852 77.6761 59.0284C79.733 59.9716 81.3182 61.3011 82.4318 63.017C83.5568 64.7216 84.125 66.7159 84.1364 69H75.0682ZM105.332 81.5455V66.8182H114.741V93H105.81V88.0227H105.537C104.969 89.6932 103.974 91 102.554 91.9432C101.134 92.875 99.446 93.3409 97.4915 93.3409C95.6619 93.3409 94.0597 92.9205 92.6847 92.0795C91.321 91.2386 90.2585 90.0795 89.4972 88.6023C88.7472 87.125 88.3665 85.4318 88.3551 83.5227V66.8182H97.7642V81.5455C97.7756 82.8409 98.1051 83.858 98.7528 84.5966C99.4119 85.3352 100.332 85.7045 101.514 85.7045C102.298 85.7045 102.974 85.5398 103.543 85.2102C104.122 84.8693 104.565 84.392 104.872 83.7784C105.19 83.1534 105.344 82.4091 105.332 81.5455ZM119.391 93V58.0909H128.8V71.3864H128.936C129.277 70.5 129.777 69.6875 130.436 68.9489C131.095 68.1989 131.913 67.6023 132.891 67.1591C133.868 66.7045 135.004 66.4773 136.3 66.4773C138.027 66.4773 139.669 66.9375 141.226 67.858C142.794 68.7784 144.067 70.2273 145.044 72.2045C146.033 74.1818 146.527 76.75 146.527 79.9091C146.527 82.9318 146.055 85.4375 145.112 87.4261C144.18 89.4148 142.93 90.8977 141.362 91.875C139.805 92.8523 138.095 93.3409 136.232 93.3409C135.004 93.3409 133.908 93.142 132.942 92.7443C131.987 92.3352 131.169 91.7841 130.487 91.0909C129.817 90.3864 129.3 89.5909 128.936 88.7045H128.732V93H119.391ZM128.595 79.9091C128.595 81.1818 128.76 82.2841 129.089 83.2159C129.43 84.1364 129.908 84.8523 130.521 85.3636C131.146 85.8636 131.891 86.1136 132.754 86.1136C133.618 86.1136 134.351 85.8693 134.953 85.3807C135.567 84.8807 136.033 84.1705 136.351 83.25C136.68 82.3182 136.845 81.2045 136.845 79.9091C136.845 78.6136 136.68 77.5057 136.351 76.5852C136.033 75.6534 135.567 74.9432 134.953 74.4545C134.351 73.9545 133.618 73.7045 132.754 73.7045C131.891 73.7045 131.146 73.9545 130.521 74.4545C129.908 74.9432 129.43 75.6534 129.089 76.5852C128.76 77.5057 128.595 78.6136 128.595 79.9091ZM150.464 66.8182H159.874V93.8864C159.874 96.1818 159.391 97.9773 158.425 99.2727C157.47 100.568 156.129 101.483 154.402 102.017C152.675 102.551 150.658 102.818 148.351 102.818C148.01 102.818 147.697 102.813 147.413 102.801C147.118 102.79 146.794 102.773 146.442 102.75V95.7955C146.669 95.8182 146.868 95.8352 147.038 95.8466C147.197 95.858 147.362 95.8636 147.533 95.8636C148.658 95.8636 149.425 95.6875 149.834 95.3352C150.254 94.9943 150.464 94.4432 150.464 93.6818V66.8182ZM155.169 64.0909C153.896 64.0909 152.805 63.6705 151.896 62.8295C150.987 61.9886 150.533 60.9773 150.533 59.7955C150.533 58.6136 150.987 57.6023 151.896 56.7614C152.805 55.9205 153.896 55.5 155.169 55.5C156.453 55.5 157.544 55.9205 158.442 56.7614C159.351 57.6023 159.805 58.6136 159.805 59.7955C159.805 60.9773 159.351 61.9886 158.442 62.8295C157.544 63.6705 156.453 64.0909 155.169 64.0909ZM177.213 93.4773C174.418 93.4773 172.009 92.9432 169.986 91.875C167.974 90.7955 166.423 89.25 165.332 87.2386C164.253 85.2159 163.713 82.7955 163.713 79.9773C163.713 77.2727 164.259 74.9091 165.349 72.8864C166.44 70.8636 167.98 69.2898 169.969 68.1648C171.957 67.0398 174.304 66.4773 177.009 66.4773C178.986 66.4773 180.776 66.7841 182.378 67.3977C183.98 68.0114 185.349 68.9034 186.486 70.0739C187.622 71.233 188.497 72.642 189.111 74.3011C189.724 75.9602 190.031 77.8295 190.031 79.9091V82.0909H166.645V76.9091H181.372C181.361 76.1591 181.168 75.5 180.793 74.9318C180.429 74.3523 179.935 73.9034 179.31 73.5852C178.696 73.2557 177.997 73.0909 177.213 73.0909C176.452 73.0909 175.753 73.2557 175.116 73.5852C174.48 73.9034 173.969 74.3466 173.582 74.9148C173.207 75.483 173.009 76.1477 172.986 76.9091V82.5C172.986 83.3409 173.162 84.0909 173.514 84.75C173.866 85.4091 174.372 85.9261 175.031 86.3011C175.69 86.6761 176.486 86.8636 177.418 86.8636C178.065 86.8636 178.656 86.7727 179.19 86.5909C179.736 86.4091 180.202 86.1477 180.588 85.8068C180.974 85.4545 181.259 85.0341 181.44 84.5455H190.031C189.736 86.3636 189.037 87.9432 187.935 89.2841C186.832 90.6136 185.372 91.6477 183.554 92.3864C181.747 93.1136 179.634 93.4773 177.213 93.4773ZM206.484 93.4773C203.643 93.4773 201.212 92.9148 199.189 91.7898C197.166 90.6534 195.615 89.0739 194.536 87.0511C193.456 85.017 192.916 82.6591 192.916 79.9773C192.916 77.2955 193.456 74.9432 194.536 72.9205C195.615 70.8864 197.166 69.3068 199.189 68.1818C201.212 67.0455 203.643 66.4773 206.484 66.4773C209.053 66.4773 211.274 66.9432 213.149 67.875C215.036 68.7955 216.496 70.1023 217.53 71.7955C218.564 73.4773 219.087 75.4545 219.098 77.7273H210.371C210.246 76.3523 209.848 75.3068 209.178 74.5909C208.518 73.8636 207.666 73.5 206.621 73.5C205.803 73.5 205.087 73.7386 204.473 74.2159C203.859 74.6818 203.382 75.392 203.041 76.3466C202.7 77.2898 202.53 78.4773 202.53 79.9091C202.53 81.3409 202.7 82.5341 203.041 83.4886C203.382 84.4318 203.859 85.142 204.473 85.6193C205.087 86.0852 205.803 86.3182 206.621 86.3182C207.314 86.3182 207.928 86.1591 208.462 85.8409C208.996 85.5114 209.428 85.0341 209.757 84.4091C210.098 83.7727 210.303 83 210.371 82.0909H219.098C219.064 84.3977 218.536 86.4091 217.513 88.125C216.49 89.8295 215.041 91.1477 213.166 92.0795C211.303 93.0114 209.075 93.4773 206.484 93.4773ZM238.594 66.8182V73.6364H221.344V66.8182H238.594ZM224.685 60.5455H234.094V84.5795C234.094 84.9432 234.156 85.25 234.281 85.5C234.406 85.7386 234.599 85.9205 234.861 86.0455C235.122 86.1591 235.457 86.2159 235.866 86.2159C236.151 86.2159 236.48 86.1818 236.855 86.1136C237.241 86.0455 237.526 85.9886 237.707 85.9432L239.071 92.5568C238.651 92.6818 238.048 92.8352 237.264 93.017C236.491 93.1989 235.571 93.3182 234.503 93.375C232.344 93.4886 230.531 93.267 229.065 92.7102C227.599 92.142 226.497 91.25 225.759 90.0341C225.02 88.8182 224.662 87.2955 224.685 85.4659V60.5455ZM284.45 71.1818H274.837C274.768 70.3864 274.587 69.6648 274.291 69.017C274.007 68.3693 273.609 67.8125 273.098 67.3466C272.598 66.8693 271.99 66.5057 271.274 66.2557C270.558 65.9943 269.746 65.8636 268.837 65.8636C267.246 65.8636 265.899 66.25 264.797 67.0227C263.706 67.7955 262.876 68.9034 262.308 70.3466C261.751 71.7898 261.473 73.5227 261.473 75.5455C261.473 77.6818 261.757 79.4716 262.325 80.9148C262.905 82.3466 263.74 83.4261 264.831 84.1534C265.922 84.8693 267.234 85.2273 268.768 85.2273C269.643 85.2273 270.428 85.1193 271.121 84.9034C271.814 84.6761 272.416 84.3523 272.928 83.9318C273.439 83.5114 273.854 83.0057 274.172 82.4148C274.501 81.8125 274.723 81.1364 274.837 80.3864L284.45 80.4545C284.337 81.9318 283.922 83.4375 283.206 84.9716C282.49 86.4943 281.473 87.9034 280.155 89.1989C278.848 90.483 277.229 91.517 275.297 92.3011C273.365 93.0852 271.121 93.4773 268.564 93.4773C265.359 93.4773 262.484 92.7898 259.939 91.4148C257.405 90.0398 255.399 88.017 253.922 85.3466C252.456 82.6761 251.723 79.4091 251.723 75.5455C251.723 71.6591 252.473 68.3864 253.973 65.7273C255.473 63.0568 257.496 61.0398 260.041 59.6761C262.587 58.3011 265.428 57.6136 268.564 57.6136C270.768 57.6136 272.797 57.9148 274.649 58.517C276.501 59.1193 278.126 60 279.524 61.1591C280.922 62.3068 282.047 63.7216 282.899 65.4034C283.751 67.0852 284.268 69.0114 284.45 71.1818ZM301.5 93.4773C298.659 93.4773 296.227 92.9148 294.205 91.7898C292.182 90.6534 290.631 89.0739 289.551 87.0511C288.472 85.017 287.932 82.6591 287.932 79.9773C287.932 77.2955 288.472 74.9432 289.551 72.9205C290.631 70.8864 292.182 69.3068 294.205 68.1818C296.227 67.0455 298.659 66.4773 301.5 66.4773C304.341 66.4773 306.773 67.0455 308.795 68.1818C310.818 69.3068 312.369 70.8864 313.449 72.9205C314.528 74.9432 315.068 77.2955 315.068 79.9773C315.068 82.6591 314.528 85.017 313.449 87.0511C312.369 89.0739 310.818 90.6534 308.795 91.7898C306.773 92.9148 304.341 93.4773 301.5 93.4773ZM301.568 86.5227C302.364 86.5227 303.051 86.2557 303.631 85.7216C304.21 85.1875 304.659 84.4261 304.977 83.4375C305.295 82.4489 305.455 81.2727 305.455 79.9091C305.455 78.5341 305.295 77.358 304.977 76.3807C304.659 75.392 304.21 74.6307 303.631 74.0966C303.051 73.5625 302.364 73.2955 301.568 73.2955C300.727 73.2955 300.006 73.5625 299.403 74.0966C298.801 74.6307 298.341 75.392 298.023 76.3807C297.705 77.358 297.545 78.5341 297.545 79.9091C297.545 81.2727 297.705 82.4489 298.023 83.4375C298.341 84.4261 298.801 85.1875 299.403 85.7216C300.006 86.2557 300.727 86.5227 301.568 86.5227ZM328.295 78.2727V93H318.886V66.8182H327.818V71.7955H328.091C328.659 70.1364 329.659 68.8352 331.091 67.892C332.534 66.9489 334.216 66.4773 336.136 66.4773C337.989 66.4773 339.597 66.9034 340.96 67.7557C342.335 68.5966 343.398 69.7557 344.148 71.233C344.909 72.7102 345.284 74.3977 345.273 76.2955V93H335.864V78.2727C335.875 76.9773 335.545 75.9602 334.875 75.2216C334.216 74.483 333.295 74.1136 332.114 74.1136C331.341 74.1136 330.665 74.2841 330.085 74.625C329.517 74.9545 329.08 75.4318 328.773 76.0568C328.466 76.6705 328.307 77.4091 328.295 78.2727ZM365.531 66.8182V73.6364H348.281V66.8182H365.531ZM351.622 60.5455H361.031V84.5795C361.031 84.9432 361.094 85.25 361.219 85.5C361.344 85.7386 361.537 85.9205 361.798 86.0455C362.06 86.1591 362.395 86.2159 362.804 86.2159C363.088 86.2159 363.418 86.1818 363.793 86.1136C364.179 86.0455 364.463 85.9886 364.645 85.9432L366.009 92.5568C365.588 92.6818 364.986 92.8352 364.202 93.017C363.429 93.1989 362.509 93.3182 361.44 93.375C359.281 93.4886 357.469 93.267 356.003 92.7102C354.537 92.142 353.435 91.25 352.696 90.0341C351.957 88.8182 351.599 87.2955 351.622 85.4659V60.5455ZM381.635 93.4773C378.839 93.4773 376.43 92.9432 374.408 91.875C372.396 90.7955 370.845 89.25 369.754 87.2386C368.675 85.2159 368.135 82.7955 368.135 79.9773C368.135 77.2727 368.68 74.9091 369.771 72.8864C370.862 70.8636 372.402 69.2898 374.391 68.1648C376.379 67.0398 378.726 66.4773 381.43 66.4773C383.408 66.4773 385.197 66.7841 386.8 67.3977C388.402 68.0114 389.771 68.9034 390.908 70.0739C392.044 71.233 392.919 72.642 393.533 74.3011C394.146 75.9602 394.453 77.8295 394.453 79.9091V82.0909H371.067V76.9091H385.794C385.783 76.1591 385.589 75.5 385.214 74.9318C384.851 74.3523 384.357 73.9034 383.732 73.5852C383.118 73.2557 382.419 73.0909 381.635 73.0909C380.874 73.0909 380.175 73.2557 379.538 73.5852C378.902 73.9034 378.391 74.3466 378.004 74.9148C377.629 75.483 377.43 76.1477 377.408 76.9091V82.5C377.408 83.3409 377.584 84.0909 377.936 84.75C378.288 85.4091 378.794 85.9261 379.453 86.3011C380.112 86.6761 380.908 86.8636 381.839 86.8636C382.487 86.8636 383.078 86.7727 383.612 86.5909C384.158 86.4091 384.624 86.1477 385.01 85.8068C385.396 85.4545 385.68 85.0341 385.862 84.5455H394.453C394.158 86.3636 393.459 87.9432 392.357 89.2841C391.254 90.6136 389.794 91.6477 387.976 92.3864C386.169 93.1136 384.055 93.4773 381.635 93.4773ZM407.702 78.2727V93H398.293V66.8182H407.224V71.7955H407.497C408.065 70.1364 409.065 68.8352 410.497 67.892C411.94 66.9489 413.622 66.4773 415.543 66.4773C417.395 66.4773 419.003 66.9034 420.366 67.7557C421.741 68.5966 422.804 69.7557 423.554 71.233C424.315 72.7102 424.69 74.3977 424.679 76.2955V93H415.27V78.2727C415.281 76.9773 414.952 75.9602 414.281 75.2216C413.622 74.483 412.702 74.1136 411.52 74.1136C410.747 74.1136 410.071 74.2841 409.491 74.625C408.923 74.9545 408.486 75.4318 408.179 76.0568C407.872 76.6705 407.713 77.4091 407.702 78.2727ZM444.938 66.8182V73.6364H427.688V66.8182H444.938ZM431.028 60.5455H440.438V84.5795C440.438 84.9432 440.5 85.25 440.625 85.5C440.75 85.7386 440.943 85.9205 441.205 86.0455C441.466 86.1591 441.801 86.2159 442.21 86.2159C442.494 86.2159 442.824 86.1818 443.199 86.1136C443.585 86.0455 443.869 85.9886 444.051 85.9432L445.415 92.5568C444.994 92.6818 444.392 92.8352 443.608 93.017C442.835 93.1989 441.915 93.3182 440.847 93.375C438.688 93.4886 436.875 93.267 435.409 92.7102C433.943 92.142 432.841 91.25 432.102 90.0341C431.364 88.8182 431.006 87.2955 431.028 85.4659V60.5455ZM458.203 93V58.0909H482.749V65.7273H467.68V71.7273H481.249V79.3636H467.68V93H458.203ZM497.062 93.4773C494.222 93.4773 491.79 92.9148 489.767 91.7898C487.744 90.6534 486.193 89.0739 485.114 87.0511C484.034 85.017 483.494 82.6591 483.494 79.9773C483.494 77.2955 484.034 74.9432 485.114 72.9205C486.193 70.8864 487.744 69.3068 489.767 68.1818C491.79 67.0455 494.222 66.4773 497.062 66.4773C499.903 66.4773 502.335 67.0455 504.358 68.1818C506.381 69.3068 507.932 70.8864 509.011 72.9205C510.091 74.9432 510.631 77.2955 510.631 79.9773C510.631 82.6591 510.091 85.017 509.011 87.0511C507.932 89.0739 506.381 90.6534 504.358 91.7898C502.335 92.9148 499.903 93.4773 497.062 93.4773ZM497.131 86.5227C497.926 86.5227 498.614 86.2557 499.193 85.7216C499.773 85.1875 500.222 84.4261 500.54 83.4375C500.858 82.4489 501.017 81.2727 501.017 79.9091C501.017 78.5341 500.858 77.358 500.54 76.3807C500.222 75.392 499.773 74.6307 499.193 74.0966C498.614 73.5625 497.926 73.2955 497.131 73.2955C496.29 73.2955 495.568 73.5625 494.966 74.0966C494.364 74.6307 493.903 75.392 493.585 76.3807C493.267 77.358 493.108 78.5341 493.108 79.9091C493.108 81.2727 493.267 82.4489 493.585 83.4375C493.903 84.4261 494.364 85.1875 494.966 85.7216C495.568 86.2557 496.29 86.5227 497.131 86.5227ZM514.449 93V66.8182H523.585V71.7955H523.858C524.335 69.9545 525.091 68.608 526.125 67.7557C527.17 66.9034 528.392 66.4773 529.79 66.4773C530.199 66.4773 530.602 66.5114 531 66.5795C531.409 66.6364 531.801 66.7216 532.176 66.8352V74.8636C531.71 74.7045 531.136 74.5852 530.455 74.5057C529.773 74.4261 529.188 74.3864 528.699 74.3864C527.778 74.3864 526.949 74.5966 526.21 75.017C525.483 75.4261 524.909 76.0057 524.489 76.7557C524.068 77.4943 523.858 78.3636 523.858 79.3636V93H514.449ZM561.869 58.0909V93H552.392V66.8182H552.188L544.551 71.3864V63.3409L553.142 58.0909H561.869ZM577.099 58.0909H587.668L594.486 72.2727H594.759L601.577 58.0909H612.145L599.327 82.0227V93H589.918V82.0227L577.099 58.0909ZM621.26 93.4773C618.464 93.4773 616.055 92.9432 614.033 91.875C612.021 90.7955 610.47 89.25 609.379 87.2386C608.3 85.2159 607.76 82.7955 607.76 79.9773C607.76 77.2727 608.305 74.9091 609.396 72.8864C610.487 70.8636 612.027 69.2898 614.016 68.1648C616.004 67.0398 618.351 66.4773 621.055 66.4773C623.033 66.4773 624.822 66.7841 626.425 67.3977C628.027 68.0114 629.396 68.9034 630.533 70.0739C631.669 71.233 632.544 72.642 633.158 74.3011C633.771 75.9602 634.078 77.8295 634.078 79.9091V82.0909H610.692V76.9091H625.419C625.408 76.1591 625.214 75.5 624.839 74.9318C624.476 74.3523 623.982 73.9034 623.357 73.5852C622.743 73.2557 622.044 73.0909 621.26 73.0909C620.499 73.0909 619.8 73.2557 619.163 73.5852C618.527 73.9034 618.016 74.3466 617.629 74.9148C617.254 75.483 617.055 76.1477 617.033 76.9091V82.5C617.033 83.3409 617.209 84.0909 617.561 84.75C617.913 85.4091 618.419 85.9261 619.078 86.3011C619.737 86.6761 620.533 86.8636 621.464 86.8636C622.112 86.8636 622.703 86.7727 623.237 86.5909C623.783 86.4091 624.249 86.1477 624.635 85.8068C625.021 85.4545 625.305 85.0341 625.487 84.5455H634.078C633.783 86.3636 633.084 87.9432 631.982 89.2841C630.879 90.6136 629.419 91.6477 627.601 92.3864C625.794 93.1136 623.68 93.4773 621.26 93.4773ZM645.213 93.4091C643.543 93.4091 642.065 93.1364 640.781 92.5909C639.509 92.0341 638.509 91.1932 637.781 90.0682C637.054 88.9432 636.69 87.5114 636.69 85.7727C636.69 84.3409 636.935 83.1193 637.423 82.108C637.912 81.0852 638.594 80.25 639.469 79.6023C640.344 78.9545 641.361 78.4602 642.52 78.1193C643.69 77.7784 644.952 77.5568 646.304 77.4545C647.77 77.3409 648.946 77.2045 649.832 77.0455C650.73 76.875 651.378 76.642 651.776 76.3466C652.173 76.0398 652.372 75.6364 652.372 75.1364V75.0682C652.372 74.3864 652.111 73.8636 651.588 73.5C651.065 73.1364 650.395 72.9545 649.577 72.9545C648.679 72.9545 647.946 73.1534 647.378 73.5511C646.821 73.9375 646.486 74.5341 646.372 75.3409H637.713C637.827 73.75 638.332 72.2841 639.23 70.9432C640.139 69.5909 641.463 68.5114 643.202 67.7045C644.94 66.8864 647.111 66.4773 649.713 66.4773C651.588 66.4773 653.27 66.6989 654.759 67.142C656.247 67.5739 657.514 68.1818 658.56 68.9659C659.605 69.7386 660.401 70.6477 660.946 71.6932C661.503 72.7273 661.781 73.8523 661.781 75.0682V93H652.986V89.3182H652.781C652.259 90.2955 651.622 91.0852 650.872 91.6875C650.134 92.2898 649.287 92.7273 648.332 93C647.389 93.2727 646.349 93.4091 645.213 93.4091ZM648.281 87.4773C648.997 87.4773 649.668 87.3295 650.293 87.0341C650.929 86.7386 651.446 86.3125 651.844 85.7557C652.241 85.1989 652.44 84.5227 652.44 83.7273V81.5455C652.19 81.6477 651.923 81.7443 651.639 81.8352C651.366 81.9261 651.071 82.0114 650.753 82.0909C650.446 82.1705 650.116 82.2443 649.764 82.3125C649.423 82.3807 649.065 82.4432 648.69 82.5C647.963 82.6136 647.366 82.8011 646.901 83.0625C646.446 83.3125 646.105 83.625 645.878 84C645.662 84.3636 645.554 84.7727 645.554 85.2273C645.554 85.9545 645.81 86.5114 646.321 86.8977C646.832 87.2841 647.486 87.4773 648.281 87.4773ZM666.277 93V66.8182H675.413V71.7955H675.686C676.163 69.9545 676.919 68.608 677.953 67.7557C678.999 66.9034 680.22 66.4773 681.618 66.4773C682.027 66.4773 682.43 66.5114 682.828 66.5795C683.237 66.6364 683.629 66.7216 684.004 66.8352V74.8636C683.538 74.7045 682.964 74.5852 682.283 74.5057C681.601 74.4261 681.016 74.3864 680.527 74.3864C679.607 74.3864 678.777 74.5966 678.038 75.017C677.311 75.4261 676.737 76.0057 676.317 76.7557C675.896 77.4943 675.686 78.3636 675.686 79.3636V93H666.277Z" fill="white"/>
<defs>
<linearGradient id="paint0_linear_5_22" x1="839.687" y1="144.921" x2="33.004" y2="145.934" gradientUnits="userSpaceOnUse">
<stop stop-color="#EC4899"/>
<stop offset="1" stop-color="#A855F7"/>
</linearGradient>
</defs>
</svg>
